<ttFont>
    <TTGlyph name=".ttfautohint" xMin="0" yMin="0" xMax="0" yMax="0">
      <contour>
        <pt x="0" y="0" on="1"/>
      </contour>
    </TTGlyph>
    <TTGlyph name="A" xMin="-8" yMin="0" xMax="666" yMax="655">
      <contour>
        <pt x="58" y="74" on="1"/>
        <pt x="259" y="655" on="1"/>
        <pt x="380" y="655" on="1"/>
        <pt x="597" y="74" on="1"/>
        <pt x="666" y="61" on="1"/>
        <pt x="666" y="0" on="1"/>
        <pt x="359" y="0" on="1"/>
        <pt x="359" y="62" on="1"/>
        <pt x="438" y="74" on="1"/>
        <pt x="404" y="180" on="1"/>
        <pt x="201" y="180" on="1"/>
        <pt x="165" y="73" on="1"/>
        <pt x="248" y="62" on="1"/>
        <pt x="248" y="0" on="1"/>
        <pt x="-8" y="0" on="1"/>
        <pt x="-8" y="62" on="1"/>
      </contour>
      <contour>
        <pt x="310" y="472" on="1"/>
        <pt x="307" y="496" on="1"/>
        <pt x="302" y="496" on="1"/>
        <pt x="299" y="472" on="1"/>
        <pt x="228" y="260" on="1"/>
        <pt x="380" y="260" on="1"/>
      </contour>
    </TTGlyph>
    <TTGlyph name="AE" xMin="-4" yMin="0" xMax="857" yMax="648">
      <contour>
        <pt x="62" y="74" on="1"/>
        <pt x="70" y="74" on="1"/>
        <pt x="338" y="648" on="1"/>
        <pt x="785" y="648" on="1"/>
        <pt x="801" y="460" on="1"/>
        <pt x="735" y="460" on="1"/>
        <pt x="698" y="572" on="1"/>
        <pt x="577" y="572" on="1"/>
        <pt x="534" y="565" on="1"/>
        <pt x="554" y="334" on="1"/>
        <pt x="645" y="334" on="1"/>
        <pt x="661" y="403" on="1"/>
        <pt x="714" y="403" on="1"/>
        <pt x="734" y="182" on="1"/>
        <pt x="681" y="182" on="1"/>
        <pt x="652" y="258" on="1"/>
        <pt x="561" y="258" on="1"/>
        <pt x="577" y="76" on="1"/>
        <pt x="758" y="76" on="1"/>
        <pt x="775" y="197" on="1"/>
        <pt x="839" y="197" on="1"/>
        <pt x="857" y="0" on="1"/>
        <pt x="362" y="0" on="1"/>
        <pt x="357" y="56" on="1"/>
        <pt x="435" y="75" on="1"/>
        <pt x="419" y="254" on="1"/>
        <pt x="254" y="254" on="1"/>
        <pt x="174" y="73" on="1"/>
        <pt x="251" y="62" on="1"/>
        <pt x="251" y="0" on="1"/>
        <pt x="-4" y="0" on="1"/>
        <pt x="-4" y="62" on="1"/>
      </contour>
      <contour>
        <pt x="391" y="565" on="1"/>
        <pt x="289" y="334" on="1"/>
        <pt x="412" y="334" on="1"/>
      </contour>
    </TTGlyph>
    <TTGlyph name="AEacute" xMin="-4" yMin="0" xMax="857" yMax="844">
      <component glyphName=".ttfautohint" x="0" y="0" flags="0x0"/>
      <component glyphName="AE" x="0" y="0" flags="0x0"/>
      <component glyphName="acutecomb.case" x="670" y="0" flags="0x0"/>
    </TTGlyph>
    <TTGlyph name="Aacute" xMin="-8" yMin="0" xMax="666" yMax="844">
      <contour>
        <pt x="331" y="820" on="1"/>
        <pt x="337" y="823" on="0"/>
        <pt x="371" y="844" on="0"/>
        <pt x="383" y="844" on="1"/>
        <pt x="402" y="844" on="0"/>
        <pt x="439" y="810" on="0"/>
        <pt x="439" y="774" on="1"/>
        <pt x="439" y="761" on="0"/>
        <pt x="433" y="739" on="1"/>
        <pt x="213" y="671" on="1"/>
        <pt x="188" y="721" on="1"/>
      </contour>
      <contour>
        <pt x="58" y="74" on="1"/>
        <pt x="259" y="655" on="1"/>
        <pt x="380" y="655" on="1"/>
        <pt x="597" y="74" on="1"/>
        <pt x="666" y="61" on="1"/>
        <pt x="666" y="0" on="1"/>
        <pt x="359" y="0" on="1"/>
        <pt x="359" y="62" on="1"/>
        <pt x="438" y="74" on="1"/>
        <pt x="404" y="180" on="1"/>
        <pt x="201" y="180" on="1"/>
        <pt x="165" y="73" on="1"/>
        <pt x="248" y="62" on="1"/>
        <pt x="248" y="0" on="1"/>
        <pt x="-8" y="0" on="1"/>
        <pt x="-8" y="62" on="1"/>
      </contour>
      <contour>
        <pt x="310" y="472" on="1"/>
        <pt x="307" y="496" on="1"/>
        <pt x="302" y="496" on="1"/>
        <pt x="299" y="472" on="1"/>
        <pt x="228" y="260" on="1"/>
        <pt x="378" y="260" on="1"/>
      </contour>
    </TTGlyph>
    <TTGlyph name="Abreve" xMin="-8" yMin="0" xMax="666" yMax="851">
      <contour>
        <pt x="213" y="848" on="0"/>
        <pt x="242" y="817" on="0"/>
        <pt x="296" y="789" on="0"/>
        <pt x="333" y="789" on="1"/>
        <pt x="373" y="789" on="0"/>
        <pt x="430" y="814" on="0"/>
        <pt x="462" y="843" on="0"/>
        <pt x="462" y="845" on="1"/>
        <pt x="507" y="813" on="1"/>
        <pt x="507" y="808" on="0"/>
        <pt x="465" y="748" on="0"/>
        <pt x="387" y="696" on="0"/>
        <pt x="333" y="696" on="1"/>
        <pt x="266" y="696" on="0"/>
        <pt x="180" y="740" on="0"/>
        <pt x="138" y="791" on="0"/>
        <pt x="138" y="796" on="1"/>
        <pt x="213" y="851" on="1"/>
      </contour>
      <contour>
        <pt x="58" y="74" on="1"/>
        <pt x="259" y="655" on="1"/>
        <pt x="380" y="655" on="1"/>
        <pt x="597" y="74" on="1"/>
        <pt x="666" y="61" on="1"/>
        <pt x="666" y="0" on="1"/>
        <pt x="359" y="0" on="1"/>
        <pt x="359" y="62" on="1"/>
        <pt x="438" y="74" on="1"/>
        <pt x="404" y="180" on="1"/>
        <pt x="201" y="180" on="1"/>
        <pt x="165" y="73" on="1"/>
        <pt x="248" y="62" on="1"/>
        <pt x="248" y="0" on="1"/>
        <pt x="-8" y="0" on="1"/>
        <pt x="-8" y="62" on="1"/>
      </contour>
      <contour>
        <pt x="310" y="472" on="1"/>
        <pt x="307" y="496" on="1"/>
        <pt x="302" y="496" on="1"/>
        <pt x="299" y="472" on="1"/>
        <pt x="228" y="260" on="1"/>
        <pt x="378" y="260" on="1"/>
      </contour>
    </TTGlyph>
    <TTGlyph name="Acircumflex" xMin="-8" yMin="0" xMax="666" yMax="844">
      <contour>
        <pt x="270" y="813" on="1"/>
        <pt x="295" y="834" on="0"/>
        <pt x="316" y="844" on="0"/>
        <pt x="324" y="844" on="1"/>
        <pt x="332" y="844" on="0"/>
        <pt x="350" y="833" on="0"/>
        <pt x="369" y="818" on="0"/>
        <pt x="374" y="814" on="1"/>
        <pt x="495" y="721" on="1"/>
        <pt x="464" y="671" on="1"/>
        <pt x="316" y="733" on="1"/>
        <pt x="175" y="671" on="1"/>
        <pt x="148" y="712" on="1"/>
      </contour>
      <contour>
        <pt x="58" y="74" on="1"/>
        <pt x="259" y="655" on="1"/>
        <pt x="380" y="655" on="1"/>
        <pt x="597" y="74" on="1"/>
        <pt x="666" y="61" on="1"/>
        <pt x="666" y="0" on="1"/>
        <pt x="359" y="0" on="1"/>
        <pt x="359" y="62" on="1"/>
        <pt x="438" y="74" on="1"/>
        <pt x="404" y="180" on="1"/>
        <pt x="201" y="180" on="1"/>
        <pt x="165" y="73" on="1"/>
        <pt x="248" y="62" on="1"/>
        <pt x="248" y="0" on="1"/>
        <pt x="-8" y="0" on="1"/>
        <pt x="-8" y="62" on="1"/>
      </contour>
      <contour>
        <pt x="310" y="472" on="1"/>
        <pt x="307" y="496" on="1"/>
        <pt x="302" y="496" on="1"/>
        <pt x="299" y="472" on="1"/>
        <pt x="228" y="260" on="1"/>
        <pt x="378" y="260" on="1"/>
      </contour>
    </TTGlyph>
    <TTGlyph name="Adieresis" xMin="-8" yMin="0" xMax="666" yMax="847">
      <contour>
        <pt x="161" y="695" on="0"/>
        <pt x="121" y="736" on="0"/>
        <pt x="121" y="768" on="1"/>
        <pt x="121" y="800" on="0"/>
        <pt x="167" y="847" on="0"/>
        <pt x="199" y="847" on="1"/>
        <pt x="230" y="847" on="0"/>
        <pt x="270" y="808" on="0"/>
        <pt x="270" y="775" on="1"/>
        <pt x="270" y="742" on="0"/>
        <pt x="226" y="695" on="0"/>
        <pt x="191" y="695" on="1"/>
      </contour>
      <contour>
        <pt x="406" y="695" on="0"/>
        <pt x="366" y="736" on="0"/>
        <pt x="366" y="768" on="1"/>
        <pt x="366" y="800" on="0"/>
        <pt x="412" y="847" on="0"/>
        <pt x="444" y="847" on="1"/>
        <pt x="475" y="847" on="0"/>
        <pt x="515" y="808" on="0"/>
        <pt x="515" y="775" on="1"/>
        <pt x="515" y="742" on="0"/>
        <pt x="471" y="695" on="0"/>
        <pt x="436" y="695" on="1"/>
      </contour>
      <contour>
        <pt x="58" y="74" on="1"/>
        <pt x="259" y="655" on="1"/>
        <pt x="380" y="655" on="1"/>
        <pt x="597" y="74" on="1"/>
        <pt x="666" y="61" on="1"/>
        <pt x="666" y="0" on="1"/>
        <pt x="359" y="0" on="1"/>
        <pt x="359" y="62" on="1"/>
        <pt x="438" y="74" on="1"/>
        <pt x="404" y="180" on="1"/>
        <pt x="201" y="180" on="1"/>
        <pt x="165" y="73" on="1"/>
        <pt x="248" y="62" on="1"/>
        <pt x="248" y="0" on="1"/>
        <pt x="-8" y="0" on="1"/>
        <pt x="-8" y="62" on="1"/>
      </contour>
      <contour>
        <pt x="310" y="472" on="1"/>
        <pt x="307" y="496" on="1"/>
        <pt x="302" y="496" on="1"/>
        <pt x="299" y="472" on="1"/>
        <pt x="228" y="260" on="1"/>
        <pt x="378" y="260" on="1"/>
      </contour>
    </TTGlyph>
    <TTGlyph name="Agrave" xMin="-8" yMin="0" xMax="666" yMax="844">
      <contour>
        <pt x="187" y="761" on="0"/>
        <pt x="187" y="774" on="1"/>
        <pt x="187" y="810" on="0"/>
        <pt x="224" y="844" on="0"/>
        <pt x="243" y="844" on="1"/>
        <pt x="255" y="844" on="0"/>
        <pt x="289" y="823" on="0"/>
        <pt x="295" y="820" on="1"/>
        <pt x="438" y="721" on="1"/>
        <pt x="413" y="671" on="1"/>
        <pt x="193" y="739" on="1"/>
      </contour>
      <contour>
        <pt x="58" y="74" on="1"/>
        <pt x="259" y="655" on="1"/>
        <pt x="380" y="655" on="1"/>
        <pt x="597" y="74" on="1"/>
        <pt x="666" y="61" on="1"/>
        <pt x="666" y="0" on="1"/>
        <pt x="359" y="0" on="1"/>
        <pt x="359" y="62" on="1"/>
        <pt x="438" y="74" on="1"/>
        <pt x="404" y="180" on="1"/>
        <pt x="201" y="180" on="1"/>
        <pt x="165" y="73" on="1"/>
        <pt x="248" y="62" on="1"/>
        <pt x="248" y="0" on="1"/>
        <pt x="-8" y="0" on="1"/>
        <pt x="-8" y="62" on="1"/>
      </contour>
      <contour>
        <pt x="310" y="472" on="1"/>
        <pt x="307" y="496" on="1"/>
        <pt x="302" y="496" on="1"/>
        <pt x="299" y="472" on="1"/>
        <pt x="228" y="260" on="1"/>
        <pt x="388" y="260" on="1"/>
      </contour>
    </TTGlyph>
    <TTGlyph name="Amacron" xMin="-8" yMin="0" xMax="666" yMax="806">
      <contour>
        <pt x="498" y="806" on="1"/>
        <pt x="485" y="723" on="1"/>
        <pt x="139" y="723" on="1"/>
        <pt x="152" y="806" on="1"/>
      </contour>
      <contour>
        <pt x="58" y="74" on="1"/>
        <pt x="259" y="655" on="1"/>
        <pt x="380" y="655" on="1"/>
        <pt x="597" y="74" on="1"/>
        <pt x="666" y="61" on="1"/>
        <pt x="666" y="0" on="1"/>
        <pt x="359" y="0" on="1"/>
        <pt x="359" y="62" on="1"/>
        <pt x="438" y="74" on="1"/>
        <pt x="404" y="180" on="1"/>
        <pt x="201" y="180" on="1"/>
        <pt x="165" y="73" on="1"/>
        <pt x="248" y="62" on="1"/>
        <pt x="248" y="0" on="1"/>
        <pt x="-8" y="0" on="1"/>
        <pt x="-8" y="62" on="1"/>
      </contour>
      <contour>
        <pt x="310" y="472" on="1"/>
        <pt x="307" y="496" on="1"/>
        <pt x="302" y="496" on="1"/>
        <pt x="299" y="472" on="1"/>
        <pt x="228" y="260" on="1"/>
        <pt x="378" y="260" on="1"/>
      </contour>
    </TTGlyph>
    <TTGlyph name="Aogonek" xMin="-8" yMin="-187" xMax="690" yMax="655">
      <contour>
        <pt x="58" y="74" on="1"/>
        <pt x="269" y="655" on="1"/>
        <pt x="396" y="655" on="1"/>
        <pt x="621" y="74" on="1"/>
        <pt x="690" y="61" on="1"/>
        <pt x="690" y="0" on="1"/>
        <pt x="463" y="0" on="1"/>
        <pt x="443" y="-16" on="0"/>
        <pt x="413" y="-59" on="0"/>
        <pt x="413" y="-81" on="1"/>
        <pt x="413" y="-115" on="0"/>
        <pt x="448" y="-115" on="1"/>
        <pt x="467" y="-115" on="0"/>
        <pt x="500" y="-95" on="1"/>
        <pt x="524" y="-136" on="1"/>
        <pt x="524" y="-138" on="0"/>
        <pt x="494" y="-164" on="0"/>
        <pt x="446" y="-187" on="0"/>
        <pt x="417" y="-187" on="1"/>
        <pt x="373" y="-187" on="0"/>
        <pt x="320" y="-149" on="0"/>
        <pt x="320" y="-113" on="1"/>
        <pt x="320" y="-78" on="0"/>
        <pt x="363" y="-20" on="0"/>
        <pt x="397" y="0" on="1"/>
        <pt x="397" y="62" on="1"/>
        <pt x="455" y="74" on="1"/>
        <pt x="415" y="191" on="1"/>
        <pt x="208" y="191" on="1"/>
        <pt x="166" y="73" on="1"/>
        <pt x="248" y="62" on="1"/>
        <pt x="248" y="0" on="1"/>
        <pt x="-8" y="0" on="1"/>
        <pt x="-8" y="62" on="1"/>
      </contour>
      <contour>
        <pt x="320" y="472" on="1"/>
        <pt x="317" y="496" on="1"/>
        <pt x="312" y="496" on="1"/>
        <pt x="309" y="472" on="1"/>
        <pt x="237" y="271" on="1"/>
        <pt x="396" y="271" on="1"/>
      </contour>
    </TTGlyph>
    <TTGlyph name="Aring" xMin="-8" yMin="0" xMax="666" yMax="849">
      <contour>
        <pt x="218" y="794" on="0"/>
        <pt x="271" y="849" on="0"/>
        <pt x="325" y="849" on="1"/>
        <pt x="376" y="849" on="0"/>
        <pt x="424" y="799" on="0"/>
        <pt x="424" y="762" on="1"/>
        <pt x="424" y="724" on="0"/>
        <pt x="371" y="669" on="0"/>
        <pt x="318" y="669" on="1"/>
        <pt x="266" y="669" on="0"/>
        <pt x="218" y="718" on="0"/>
        <pt x="218" y="756" on="1"/>
      </contour>
      <contour>
        <pt x="341" y="724" on="0"/>
        <pt x="353" y="740" on="0"/>
        <pt x="353" y="760" on="1"/>
        <pt x="353" y="783" on="0"/>
        <pt x="340" y="794" on="0"/>
        <pt x="320" y="794" on="1"/>
        <pt x="302" y="794" on="0"/>
        <pt x="289" y="781" on="0"/>
        <pt x="289" y="760" on="1"/>
        <pt x="289" y="735" on="0"/>
        <pt x="303" y="724" on="0"/>
        <pt x="322" y="724" on="1"/>
      </contour>
      <contour>
        <pt x="58" y="74" on="1"/>
        <pt x="259" y="655" on="1"/>
        <pt x="380" y="655" on="1"/>
        <pt x="597" y="74" on="1"/>
        <pt x="666" y="61" on="1"/>
        <pt x="666" y="0" on="1"/>
        <pt x="359" y="0" on="1"/>
        <pt x="359" y="62" on="1"/>
        <pt x="438" y="74" on="1"/>
        <pt x="404" y="180" on="1"/>
        <pt x="201" y="180" on="1"/>
        <pt x="165" y="73" on="1"/>
        <pt x="248" y="62" on="1"/>
        <pt x="248" y="0" on="1"/>
        <pt x="-8" y="0" on="1"/>
        <pt x="-8" y="62" on="1"/>
      </contour>
      <contour>
        <pt x="310" y="472" on="1"/>
        <pt x="307" y="496" on="1"/>
        <pt x="302" y="496" on="1"/>
        <pt x="299" y="472" on="1"/>
        <pt x="228" y="260" on="1"/>
        <pt x="378" y="260" on="1"/>
      </contour>
    </TTGlyph>
    <TTGlyph name="Aringacute" xMin="-8" yMin="0" xMax="666" yMax="1022">
      <contour>
        <pt x="278" y="849" on="1"/>
        <pt x="253" y="899" on="1"/>
        <pt x="396" y="998" on="1"/>
        <pt x="402" y="1001" on="0"/>
        <pt x="436" y="1022" on="0"/>
        <pt x="448" y="1022" on="1"/>
        <pt x="467" y="1022" on="0"/>
        <pt x="504" y="988" on="0"/>
        <pt x="504" y="952" on="1"/>
        <pt x="504" y="939" on="0"/>
        <pt x="498" y="917" on="1"/>
      </contour>
      <contour>
        <pt x="666" y="61" on="1"/>
        <pt x="666" y="0" on="1"/>
        <pt x="359" y="0" on="1"/>
        <pt x="359" y="62" on="1"/>
        <pt x="438" y="74" on="1"/>
        <pt x="404" y="180" on="1"/>
        <pt x="201" y="180" on="1"/>
        <pt x="165" y="73" on="1"/>
        <pt x="248" y="62" on="1"/>
        <pt x="248" y="0" on="1"/>
        <pt x="-8" y="0" on="1"/>
        <pt x="-8" y="62" on="1"/>
        <pt x="58" y="74" on="1"/>
        <pt x="259" y="655" on="1"/>
        <pt x="277" y="655" on="1"/>
        <pt x="224" y="673" on="0"/>
        <pt x="224" y="733" on="1"/>
        <pt x="224" y="771" on="0"/>
        <pt x="277" y="826" on="0"/>
        <pt x="331" y="826" on="1"/>
        <pt x="382" y="826" on="0"/>
        <pt x="430" y="776" on="0"/>
        <pt x="430" y="739" on="1"/>
        <pt x="430" y="711" on="0"/>
        <pt x="400" y="665" on="0"/>
        <pt x="370" y="655" on="1"/>
        <pt x="380" y="655" on="1"/>
        <pt x="597" y="74" on="1"/>
      </contour>
      <contour>
        <pt x="309" y="774" on="0"/>
        <pt x="300" y="760" on="0"/>
        <pt x="300" y="737" on="1"/>
        <pt x="300" y="711" on="0"/>
        <pt x="311" y="698" on="0"/>
        <pt x="328" y="698" on="1"/>
        <pt x="345" y="698" on="0"/>
        <pt x="353" y="712" on="0"/>
        <pt x="353" y="732" on="1"/>
        <pt x="353" y="760" on="0"/>
        <pt x="344" y="774" on="0"/>
        <pt x="326" y="774" on="1"/>
      </contour>
      <contour>
        <pt x="380" y="260" on="1"/>
        <pt x="310" y="472" on="1"/>
        <pt x="307" y="496" on="1"/>
        <pt x="302" y="496" on="1"/>
        <pt x="299" y="472" on="1"/>
        <pt x="228" y="260" on="1"/>
      </contour>
    </TTGlyph>
    <TTGlyph name="Atilde" xMin="-8" yMin="0" xMax="666" yMax="844">
      <contour>
        <pt x="188" y="825" on="0"/>
        <pt x="229" y="844" on="0"/>
        <pt x="255" y="844" on="1"/>
        <pt x="282" y="844" on="0"/>
        <pt x="312" y="834" on="1"/>
        <pt x="412" y="801" on="1"/>
        <pt x="484" y="839" on="1"/>
        <pt x="522" y="803" on="1"/>
        <pt x="487" y="750" on="1"/>
        <pt x="467" y="720" on="0"/>
        <pt x="425" y="700" on="0"/>
        <pt x="400" y="700" on="1"/>
        <pt x="386" y="700" on="0"/>
        <pt x="362" y="705" on="0"/>
        <pt x="343" y="711" on="1"/>
        <pt x="243" y="744" on="1"/>
        <pt x="172" y="705" on="1"/>
        <pt x="133" y="742" on="1"/>
        <pt x="168" y="795" on="1"/>
      </contour>
      <contour>
        <pt x="58" y="74" on="1"/>
        <pt x="259" y="655" on="1"/>
        <pt x="380" y="655" on="1"/>
        <pt x="597" y="74" on="1"/>
        <pt x="666" y="61" on="1"/>
        <pt x="666" y="0" on="1"/>
        <pt x="359" y="0" on="1"/>
        <pt x="359" y="62" on="1"/>
        <pt x="438" y="74" on="1"/>
        <pt x="404" y="180" on="1"/>
        <pt x="201" y="180" on="1"/>
        <pt x="165" y="73" on="1"/>
        <pt x="248" y="62" on="1"/>
        <pt x="248" y="0" on="1"/>
        <pt x="-8" y="0" on="1"/>
        <pt x="-8" y="62" on="1"/>
      </contour>
      <contour>
        <pt x="310" y="472" on="1"/>
        <pt x="307" y="496" on="1"/>
        <pt x="302" y="496" on="1"/>
        <pt x="299" y="472" on="1"/>
        <pt x="228" y="260" on="1"/>
        <pt x="378" y="260" on="1"/>
      </contour>
    </TTGlyph>
    <TTGlyph name="B" xMin="35" yMin="0" xMax="597" yMax="648">
      <contour>
        <pt x="115" y="75" on="1"/>
        <pt x="115" y="573" on="1"/>
        <pt x="35" y="592" on="1"/>
        <pt x="35" y="648" on="1"/>
        <pt x="311" y="648" on="1"/>
        <pt x="439" y="648" on="0"/>
        <pt x="573" y="572" on="0"/>
        <pt x="573" y="481" on="1"/>
        <pt x="573" y="441" on="0"/>
        <pt x="521" y="370" on="0"/>
        <pt x="477" y="344" on="1"/>
        <pt x="597" y="306" on="0"/>
        <pt x="597" y="204" on="1"/>
        <pt x="597" y="94" on="0"/>
        <pt x="457" y="0" on="0"/>
        <pt x="360" y="0" on="1"/>
        <pt x="35" y="0" on="1"/>
        <pt x="35" y="56" on="1"/>
      </contour>
      <contour>
        <pt x="347" y="367" on="0"/>
        <pt x="423" y="417" on="0"/>
        <pt x="423" y="472" on="1"/>
        <pt x="423" y="572" on="0"/>
        <pt x="312" y="572" on="1"/>
        <pt x="295" y="572" on="0"/>
        <pt x="262" y="569" on="0"/>
        <pt x="257" y="568" on="1"/>
        <pt x="257" y="367" on="1"/>
        <pt x="292" y="367" on="1"/>
      </contour>
      <contour>
        <pt x="267" y="76" on="0"/>
        <pt x="294" y="76" on="1"/>
        <pt x="373" y="76" on="0"/>
        <pt x="445" y="129" on="0"/>
        <pt x="445" y="186" on="1"/>
        <pt x="445" y="246" on="0"/>
        <pt x="362" y="291" on="0"/>
        <pt x="293" y="291" on="1"/>
        <pt x="257" y="291" on="1"/>
        <pt x="257" y="77" on="1"/>
      </contour>
    </TTGlyph>
    <TTGlyph name="C" xMin="35" yMin="-18" xMax="566" yMax="666">
      <contour>
        <pt x="566" y="207" on="1"/>
        <pt x="566" y="27" on="1"/>
        <pt x="523" y="8" on="0"/>
        <pt x="414" y="-18" on="0"/>
        <pt x="335" y="-18" on="1"/>
        <pt x="186" y="-18" on="0"/>
        <pt x="35" y="155" on="0"/>
        <pt x="35" y="316" on="1"/>
        <pt x="35" y="416" on="0"/>
        <pt x="117" y="575" on="0"/>
        <pt x="264" y="666" on="0"/>
        <pt x="358" y="666" on="1"/>
        <pt x="416" y="666" on="0"/>
        <pt x="524" y="649" on="0"/>
        <pt x="562" y="639" on="1"/>
        <pt x="562" y="459" on="1"/>
        <pt x="487" y="459" on="1"/>
        <pt x="466" y="564" on="1"/>
        <pt x="409" y="582" on="0"/>
        <pt x="360" y="582" on="1"/>
        <pt x="299" y="582" on="0"/>
        <pt x="229" y="532" on="0"/>
        <pt x="198" y="419" on="0"/>
        <pt x="198" y="319" on="1"/>
        <pt x="198" y="217" on="0"/>
        <pt x="233" y="107" on="0"/>
        <pt x="303" y="65" on="0"/>
        <pt x="361" y="65" on="1"/>
        <pt x="418" y="65" on="0"/>
        <pt x="469" y="88" on="1"/>
        <pt x="492" y="207" on="1"/>
      </contour>
    </TTGlyph>
    <TTGlyph name="Cacute" xMin="35" yMin="-18" xMax="563" yMax="844">
      <contour>
        <pt x="385" y="820" on="1"/>
        <pt x="391" y="823" on="0"/>
        <pt x="425" y="844" on="0"/>
        <pt x="437" y="844" on="1"/>
        <pt x="456" y="844" on="0"/>
        <pt x="493" y="810" on="0"/>
        <pt x="493" y="774" on="1"/>
        <pt x="493" y="761" on="0"/>
        <pt x="487" y="739" on="1"/>
        <pt x="267" y="671" on="1"/>
        <pt x="242" y="721" on="1"/>
      </contour>
      <contour>
        <pt x="563" y="207" on="1"/>
        <pt x="563" y="27" on="1"/>
        <pt x="519" y="8" on="0"/>
        <pt x="414" y="-18" on="0"/>
        <pt x="335" y="-18" on="1"/>
        <pt x="186" y="-18" on="0"/>
        <pt x="35" y="155" on="0"/>
        <pt x="35" y="316" on="1"/>
        <pt x="35" y="416" on="0"/>
        <pt x="117" y="575" on="0"/>
        <pt x="264" y="666" on="0"/>
        <pt x="358" y="666" on="1"/>
        <pt x="459" y="666" on="0"/>
        <pt x="559" y="639" on="1"/>
        <pt x="559" y="459" on="1"/>
        <pt x="487" y="459" on="1"/>
        <pt x="466" y="564" on="1"/>
        <pt x="409" y="582" on="0"/>
        <pt x="360" y="582" on="1"/>
        <pt x="299" y="582" on="0"/>
        <pt x="229" y="532" on="0"/>
        <pt x="198" y="419" on="0"/>
        <pt x="198" y="319" on="1"/>
        <pt x="198" y="217" on="0"/>
        <pt x="233" y="107" on="0"/>
        <pt x="303" y="65" on="0"/>
        <pt x="361" y="65" on="1"/>
        <pt x="418" y="65" on="0"/>
        <pt x="469" y="88" on="1"/>
        <pt x="492" y="207" on="1"/>
      </contour>
    </TTGlyph>
    <TTGlyph name="Cacute.loclPLK" xMin="35" yMin="-18" xMax="566" yMax="873">
      <contour>
        <pt x="393" y="827" on="1"/>
        <pt x="397" y="832" on="0"/>
        <pt x="417" y="861" on="0"/>
        <pt x="437" y="873" on="0"/>
        <pt x="450" y="873" on="1"/>
        <pt x="467" y="873" on="0"/>
        <pt x="499" y="852" on="0"/>
        <pt x="510" y="827" on="1"/>
        <pt x="514" y="818" on="0"/>
        <pt x="519" y="793" on="1"/>
        <pt x="372" y="667" on="1"/>
        <pt x="322" y="713" on="1"/>
      </contour>
      <contour>
        <pt x="566" y="207" on="1"/>
        <pt x="566" y="27" on="1"/>
        <pt x="523" y="8" on="0"/>
        <pt x="414" y="-18" on="0"/>
        <pt x="335" y="-18" on="1"/>
        <pt x="186" y="-18" on="0"/>
        <pt x="35" y="155" on="0"/>
        <pt x="35" y="316" on="1"/>
        <pt x="35" y="416" on="0"/>
        <pt x="117" y="575" on="0"/>
        <pt x="264" y="666" on="0"/>
        <pt x="358" y="666" on="1"/>
        <pt x="416" y="666" on="0"/>
        <pt x="524" y="649" on="0"/>
        <pt x="562" y="639" on="1"/>
        <pt x="562" y="459" on="1"/>
        <pt x="487" y="459" on="1"/>
        <pt x="466" y="564" on="1"/>
        <pt x="409" y="582" on="0"/>
        <pt x="360" y="582" on="1"/>
        <pt x="299" y="582" on="0"/>
        <pt x="229" y="532" on="0"/>
        <pt x="198" y="419" on="0"/>
        <pt x="198" y="319" on="1"/>
        <pt x="198" y="217" on="0"/>
        <pt x="233" y="107" on="0"/>
        <pt x="303" y="65" on="0"/>
        <pt x="361" y="65" on="1"/>
        <pt x="418" y="65" on="0"/>
        <pt x="469" y="88" on="1"/>
        <pt x="492" y="207" on="1"/>
      </contour>
    </TTGlyph>
    <TTGlyph name="Ccaron" xMin="35" yMin="-18" xMax="563" yMax="844">
      <contour>
        <pt x="353" y="782" on="1"/>
        <pt x="492" y="844" on="1"/>
        <pt x="521" y="802" on="1"/>
        <pt x="398" y="700" on="1"/>
        <pt x="381" y="686" on="0"/>
        <pt x="357" y="671" on="0"/>
        <pt x="347" y="671" on="1"/>
        <pt x="337" y="671" on="0"/>
        <pt x="302" y="696" on="0"/>
        <pt x="295" y="701" on="1"/>
        <pt x="172" y="792" on="1"/>
        <pt x="206" y="844" on="1"/>
      </contour>
      <contour>
        <pt x="563" y="207" on="1"/>
        <pt x="563" y="27" on="1"/>
        <pt x="519" y="8" on="0"/>
        <pt x="414" y="-18" on="0"/>
        <pt x="335" y="-18" on="1"/>
        <pt x="186" y="-18" on="0"/>
        <pt x="35" y="155" on="0"/>
        <pt x="35" y="316" on="1"/>
        <pt x="35" y="416" on="0"/>
        <pt x="117" y="575" on="0"/>
        <pt x="264" y="666" on="0"/>
        <pt x="358" y="666" on="1"/>
        <pt x="459" y="666" on="0"/>
        <pt x="559" y="639" on="1"/>
        <pt x="559" y="459" on="1"/>
        <pt x="487" y="459" on="1"/>
        <pt x="466" y="564" on="1"/>
        <pt x="409" y="582" on="0"/>
        <pt x="360" y="582" on="1"/>
        <pt x="299" y="582" on="0"/>
        <pt x="229" y="532" on="0"/>
        <pt x="198" y="419" on="0"/>
        <pt x="198" y="319" on="1"/>
        <pt x="198" y="217" on="0"/>
        <pt x="233" y="107" on="0"/>
        <pt x="303" y="65" on="0"/>
        <pt x="361" y="65" on="1"/>
        <pt x="418" y="65" on="0"/>
        <pt x="469" y="88" on="1"/>
        <pt x="492" y="207" on="1"/>
      </contour>
    </TTGlyph>
    <TTGlyph name="Ccedilla" xMin="35" yMin="-194" xMax="563" yMax="666">
      <contour>
        <pt x="279" y="-132" on="1"/>
        <pt x="299" y="-141" on="0"/>
        <pt x="330" y="-141" on="1"/>
        <pt x="347" y="-141" on="0"/>
        <pt x="365" y="-131" on="0"/>
        <pt x="365" y="-116" on="1"/>
        <pt x="365" y="-106" on="0"/>
        <pt x="354" y="-95" on="0"/>
        <pt x="342" y="-93" on="1"/>
        <pt x="313" y="-87" on="1"/>
        <pt x="290" y="-64" on="1"/>
        <pt x="311" y="-17" on="1"/>
        <pt x="174" y="-10" on="0"/>
        <pt x="35" y="161" on="0"/>
        <pt x="35" y="316" on="1"/>
        <pt x="35" y="416" on="0"/>
        <pt x="117" y="575" on="0"/>
        <pt x="264" y="666" on="0"/>
        <pt x="358" y="666" on="1"/>
        <pt x="459" y="666" on="0"/>
        <pt x="559" y="639" on="1"/>
        <pt x="559" y="459" on="1"/>
        <pt x="487" y="459" on="1"/>
        <pt x="466" y="564" on="1"/>
        <pt x="409" y="582" on="0"/>
        <pt x="360" y="582" on="1"/>
        <pt x="299" y="582" on="0"/>
        <pt x="229" y="532" on="0"/>
        <pt x="198" y="419" on="0"/>
        <pt x="198" y="319" on="1"/>
        <pt x="198" y="217" on="0"/>
        <pt x="233" y="107" on="0"/>
        <pt x="303" y="65" on="0"/>
        <pt x="361" y="65" on="1"/>
        <pt x="418" y="65" on="0"/>
        <pt x="469" y="88" on="1"/>
        <pt x="492" y="207" on="1"/>
        <pt x="563" y="207" on="1"/>
        <pt x="563" y="27" on="1"/>
        <pt x="476" y="-13" on="0"/>
        <pt x="368" y="-17" on="1"/>
        <pt x="368" y="-30" on="1"/>
        <pt x="389" y="-35" on="1"/>
        <pt x="424" y="-44" on="0"/>
        <pt x="457" y="-72" on="0"/>
        <pt x="457" y="-104" on="1"/>
        <pt x="457" y="-148" on="0"/>
        <pt x="394" y="-194" on="0"/>
        <pt x="333" y="-194" on="1"/>
        <pt x="287" y="-194" on="0"/>
        <pt x="261" y="-181" on="1"/>
        <pt x="249" y="-175" on="1"/>
        <pt x="269" y="-128" on="1"/>
      </contour>
    </TTGlyph>
    <TTGlyph name="Ccircumflex" xMin="35" yMin="-18" xMax="566" yMax="844">
      <component glyphName=".ttfautohint" x="35" y="0" flags="0x0"/>
      <component glyphName="C" x="0" y="0" flags="0x0"/>
      <component glyphName="uni0302.case" x="531" y="0" flags="0x0"/>
    </TTGlyph>
    <TTGlyph name="Cdotaccent" xMin="35" yMin="-18" xMax="566" yMax="857">
      <component glyphName=".ttfautohint" x="35" y="0" flags="0x0"/>
      <component glyphName="C" x="0" y="0" flags="0x0"/>
      <component glyphName="uni0307.case" x="439" y="0" flags="0x0"/>
    </TTGlyph>
    <TTGlyph name="D" xMin="35" yMin="0" xMax="677" yMax="648">
      <contour>
        <pt x="115" y="75" on="1"/>
        <pt x="115" y="573" on="1"/>
        <pt x="35" y="592" on="1"/>
        <pt x="35" y="648" on="1"/>
        <pt x="348" y="648" on="1"/>
        <pt x="507" y="648" on="0"/>
        <pt x="677" y="489" on="0"/>
        <pt x="677" y="332" on="1"/>
        <pt x="677" y="233" on="0"/>
        <pt x="595" y="82" on="0"/>
        <pt x="449" y="0" on="0"/>
        <pt x="354" y="0" on="1"/>
        <pt x="35" y="0" on="1"/>
        <pt x="35" y="56" on="1"/>
      </contour>
      <contour>
        <pt x="382" y="76" on="0"/>
        <pt x="477" y="121" on="0"/>
        <pt x="514" y="233" on="0"/>
        <pt x="514" y="343" on="1"/>
        <pt x="514" y="438" on="0"/>
        <pt x="460" y="539" on="0"/>
        <pt x="372" y="572" on="0"/>
        <pt x="309" y="572" on="1"/>
        <pt x="257" y="572" on="1"/>
        <pt x="257" y="76" on="1"/>
        <pt x="289" y="76" on="1"/>
      </contour>
    </TTGlyph>
    <TTGlyph name="Dcaron" xMin="35" yMin="0" xMax="677" yMax="844">
      <contour>
        <pt x="347" y="782" on="1"/>
        <pt x="486" y="844" on="1"/>
        <pt x="515" y="802" on="1"/>
        <pt x="395" y="702" on="1"/>
        <pt x="392" y="700" on="0"/>
        <pt x="370" y="681" on="0"/>
        <pt x="351" y="671" on="0"/>
        <pt x="344" y="671" on="1"/>
        <pt x="340" y="671" on="1"/>
        <pt x="328" y="671" on="0"/>
        <pt x="299" y="691" on="0"/>
        <pt x="289" y="701" on="1"/>
        <pt x="166" y="792" on="1"/>
        <pt x="200" y="844" on="1"/>
      </contour>
      <contour>
        <pt x="115" y="75" on="1"/>
        <pt x="115" y="573" on="1"/>
        <pt x="35" y="592" on="1"/>
        <pt x="35" y="648" on="1"/>
        <pt x="348" y="648" on="1"/>
        <pt x="507" y="648" on="0"/>
        <pt x="677" y="489" on="0"/>
        <pt x="677" y="332" on="1"/>
        <pt x="677" y="233" on="0"/>
        <pt x="595" y="82" on="0"/>
        <pt x="449" y="0" on="0"/>
        <pt x="354" y="0" on="1"/>
        <pt x="35" y="0" on="1"/>
        <pt x="35" y="56" on="1"/>
      </contour>
      <contour>
        <pt x="382" y="76" on="0"/>
        <pt x="477" y="121" on="0"/>
        <pt x="514" y="233" on="0"/>
        <pt x="514" y="343" on="1"/>
        <pt x="514" y="438" on="0"/>
        <pt x="460" y="539" on="0"/>
        <pt x="372" y="572" on="0"/>
        <pt x="309" y="572" on="1"/>
        <pt x="257" y="572" on="1"/>
        <pt x="257" y="76" on="1"/>
        <pt x="289" y="76" on="1"/>
      </contour>
    </TTGlyph>
    <TTGlyph name="Dcroat" xMin="31" yMin="0" xMax="677" yMax="648">
      <contour>
        <pt x="115" y="75" on="1"/>
        <pt x="115" y="296" on="1"/>
        <pt x="31" y="296" on="1"/>
        <pt x="31" y="373" on="1"/>
        <pt x="115" y="373" on="1"/>
        <pt x="115" y="573" on="1"/>
        <pt x="35" y="592" on="1"/>
        <pt x="35" y="648" on="1"/>
        <pt x="348" y="648" on="1"/>
        <pt x="507" y="648" on="0"/>
        <pt x="677" y="489" on="0"/>
        <pt x="677" y="332" on="1"/>
        <pt x="677" y="233" on="0"/>
        <pt x="595" y="82" on="0"/>
        <pt x="449" y="0" on="0"/>
        <pt x="354" y="0" on="1"/>
        <pt x="35" y="0" on="1"/>
        <pt x="35" y="56" on="1"/>
      </contour>
      <contour>
        <pt x="382" y="76" on="0"/>
        <pt x="477" y="121" on="0"/>
        <pt x="514" y="233" on="0"/>
        <pt x="514" y="343" on="1"/>
        <pt x="514" y="438" on="0"/>
        <pt x="460" y="539" on="0"/>
        <pt x="372" y="572" on="0"/>
        <pt x="309" y="572" on="1"/>
        <pt x="257" y="572" on="1"/>
        <pt x="257" y="373" on="1"/>
        <pt x="376" y="373" on="1"/>
        <pt x="376" y="296" on="1"/>
        <pt x="257" y="296" on="1"/>
        <pt x="257" y="76" on="1"/>
        <pt x="289" y="76" on="1"/>
      </contour>
    </TTGlyph>
    <TTGlyph name="E" xMin="35" yMin="0" xMax="541" yMax="648">
      <contour>
        <pt x="115" y="75" on="1"/>
        <pt x="115" y="573" on="1"/>
        <pt x="35" y="592" on="1"/>
        <pt x="35" y="648" on="1"/>
        <pt x="532" y="648" on="1"/>
        <pt x="532" y="460" on="1"/>
        <pt x="464" y="460" on="1"/>
        <pt x="439" y="572" on="1"/>
        <pt x="301" y="572" on="1"/>
        <pt x="257" y="565" on="1"/>
        <pt x="257" y="366" on="1"/>
        <pt x="359" y="366" on="1"/>
        <pt x="381" y="435" on="1"/>
        <pt x="434" y="435" on="1"/>
        <pt x="434" y="214" on="1"/>
        <pt x="381" y="214" on="1"/>
        <pt x="359" y="290" on="1"/>
        <pt x="257" y="290" on="1"/>
        <pt x="257" y="76" on="1"/>
        <pt x="449" y="76" on="1"/>
        <pt x="475" y="197" on="1"/>
        <pt x="541" y="197" on="1"/>
        <pt x="541" y="0" on="1"/>
        <pt x="35" y="0" on="1"/>
        <pt x="35" y="56" on="1"/>
      </contour>
    </TTGlyph>
    <TTGlyph name="Eacute" xMin="35" yMin="0" xMax="541" yMax="844">
      <contour>
        <pt x="340" y="820" on="1"/>
        <pt x="346" y="823" on="0"/>
        <pt x="380" y="844" on="0"/>
        <pt x="392" y="844" on="1"/>
        <pt x="411" y="844" on="0"/>
        <pt x="448" y="810" on="0"/>
        <pt x="448" y="774" on="1"/>
        <pt x="448" y="761" on="0"/>
        <pt x="442" y="739" on="1"/>
        <pt x="222" y="671" on="1"/>
        <pt x="197" y="721" on="1"/>
      </contour>
      <contour>
        <pt x="115" y="75" on="1"/>
        <pt x="115" y="573" on="1"/>
        <pt x="35" y="592" on="1"/>
        <pt x="35" y="648" on="1"/>
        <pt x="532" y="648" on="1"/>
        <pt x="532" y="460" on="1"/>
        <pt x="466" y="460" on="1"/>
        <pt x="439" y="572" on="1"/>
        <pt x="301" y="572" on="1"/>
        <pt x="257" y="565" on="1"/>
        <pt x="257" y="366" on="1"/>
        <pt x="359" y="366" on="1"/>
        <pt x="381" y="435" on="1"/>
        <pt x="434" y="435" on="1"/>
        <pt x="434" y="214" on="1"/>
        <pt x="381" y="214" on="1"/>
        <pt x="359" y="290" on="1"/>
        <pt x="257" y="290" on="1"/>
        <pt x="257" y="76" on="1"/>
        <pt x="449" y="76" on="1"/>
        <pt x="477" y="197" on="1"/>
        <pt x="541" y="197" on="1"/>
        <pt x="541" y="0" on="1"/>
        <pt x="35" y="0" on="1"/>
        <pt x="35" y="56" on="1"/>
      </contour>
    </TTGlyph>
    <TTGlyph name="Ebreve" xMin="35" yMin="0" xMax="541" yMax="851">
      <component glyphName=".ttfautohint" x="35" y="0" flags="0x0"/>
      <component glyphName="E" x="0" y="0" flags="0x0"/>
      <component glyphName="uni0306.case" x="496" y="0" flags="0x0"/>
    </TTGlyph>
    <TTGlyph name="Ecaron" xMin="35" yMin="0" xMax="541" yMax="844">
      <contour>
        <pt x="318" y="782" on="1"/>
        <pt x="457" y="844" on="1"/>
        <pt x="486" y="802" on="1"/>
        <pt x="366" y="702" on="1"/>
        <pt x="348" y="688" on="0"/>
        <pt x="323" y="671" on="0"/>
        <pt x="312" y="671" on="1"/>
        <pt x="298" y="671" on="0"/>
        <pt x="263" y="699" on="0"/>
        <pt x="260" y="701" on="1"/>
        <pt x="137" y="792" on="1"/>
        <pt x="171" y="844" on="1"/>
      </contour>
      <contour>
        <pt x="115" y="75" on="1"/>
        <pt x="115" y="573" on="1"/>
        <pt x="35" y="592" on="1"/>
        <pt x="35" y="648" on="1"/>
        <pt x="532" y="648" on="1"/>
        <pt x="532" y="460" on="1"/>
        <pt x="466" y="460" on="1"/>
        <pt x="439" y="572" on="1"/>
        <pt x="301" y="572" on="1"/>
        <pt x="257" y="565" on="1"/>
        <pt x="257" y="366" on="1"/>
        <pt x="359" y="366" on="1"/>
        <pt x="381" y="435" on="1"/>
        <pt x="434" y="435" on="1"/>
        <pt x="434" y="214" on="1"/>
        <pt x="381" y="214" on="1"/>
        <pt x="359" y="290" on="1"/>
        <pt x="257" y="290" on="1"/>
        <pt x="257" y="76" on="1"/>
        <pt x="449" y="76" on="1"/>
        <pt x="477" y="197" on="1"/>
        <pt x="541" y="197" on="1"/>
        <pt x="541" y="0" on="1"/>
        <pt x="35" y="0" on="1"/>
        <pt x="35" y="56" on="1"/>
      </contour>
    </TTGlyph>
    <TTGlyph name="Ecircumflex" xMin="35" yMin="0" xMax="541" yMax="844">
      <contour>
        <pt x="240" y="813" on="1"/>
        <pt x="265" y="834" on="0"/>
        <pt x="286" y="844" on="0"/>
        <pt x="294" y="844" on="1"/>
        <pt x="302" y="844" on="0"/>
        <pt x="320" y="833" on="0"/>
        <pt x="339" y="818" on="0"/>
        <pt x="344" y="814" on="1"/>
        <pt x="465" y="721" on="1"/>
        <pt x="434" y="671" on="1"/>
        <pt x="286" y="733" on="1"/>
        <pt x="145" y="671" on="1"/>
        <pt x="118" y="712" on="1"/>
      </contour>
      <contour>
        <pt x="115" y="75" on="1"/>
        <pt x="115" y="573" on="1"/>
        <pt x="35" y="592" on="1"/>
        <pt x="35" y="648" on="1"/>
        <pt x="532" y="648" on="1"/>
        <pt x="532" y="460" on="1"/>
        <pt x="466" y="460" on="1"/>
        <pt x="439" y="572" on="1"/>
        <pt x="301" y="572" on="1"/>
        <pt x="257" y="565" on="1"/>
        <pt x="257" y="366" on="1"/>
        <pt x="359" y="366" on="1"/>
        <pt x="381" y="435" on="1"/>
        <pt x="434" y="435" on="1"/>
        <pt x="434" y="214" on="1"/>
        <pt x="381" y="214" on="1"/>
        <pt x="359" y="290" on="1"/>
        <pt x="257" y="290" on="1"/>
        <pt x="257" y="76" on="1"/>
        <pt x="449" y="76" on="1"/>
        <pt x="477" y="197" on="1"/>
        <pt x="541" y="197" on="1"/>
        <pt x="541" y="0" on="1"/>
        <pt x="35" y="0" on="1"/>
        <pt x="35" y="56" on="1"/>
      </contour>
    </TTGlyph>
    <TTGlyph name="Edieresis" xMin="35" yMin="0" xMax="541" yMax="847">
      <contour>
        <pt x="134" y="695" on="0"/>
        <pt x="94" y="736" on="0"/>
        <pt x="94" y="768" on="1"/>
        <pt x="94" y="800" on="0"/>
        <pt x="140" y="847" on="0"/>
        <pt x="172" y="847" on="1"/>
        <pt x="203" y="847" on="0"/>
        <pt x="243" y="808" on="0"/>
        <pt x="243" y="775" on="1"/>
        <pt x="243" y="742" on="0"/>
        <pt x="199" y="695" on="0"/>
        <pt x="164" y="695" on="1"/>
      </contour>
      <contour>
        <pt x="379" y="695" on="0"/>
        <pt x="339" y="736" on="0"/>
        <pt x="339" y="768" on="1"/>
        <pt x="339" y="800" on="0"/>
        <pt x="385" y="847" on="0"/>
        <pt x="417" y="847" on="1"/>
        <pt x="448" y="847" on="0"/>
        <pt x="488" y="808" on="0"/>
        <pt x="488" y="775" on="1"/>
        <pt x="488" y="742" on="0"/>
        <pt x="444" y="695" on="0"/>
        <pt x="409" y="695" on="1"/>
      </contour>
      <contour>
        <pt x="115" y="75" on="1"/>
        <pt x="115" y="573" on="1"/>
        <pt x="35" y="592" on="1"/>
        <pt x="35" y="648" on="1"/>
        <pt x="532" y="648" on="1"/>
        <pt x="532" y="460" on="1"/>
        <pt x="466" y="460" on="1"/>
        <pt x="439" y="572" on="1"/>
        <pt x="301" y="572" on="1"/>
        <pt x="257" y="565" on="1"/>
        <pt x="257" y="366" on="1"/>
        <pt x="359" y="366" on="1"/>
        <pt x="381" y="435" on="1"/>
        <pt x="434" y="435" on="1"/>
        <pt x="434" y="214" on="1"/>
        <pt x="381" y="214" on="1"/>
        <pt x="359" y="290" on="1"/>
        <pt x="257" y="290" on="1"/>
        <pt x="257" y="76" on="1"/>
        <pt x="449" y="76" on="1"/>
        <pt x="477" y="197" on="1"/>
        <pt x="541" y="197" on="1"/>
        <pt x="541" y="0" on="1"/>
        <pt x="35" y="0" on="1"/>
        <pt x="35" y="56" on="1"/>
      </contour>
    </TTGlyph>
    <TTGlyph name="Edotaccent" xMin="35" yMin="0" xMax="541" yMax="857">
      <contour>
        <pt x="264" y="691" on="0"/>
        <pt x="220" y="736" on="0"/>
        <pt x="220" y="771" on="1"/>
        <pt x="220" y="806" on="0"/>
        <pt x="270" y="857" on="0"/>
        <pt x="305" y="857" on="1"/>
        <pt x="339" y="857" on="0"/>
        <pt x="383" y="815" on="0"/>
        <pt x="383" y="779" on="1"/>
        <pt x="383" y="743" on="0"/>
        <pt x="335" y="691" on="0"/>
        <pt x="297" y="691" on="1"/>
      </contour>
      <contour>
        <pt x="115" y="75" on="1"/>
        <pt x="115" y="573" on="1"/>
        <pt x="35" y="592" on="1"/>
        <pt x="35" y="648" on="1"/>
        <pt x="532" y="648" on="1"/>
        <pt x="532" y="460" on="1"/>
        <pt x="466" y="460" on="1"/>
        <pt x="439" y="572" on="1"/>
        <pt x="301" y="572" on="1"/>
        <pt x="257" y="565" on="1"/>
        <pt x="257" y="366" on="1"/>
        <pt x="359" y="366" on="1"/>
        <pt x="381" y="435" on="1"/>
        <pt x="434" y="435" on="1"/>
        <pt x="434" y="214" on="1"/>
        <pt x="381" y="214" on="1"/>
        <pt x="359" y="290" on="1"/>
        <pt x="257" y="290" on="1"/>
        <pt x="257" y="76" on="1"/>
        <pt x="449" y="76" on="1"/>
        <pt x="477" y="197" on="1"/>
        <pt x="541" y="197" on="1"/>
        <pt x="541" y="0" on="1"/>
        <pt x="35" y="0" on="1"/>
        <pt x="35" y="56" on="1"/>
      </contour>
    </TTGlyph>
    <TTGlyph name="Egrave" xMin="35" yMin="0" xMax="541" yMax="844">
      <contour>
        <pt x="153" y="761" on="0"/>
        <pt x="153" y="774" on="1"/>
        <pt x="153" y="810" on="0"/>
        <pt x="190" y="844" on="0"/>
        <pt x="209" y="844" on="1"/>
        <pt x="221" y="844" on="0"/>
        <pt x="255" y="823" on="0"/>
        <pt x="261" y="820" on="1"/>
        <pt x="404" y="721" on="1"/>
        <pt x="379" y="671" on="1"/>
        <pt x="159" y="739" on="1"/>
      </contour>
      <contour>
        <pt x="115" y="75" on="1"/>
        <pt x="115" y="573" on="1"/>
        <pt x="35" y="592" on="1"/>
        <pt x="35" y="648" on="1"/>
        <pt x="532" y="648" on="1"/>
        <pt x="532" y="460" on="1"/>
        <pt x="466" y="460" on="1"/>
        <pt x="439" y="572" on="1"/>
        <pt x="301" y="572" on="1"/>
        <pt x="257" y="565" on="1"/>
        <pt x="257" y="366" on="1"/>
        <pt x="359" y="366" on="1"/>
        <pt x="381" y="435" on="1"/>
        <pt x="434" y="435" on="1"/>
        <pt x="434" y="214" on="1"/>
        <pt x="381" y="214" on="1"/>
        <pt x="359" y="290" on="1"/>
        <pt x="257" y="290" on="1"/>
        <pt x="257" y="76" on="1"/>
        <pt x="449" y="76" on="1"/>
        <pt x="477" y="197" on="1"/>
        <pt x="541" y="197" on="1"/>
        <pt x="541" y="0" on="1"/>
        <pt x="35" y="0" on="1"/>
        <pt x="35" y="56" on="1"/>
      </contour>
    </TTGlyph>
    <TTGlyph name="Emacron" xMin="35" yMin="0" xMax="541" yMax="806">
      <contour>
        <pt x="471" y="806" on="1"/>
        <pt x="458" y="723" on="1"/>
        <pt x="112" y="723" on="1"/>
        <pt x="125" y="806" on="1"/>
      </contour>
      <contour>
        <pt x="115" y="75" on="1"/>
        <pt x="115" y="573" on="1"/>
        <pt x="35" y="592" on="1"/>
        <pt x="35" y="648" on="1"/>
        <pt x="532" y="648" on="1"/>
        <pt x="532" y="460" on="1"/>
        <pt x="466" y="460" on="1"/>
        <pt x="439" y="572" on="1"/>
        <pt x="301" y="572" on="1"/>
        <pt x="257" y="565" on="1"/>
        <pt x="257" y="366" on="1"/>
        <pt x="359" y="366" on="1"/>
        <pt x="381" y="435" on="1"/>
        <pt x="434" y="435" on="1"/>
        <pt x="434" y="214" on="1"/>
        <pt x="381" y="214" on="1"/>
        <pt x="359" y="290" on="1"/>
        <pt x="257" y="290" on="1"/>
        <pt x="257" y="76" on="1"/>
        <pt x="449" y="76" on="1"/>
        <pt x="477" y="197" on="1"/>
        <pt x="541" y="197" on="1"/>
        <pt x="541" y="0" on="1"/>
        <pt x="35" y="0" on="1"/>
        <pt x="35" y="56" on="1"/>
      </contour>
    </TTGlyph>
    <TTGlyph name="Eng" xMin="35" yMin="-169" xMax="709" yMax="648">
      <contour>
        <pt x="709" y="648" on="1"/>
        <pt x="709" y="591" on="1"/>
        <pt x="629" y="573" on="1"/>
        <pt x="629" y="0" on="1"/>
        <pt x="629" y="-79" on="1"/>
        <pt x="629" y="-120" on="0"/>
        <pt x="567" y="-169" on="0"/>
        <pt x="507" y="-169" on="1"/>
        <pt x="479" y="-169" on="0"/>
        <pt x="429" y="-161" on="0"/>
        <pt x="399" y="-152" on="0"/>
        <pt x="395" y="-151" on="1"/>
        <pt x="395" y="-100" on="1"/>
        <pt x="497" y="-77" on="1"/>
        <pt x="497" y="14" on="1"/>
        <pt x="222" y="432" on="1"/>
        <pt x="218" y="447" on="1"/>
        <pt x="214" y="447" on="1"/>
        <pt x="214" y="75" on="1"/>
        <pt x="294" y="56" on="1"/>
        <pt x="294" y="0" on="1"/>
        <pt x="35" y="0" on="1"/>
        <pt x="35" y="56" on="1"/>
        <pt x="115" y="75" on="1"/>
        <pt x="115" y="574" on="1"/>
        <pt x="49" y="587" on="1"/>
        <pt x="49" y="648" on="1"/>
        <pt x="259" y="648" on="1"/>
        <pt x="522" y="233" on="1"/>
        <pt x="526" y="218" on="1"/>
        <pt x="530" y="218" on="1"/>
        <pt x="530" y="573" on="1"/>
        <pt x="450" y="591" on="1"/>
        <pt x="450" y="648" on="1"/>
      </contour>
    </TTGlyph>
    <TTGlyph name="Eogonek" xMin="35" yMin="-187" xMax="551" yMax="648">
      <contour>
        <pt x="115" y="75" on="1"/>
        <pt x="115" y="573" on="1"/>
        <pt x="35" y="592" on="1"/>
        <pt x="35" y="648" on="1"/>
        <pt x="532" y="648" on="1"/>
        <pt x="532" y="460" on="1"/>
        <pt x="466" y="460" on="1"/>
        <pt x="439" y="572" on="1"/>
        <pt x="301" y="572" on="1"/>
        <pt x="257" y="565" on="1"/>
        <pt x="257" y="366" on="1"/>
        <pt x="359" y="366" on="1"/>
        <pt x="381" y="435" on="1"/>
        <pt x="434" y="435" on="1"/>
        <pt x="434" y="214" on="1"/>
        <pt x="381" y="214" on="1"/>
        <pt x="359" y="290" on="1"/>
        <pt x="257" y="290" on="1"/>
        <pt x="257" y="76" on="1"/>
        <pt x="449" y="76" on="1"/>
        <pt x="477" y="197" on="1"/>
        <pt x="541" y="197" on="1"/>
        <pt x="541" y="0" on="1"/>
        <pt x="490" y="0" on="1"/>
        <pt x="470" y="-16" on="0"/>
        <pt x="440" y="-59" on="0"/>
        <pt x="440" y="-81" on="1"/>
        <pt x="440" y="-115" on="0"/>
        <pt x="475" y="-115" on="1"/>
        <pt x="494" y="-115" on="0"/>
        <pt x="527" y="-95" on="1"/>
        <pt x="551" y="-136" on="1"/>
        <pt x="551" y="-138" on="0"/>
        <pt x="521" y="-164" on="0"/>
        <pt x="473" y="-187" on="0"/>
        <pt x="444" y="-187" on="1"/>
        <pt x="400" y="-187" on="0"/>
        <pt x="347" y="-149" on="0"/>
        <pt x="347" y="-113" on="1"/>
        <pt x="347" y="-77" on="0"/>
        <pt x="389" y="-20" on="0"/>
        <pt x="423" y="0" on="1"/>
        <pt x="35" y="0" on="1"/>
        <pt x="35" y="56" on="1"/>
      </contour>
    </TTGlyph>
    <TTGlyph name="Eth" xMin="40" yMin="0" xMax="686" yMax="648">
      <contour>
        <pt x="124" y="75" on="1"/>
        <pt x="124" y="296" on="1"/>
        <pt x="40" y="296" on="1"/>
        <pt x="40" y="373" on="1"/>
        <pt x="124" y="373" on="1"/>
        <pt x="124" y="573" on="1"/>
        <pt x="44" y="592" on="1"/>
        <pt x="44" y="648" on="1"/>
        <pt x="357" y="648" on="1"/>
        <pt x="516" y="648" on="0"/>
        <pt x="686" y="489" on="0"/>
        <pt x="686" y="332" on="1"/>
        <pt x="686" y="233" on="0"/>
        <pt x="604" y="82" on="0"/>
        <pt x="458" y="0" on="0"/>
        <pt x="363" y="0" on="1"/>
        <pt x="44" y="0" on="1"/>
        <pt x="44" y="56" on="1"/>
      </contour>
      <contour>
        <pt x="391" y="76" on="0"/>
        <pt x="486" y="121" on="0"/>
        <pt x="523" y="233" on="0"/>
        <pt x="523" y="343" on="1"/>
        <pt x="523" y="438" on="0"/>
        <pt x="469" y="539" on="0"/>
        <pt x="381" y="572" on="0"/>
        <pt x="318" y="572" on="1"/>
        <pt x="266" y="572" on="1"/>
        <pt x="266" y="373" on="1"/>
        <pt x="385" y="373" on="1"/>
        <pt x="385" y="296" on="1"/>
        <pt x="266" y="296" on="1"/>
        <pt x="266" y="76" on="1"/>
        <pt x="298" y="76" on="1"/>
      </contour>
    </TTGlyph>
    <TTGlyph name="Euro" xMin="-14" yMin="-18" xMax="507" yMax="666">
      <contour>
        <pt x="360" y="358" on="1"/>
        <pt x="-2" y="358" on="1"/>
        <pt x="25" y="435" on="1"/>
        <pt x="56" y="435" on="1"/>
        <pt x="86" y="540" on="0"/>
        <pt x="237" y="666" on="0"/>
        <pt x="338" y="666" on="1"/>
        <pt x="373" y="666" on="0"/>
        <pt x="462" y="651" on="0"/>
        <pt x="503" y="639" on="1"/>
        <pt x="503" y="459" on="1"/>
        <pt x="428" y="459" on="1"/>
        <pt x="408" y="564" on="1"/>
        <pt x="362" y="582" on="0"/>
        <pt x="331" y="582" on="1"/>
        <pt x="284" y="582" on="0"/>
        <pt x="214" y="507" on="0"/>
        <pt x="198" y="435" on="1"/>
        <pt x="387" y="435" on="1"/>
      </contour>
      <contour>
        <pt x="507" y="207" on="1"/>
        <pt x="507" y="27" on="1"/>
        <pt x="426" y="-18" on="0"/>
        <pt x="330" y="-18" on="1"/>
        <pt x="213" y="-18" on="0"/>
        <pt x="64" y="113" on="0"/>
        <pt x="45" y="234" on="1"/>
        <pt x="-14" y="234" on="1"/>
        <pt x="13" y="311" on="1"/>
        <pt x="345" y="311" on="1"/>
        <pt x="318" y="234" on="1"/>
        <pt x="192" y="234" on="1"/>
        <pt x="213" y="65" on="0"/>
        <pt x="317" y="65" on="1"/>
        <pt x="358" y="65" on="0"/>
        <pt x="417" y="89" on="1"/>
        <pt x="433" y="207" on="1"/>
      </contour>
    </TTGlyph>
    <TTGlyph name="Euro.osf" xMin="-24" yMin="-18" xMax="502" yMax="531">
      <contour>
        <pt x="90" y="355" on="1"/>
        <pt x="118" y="435" on="0"/>
        <pt x="246" y="531" on="0"/>
        <pt x="333" y="531" on="1"/>
        <pt x="426" y="531" on="0"/>
        <pt x="499" y="509" on="1"/>
        <pt x="499" y="354" on="1"/>
        <pt x="437" y="354" on="1"/>
        <pt x="420" y="439" on="1"/>
        <pt x="391" y="450" on="0"/>
        <pt x="344" y="450" on="1"/>
        <pt x="292" y="450" on="0"/>
        <pt x="239" y="409" on="0"/>
        <pt x="227" y="355" on="1"/>
        <pt x="377" y="355" on="1"/>
        <pt x="350" y="278" on="1"/>
        <pt x="18" y="278" on="1"/>
        <pt x="45" y="355" on="1"/>
      </contour>
      <contour>
        <pt x="335" y="231" on="1"/>
        <pt x="308" y="154" on="1"/>
        <pt x="227" y="154" on="1"/>
        <pt x="239" y="97" on="0"/>
        <pt x="297" y="59" on="0"/>
        <pt x="349" y="59" on="1"/>
        <pt x="396" y="59" on="0"/>
        <pt x="422" y="73" on="1"/>
        <pt x="441" y="170" on="1"/>
        <pt x="502" y="170" on="1"/>
        <pt x="502" y="18" on="1"/>
        <pt x="422" y="-18" on="0"/>
        <pt x="336" y="-18" on="1"/>
        <pt x="262" y="-18" on="0"/>
        <pt x="167" y="14" on="0"/>
        <pt x="105" y="88" on="0"/>
        <pt x="84" y="154" on="1"/>
        <pt x="-24" y="154" on="1"/>
        <pt x="3" y="231" on="1"/>
      </contour>
    </TTGlyph>
    <TTGlyph name="F" xMin="35" yMin="0" xMax="522" yMax="648">
      <contour>
        <pt x="115" y="75" on="1"/>
        <pt x="115" y="573" on="1"/>
        <pt x="35" y="592" on="1"/>
        <pt x="35" y="648" on="1"/>
        <pt x="522" y="648" on="1"/>
        <pt x="522" y="460" on="1"/>
        <pt x="454" y="460" on="1"/>
        <pt x="429" y="572" on="1"/>
        <pt x="301" y="572" on="1"/>
        <pt x="257" y="565" on="1"/>
        <pt x="257" y="349" on="1"/>
        <pt x="376" y="349" on="1"/>
        <pt x="398" y="418" on="1"/>
        <pt x="451" y="418" on="1"/>
        <pt x="451" y="197" on="1"/>
        <pt x="398" y="197" on="1"/>
        <pt x="376" y="274" on="1"/>
        <pt x="257" y="274" on="1"/>
        <pt x="257" y="75" on="1"/>
        <pt x="337" y="56" on="1"/>
        <pt x="337" y="0" on="1"/>
        <pt x="35" y="0" on="1"/>
        <pt x="35" y="56" on="1"/>
      </contour>
    </TTGlyph>
    <TTGlyph name="G" xMin="35" yMin="-18" xMax="633" yMax="666">
      <contour>
        <pt x="361" y="278" on="1"/>
        <pt x="361" y="334" on="1"/>
        <pt x="633" y="334" on="1"/>
        <pt x="633" y="278" on="1"/>
        <pt x="583" y="259" on="1"/>
        <pt x="583" y="0" on="1"/>
        <pt x="533" y="0" on="1"/>
        <pt x="510" y="26" on="1"/>
        <pt x="501" y="26" on="1"/>
        <pt x="430" y="-18" on="0"/>
        <pt x="335" y="-18" on="1"/>
        <pt x="185" y="-18" on="0"/>
        <pt x="35" y="148" on="0"/>
        <pt x="35" y="308" on="1"/>
        <pt x="35" y="420" on="0"/>
        <pt x="122" y="582" on="0"/>
        <pt x="280" y="666" on="0"/>
        <pt x="384" y="666" on="1"/>
        <pt x="436" y="666" on="0"/>
        <pt x="516" y="652" on="0"/>
        <pt x="569" y="637" on="0"/>
        <pt x="577" y="635" on="1"/>
        <pt x="577" y="455" on="1"/>
        <pt x="502" y="455" on="1"/>
        <pt x="481" y="563" on="1"/>
        <pt x="441" y="582" on="0"/>
        <pt x="385" y="582" on="1"/>
        <pt x="287" y="582" on="0"/>
        <pt x="198" y="457" on="0"/>
        <pt x="198" y="322" on="1"/>
        <pt x="198" y="224" on="0"/>
        <pt x="234" y="112" on="0"/>
        <pt x="304" y="65" on="0"/>
        <pt x="361" y="65" on="1"/>
        <pt x="406" y="65" on="0"/>
        <pt x="441" y="78" on="1"/>
        <pt x="441" y="259" on="1"/>
      </contour>
    </TTGlyph>
    <TTGlyph name="G_tilde.loclGUA" xMin="35" yMin="-18" xMax="633" yMax="844">
      <component glyphName=".ttfautohint" x="35" y="0" flags="0x0"/>
      <component glyphName="G" x="0" y="0" flags="0x0"/>
      <component glyphName="tildecomb.case" x="562" y="0" flags="0x0"/>
    </TTGlyph>
    <TTGlyph name="Gbreve" xMin="35" yMin="-18" xMax="633" yMax="851">
      <contour>
        <pt x="226" y="848" on="0"/>
        <pt x="255" y="817" on="0"/>
        <pt x="309" y="789" on="0"/>
        <pt x="346" y="789" on="1"/>
        <pt x="386" y="789" on="0"/>
        <pt x="443" y="814" on="0"/>
        <pt x="475" y="843" on="0"/>
        <pt x="475" y="845" on="1"/>
        <pt x="520" y="813" on="1"/>
        <pt x="520" y="808" on="0"/>
        <pt x="478" y="748" on="0"/>
        <pt x="400" y="696" on="0"/>
        <pt x="346" y="696" on="1"/>
        <pt x="279" y="696" on="0"/>
        <pt x="193" y="740" on="0"/>
        <pt x="151" y="791" on="0"/>
        <pt x="151" y="796" on="1"/>
        <pt x="226" y="851" on="1"/>
      </contour>
      <contour>
        <pt x="361" y="278" on="1"/>
        <pt x="361" y="334" on="1"/>
        <pt x="633" y="334" on="1"/>
        <pt x="633" y="278" on="1"/>
        <pt x="583" y="259" on="1"/>
        <pt x="583" y="0" on="1"/>
        <pt x="533" y="0" on="1"/>
        <pt x="510" y="26" on="1"/>
        <pt x="501" y="26" on="1"/>
        <pt x="430" y="-18" on="0"/>
        <pt x="335" y="-18" on="1"/>
        <pt x="185" y="-18" on="0"/>
        <pt x="35" y="148" on="0"/>
        <pt x="35" y="308" on="1"/>
        <pt x="35" y="420" on="0"/>
        <pt x="122" y="582" on="0"/>
        <pt x="280" y="666" on="0"/>
        <pt x="384" y="666" on="1"/>
        <pt x="435" y="666" on="0"/>
        <pt x="513" y="652" on="0"/>
        <pt x="555" y="640" on="1"/>
        <pt x="574" y="635" on="1"/>
        <pt x="574" y="455" on="1"/>
        <pt x="502" y="455" on="1"/>
        <pt x="481" y="563" on="1"/>
        <pt x="441" y="582" on="0"/>
        <pt x="385" y="582" on="1"/>
        <pt x="287" y="582" on="0"/>
        <pt x="198" y="457" on="0"/>
        <pt x="198" y="322" on="1"/>
        <pt x="198" y="224" on="0"/>
        <pt x="234" y="112" on="0"/>
        <pt x="304" y="65" on="0"/>
        <pt x="361" y="65" on="1"/>
        <pt x="406" y="65" on="0"/>
        <pt x="441" y="78" on="1"/>
        <pt x="441" y="259" on="1"/>
      </contour>
    </TTGlyph>
    <TTGlyph name="Gcaron" xMin="35" yMin="-18" xMax="633" yMax="844">
      <component glyphName=".ttfautohint" x="35" y="0" flags="0x0"/>
      <component glyphName="G" x="0" y="0" flags="0x0"/>
      <component glyphName="uni030C.case" x="542" y="0" flags="0x0"/>
    </TTGlyph>
    <TTGlyph name="Gcircumflex" xMin="35" yMin="-18" xMax="633" yMax="844">
      <component glyphName=".ttfautohint" x="35" y="0" flags="0x0"/>
      <component glyphName="G" x="0" y="0" flags="0x0"/>
      <component glyphName="uni0302.case" x="541" y="0" flags="0x0"/>
    </TTGlyph>
    <TTGlyph name="Gcommaaccent" xMin="35" yMin="-214" xMax="633" yMax="666">
      <contour>
        <pt x="361" y="278" on="1"/>
        <pt x="361" y="334" on="1"/>
        <pt x="633" y="334" on="1"/>
        <pt x="633" y="278" on="1"/>
        <pt x="583" y="259" on="1"/>
        <pt x="583" y="0" on="1"/>
        <pt x="533" y="0" on="1"/>
        <pt x="510" y="26" on="1"/>
        <pt x="501" y="26" on="1"/>
        <pt x="430" y="-18" on="0"/>
        <pt x="335" y="-18" on="1"/>
        <pt x="185" y="-18" on="0"/>
        <pt x="35" y="148" on="0"/>
        <pt x="35" y="308" on="1"/>
        <pt x="35" y="420" on="0"/>
        <pt x="122" y="582" on="0"/>
        <pt x="280" y="666" on="0"/>
        <pt x="384" y="666" on="1"/>
        <pt x="435" y="666" on="0"/>
        <pt x="513" y="652" on="0"/>
        <pt x="555" y="640" on="1"/>
        <pt x="574" y="635" on="1"/>
        <pt x="574" y="455" on="1"/>
        <pt x="502" y="455" on="1"/>
        <pt x="481" y="563" on="1"/>
        <pt x="441" y="582" on="0"/>
        <pt x="385" y="582" on="1"/>
        <pt x="287" y="582" on="0"/>
        <pt x="198" y="457" on="0"/>
        <pt x="198" y="322" on="1"/>
        <pt x="198" y="224" on="0"/>
        <pt x="234" y="112" on="0"/>
        <pt x="304" y="65" on="0"/>
        <pt x="361" y="65" on="1"/>
        <pt x="406" y="65" on="0"/>
        <pt x="441" y="78" on="1"/>
        <pt x="441" y="259" on="1"/>
      </contour>
      <contour>
        <pt x="303" y="-208" on="0"/>
        <pt x="309" y="-182" on="0"/>
        <pt x="316" y="-138" on="0"/>
        <pt x="316" y="-118" on="1"/>
        <pt x="316" y="-98" on="0"/>
        <pt x="307" y="-70" on="0"/>
        <pt x="298" y="-56" on="0"/>
        <pt x="296" y="-54" on="1"/>
        <pt x="308" y="-40" on="0"/>
        <pt x="334" y="-24" on="0"/>
        <pt x="352" y="-24" on="1"/>
        <pt x="383" y="-24" on="0"/>
        <pt x="414" y="-59" on="0"/>
        <pt x="414" y="-83" on="1"/>
        <pt x="414" y="-113" on="0"/>
        <pt x="384" y="-170" on="0"/>
        <pt x="346" y="-214" on="0"/>
        <pt x="346" y="-212" on="1"/>
        <pt x="302" y="-212" on="1"/>
      </contour>
    </TTGlyph>
    <TTGlyph name="Gdotaccent" xMin="35" yMin="-18" xMax="633" yMax="857">
      <component glyphName=".ttfautohint" x="35" y="0" flags="0x0"/>
      <component glyphName="G" x="0" y="0" flags="0x0"/>
      <component glyphName="uni0307.case" x="449" y="0" flags="0x0"/>
    </TTGlyph>
    <TTGlyph name="H" xMin="35" yMin="0" xMax="727" yMax="648">
      <contour>
        <pt x="115" y="75" on="1"/>
        <pt x="115" y="573" on="1"/>
        <pt x="35" y="592" on="1"/>
        <pt x="35" y="648" on="1"/>
        <pt x="337" y="648" on="1"/>
        <pt x="337" y="592" on="1"/>
        <pt x="257" y="573" on="1"/>
        <pt x="257" y="373" on="1"/>
        <pt x="505" y="373" on="1"/>
        <pt x="505" y="573" on="1"/>
        <pt x="425" y="592" on="1"/>
        <pt x="425" y="648" on="1"/>
        <pt x="727" y="648" on="1"/>
        <pt x="727" y="592" on="1"/>
        <pt x="647" y="573" on="1"/>
        <pt x="647" y="75" on="1"/>
        <pt x="727" y="56" on="1"/>
        <pt x="727" y="0" on="1"/>
        <pt x="425" y="0" on="1"/>
        <pt x="425" y="56" on="1"/>
        <pt x="505" y="75" on="1"/>
        <pt x="505" y="296" on="1"/>
        <pt x="257" y="296" on="1"/>
        <pt x="257" y="75" on="1"/>
        <pt x="337" y="56" on="1"/>
        <pt x="337" y="0" on="1"/>
        <pt x="35" y="0" on="1"/>
        <pt x="35" y="56" on="1"/>
      </contour>
    </TTGlyph>
    <TTGlyph name="Hbar" xMin="31" yMin="0" xMax="731" yMax="648">
      <contour>
        <pt x="647" y="417" on="1"/>
        <pt x="647" y="75" on="1"/>
        <pt x="727" y="56" on="1"/>
        <pt x="727" y="0" on="1"/>
        <pt x="425" y="0" on="1"/>
        <pt x="425" y="56" on="1"/>
        <pt x="505" y="75" on="1"/>
        <pt x="505" y="256" on="1"/>
        <pt x="257" y="256" on="1"/>
        <pt x="257" y="75" on="1"/>
        <pt x="337" y="56" on="1"/>
        <pt x="337" y="0" on="1"/>
        <pt x="35" y="0" on="1"/>
        <pt x="35" y="56" on="1"/>
        <pt x="115" y="75" on="1"/>
        <pt x="115" y="417" on="1"/>
        <pt x="31" y="417" on="1"/>
        <pt x="31" y="494" on="1"/>
        <pt x="115" y="494" on="1"/>
        <pt x="115" y="573" on="1"/>
        <pt x="35" y="592" on="1"/>
        <pt x="35" y="648" on="1"/>
        <pt x="337" y="648" on="1"/>
        <pt x="337" y="592" on="1"/>
        <pt x="257" y="573" on="1"/>
        <pt x="257" y="494" on="1"/>
        <pt x="505" y="494" on="1"/>
        <pt x="505" y="573" on="1"/>
        <pt x="425" y="592" on="1"/>
        <pt x="425" y="648" on="1"/>
        <pt x="727" y="648" on="1"/>
        <pt x="727" y="592" on="1"/>
        <pt x="647" y="573" on="1"/>
        <pt x="647" y="494" on="1"/>
        <pt x="731" y="494" on="1"/>
        <pt x="731" y="417" on="1"/>
      </contour>
      <contour>
        <pt x="505" y="417" on="1"/>
        <pt x="257" y="417" on="1"/>
        <pt x="257" y="333" on="1"/>
        <pt x="505" y="333" on="1"/>
      </contour>
    </TTGlyph>
    <TTGlyph name="Hcircumflex" xMin="35" yMin="0" xMax="727" yMax="844">
      <component glyphName=".ttfautohint" x="35" y="0" flags="0x0"/>
      <component glyphName="H" x="0" y="0" flags="0x0"/>
      <component glyphName="uni0302.case" x="554" y="0" flags="0x0"/>
    </TTGlyph>
    <TTGlyph name="I" xMin="35" yMin="0" xMax="337" yMax="648">
      <contour>
        <pt x="115" y="75" on="1"/>
        <pt x="115" y="573" on="1"/>
        <pt x="35" y="592" on="1"/>
        <pt x="35" y="648" on="1"/>
        <pt x="337" y="648" on="1"/>
        <pt x="337" y="592" on="1"/>
        <pt x="257" y="573" on="1"/>
        <pt x="257" y="75" on="1"/>
        <pt x="337" y="56" on="1"/>
        <pt x="337" y="0" on="1"/>
        <pt x="35" y="0" on="1"/>
        <pt x="35" y="56" on="1"/>
      </contour>
    </TTGlyph>
    <TTGlyph name="IJ" xMin="35" yMin="-18" xMax="781" yMax="648">
      <component glyphName=".ttfautohint" x="35" y="0" flags="0x0"/>
      <component glyphName="I" x="0" y="0" flags="0x0"/>
      <component glyphName="J" x="372" y="0" flags="0x0"/>
    </TTGlyph>
    <TTGlyph name="Iacute" xMin="35" yMin="0" xMax="337" yMax="844">
      <contour>
        <pt x="203" y="820" on="1"/>
        <pt x="209" y="823" on="0"/>
        <pt x="243" y="844" on="0"/>
        <pt x="255" y="844" on="1"/>
        <pt x="274" y="844" on="0"/>
        <pt x="311" y="810" on="0"/>
        <pt x="311" y="774" on="1"/>
        <pt x="311" y="761" on="0"/>
        <pt x="305" y="739" on="1"/>
        <pt x="85" y="671" on="1"/>
        <pt x="60" y="721" on="1"/>
      </contour>
      <contour>
        <pt x="115" y="75" on="1"/>
        <pt x="115" y="573" on="1"/>
        <pt x="35" y="592" on="1"/>
        <pt x="35" y="648" on="1"/>
        <pt x="337" y="648" on="1"/>
        <pt x="337" y="592" on="1"/>
        <pt x="257" y="573" on="1"/>
        <pt x="257" y="75" on="1"/>
        <pt x="337" y="56" on="1"/>
        <pt x="337" y="0" on="1"/>
        <pt x="35" y="0" on="1"/>
        <pt x="35" y="56" on="1"/>
      </contour>
    </TTGlyph>
    <TTGlyph name="Iacute_J.loclNLD" xMin="35" yMin="-18" xMax="805" yMax="844">
      <component glyphName=".ttfautohint" x="35" y="0" flags="0x0"/>
      <component glyphName="I" x="0" y="0" flags="0x0"/>
      <component glyphName="acutecomb.case" x="361" y="0" flags="0x0"/>
      <component glyphName="J" x="372" y="0" flags="0x0"/>
      <component glyphName="acutecomb.case" x="805" y="0" flags="0x0"/>
    </TTGlyph>
    <TTGlyph name="Ibreve" xMin="1" yMin="0" xMax="370" yMax="851">
      <component glyphName=".ttfautohint" x="1" y="0" flags="0x0"/>
      <component glyphName="I" x="0" y="0" flags="0x0"/>
      <component glyphName="uni0306.case" x="370" y="0" flags="0x0"/>
    </TTGlyph>
    <TTGlyph name="Icircumflex" xMin="12" yMin="0" xMax="359" yMax="844">
      <contour>
        <pt x="134" y="813" on="1"/>
        <pt x="171" y="844" on="0"/>
        <pt x="185" y="844" on="1"/>
        <pt x="189" y="844" on="1"/>
        <pt x="197" y="843" on="0"/>
        <pt x="218" y="830" on="0"/>
        <pt x="233" y="818" on="0"/>
        <pt x="238" y="814" on="1"/>
        <pt x="359" y="721" on="1"/>
        <pt x="328" y="671" on="1"/>
        <pt x="180" y="733" on="1"/>
        <pt x="39" y="671" on="1"/>
        <pt x="12" y="712" on="1"/>
      </contour>
      <contour>
        <pt x="115" y="75" on="1"/>
        <pt x="115" y="573" on="1"/>
        <pt x="35" y="592" on="1"/>
        <pt x="35" y="648" on="1"/>
        <pt x="337" y="648" on="1"/>
        <pt x="337" y="592" on="1"/>
        <pt x="257" y="573" on="1"/>
        <pt x="257" y="75" on="1"/>
        <pt x="337" y="56" on="1"/>
        <pt x="337" y="0" on="1"/>
        <pt x="35" y="0" on="1"/>
        <pt x="35" y="56" on="1"/>
      </contour>
    </TTGlyph>
    <TTGlyph name="Idieresis" xMin="-11" yMin="0" xMax="383" yMax="847">
      <contour>
        <pt x="29" y="695" on="0"/>
        <pt x="-11" y="736" on="0"/>
        <pt x="-11" y="768" on="1"/>
        <pt x="-11" y="800" on="0"/>
        <pt x="35" y="847" on="0"/>
        <pt x="67" y="847" on="1"/>
        <pt x="98" y="847" on="0"/>
        <pt x="138" y="808" on="0"/>
        <pt x="138" y="775" on="1"/>
        <pt x="138" y="742" on="0"/>
        <pt x="94" y="695" on="0"/>
        <pt x="59" y="695" on="1"/>
      </contour>
      <contour>
        <pt x="274" y="695" on="0"/>
        <pt x="234" y="736" on="0"/>
        <pt x="234" y="768" on="1"/>
        <pt x="234" y="800" on="0"/>
        <pt x="280" y="847" on="0"/>
        <pt x="312" y="847" on="1"/>
        <pt x="343" y="847" on="0"/>
        <pt x="383" y="808" on="0"/>
        <pt x="383" y="775" on="1"/>
        <pt x="383" y="742" on="0"/>
        <pt x="339" y="695" on="0"/>
        <pt x="304" y="695" on="1"/>
      </contour>
      <contour>
        <pt x="115" y="75" on="1"/>
        <pt x="115" y="573" on="1"/>
        <pt x="35" y="592" on="1"/>
        <pt x="35" y="648" on="1"/>
        <pt x="337" y="648" on="1"/>
        <pt x="337" y="592" on="1"/>
        <pt x="257" y="573" on="1"/>
        <pt x="257" y="75" on="1"/>
        <pt x="337" y="56" on="1"/>
        <pt x="337" y="0" on="1"/>
        <pt x="35" y="0" on="1"/>
        <pt x="35" y="56" on="1"/>
      </contour>
    </TTGlyph>
    <TTGlyph name="Idotaccent" xMin="35" yMin="0" xMax="337" yMax="857">
      <contour>
        <pt x="147" y="691" on="0"/>
        <pt x="103" y="736" on="0"/>
        <pt x="103" y="771" on="1"/>
        <pt x="103" y="806" on="0"/>
        <pt x="153" y="857" on="0"/>
        <pt x="188" y="857" on="1"/>
        <pt x="222" y="857" on="0"/>
        <pt x="266" y="815" on="0"/>
        <pt x="266" y="779" on="1"/>
        <pt x="266" y="743" on="0"/>
        <pt x="218" y="691" on="0"/>
        <pt x="180" y="691" on="1"/>
      </contour>
      <contour>
        <pt x="115" y="75" on="1"/>
        <pt x="115" y="573" on="1"/>
        <pt x="35" y="592" on="1"/>
        <pt x="35" y="648" on="1"/>
        <pt x="337" y="648" on="1"/>
        <pt x="337" y="592" on="1"/>
        <pt x="257" y="573" on="1"/>
        <pt x="257" y="75" on="1"/>
        <pt x="337" y="56" on="1"/>
        <pt x="337" y="0" on="1"/>
        <pt x="35" y="0" on="1"/>
        <pt x="35" y="56" on="1"/>
      </contour>
    </TTGlyph>
    <TTGlyph name="Igrave" xMin="35" yMin="0" xMax="337" yMax="844">
      <contour>
        <pt x="52" y="761" on="0"/>
        <pt x="52" y="774" on="1"/>
        <pt x="52" y="810" on="0"/>
        <pt x="89" y="844" on="0"/>
        <pt x="108" y="844" on="1"/>
        <pt x="120" y="844" on="0"/>
        <pt x="154" y="823" on="0"/>
        <pt x="160" y="820" on="1"/>
        <pt x="303" y="721" on="1"/>
        <pt x="278" y="671" on="1"/>
        <pt x="58" y="739" on="1"/>
      </contour>
      <contour>
        <pt x="115" y="75" on="1"/>
        <pt x="115" y="573" on="1"/>
        <pt x="35" y="592" on="1"/>
        <pt x="35" y="648" on="1"/>
        <pt x="337" y="648" on="1"/>
        <pt x="337" y="592" on="1"/>
        <pt x="257" y="573" on="1"/>
        <pt x="257" y="75" on="1"/>
        <pt x="337" y="56" on="1"/>
        <pt x="337" y="0" on="1"/>
        <pt x="35" y="0" on="1"/>
        <pt x="35" y="56" on="1"/>
      </contour>
    </TTGlyph>
    <TTGlyph name="Imacron" xMin="6" yMin="0" xMax="365" yMax="821">
      <contour>
        <pt x="365" y="821" on="1"/>
        <pt x="352" y="738" on="1"/>
        <pt x="6" y="738" on="1"/>
        <pt x="19" y="821" on="1"/>
      </contour>
      <contour>
        <pt x="115" y="75" on="1"/>
        <pt x="115" y="573" on="1"/>
        <pt x="35" y="592" on="1"/>
        <pt x="35" y="648" on="1"/>
        <pt x="337" y="648" on="1"/>
        <pt x="337" y="592" on="1"/>
        <pt x="257" y="573" on="1"/>
        <pt x="257" y="75" on="1"/>
        <pt x="337" y="56" on="1"/>
        <pt x="337" y="0" on="1"/>
        <pt x="35" y="0" on="1"/>
        <pt x="35" y="56" on="1"/>
      </contour>
    </TTGlyph>
    <TTGlyph name="Iogonek" xMin="35" yMin="-187" xMax="337" yMax="648">
      <contour>
        <pt x="115" y="75" on="1"/>
        <pt x="115" y="573" on="1"/>
        <pt x="35" y="592" on="1"/>
        <pt x="35" y="648" on="1"/>
        <pt x="337" y="648" on="1"/>
        <pt x="337" y="592" on="1"/>
        <pt x="257" y="573" on="1"/>
        <pt x="257" y="75" on="1"/>
        <pt x="337" y="56" on="1"/>
        <pt x="337" y="0" on="1"/>
        <pt x="276" y="0" on="1"/>
        <pt x="256" y="-16" on="0"/>
        <pt x="226" y="-59" on="0"/>
        <pt x="226" y="-81" on="1"/>
        <pt x="226" y="-115" on="0"/>
        <pt x="261" y="-115" on="1"/>
        <pt x="280" y="-115" on="0"/>
        <pt x="313" y="-95" on="1"/>
        <pt x="337" y="-136" on="1"/>
        <pt x="337" y="-138" on="0"/>
        <pt x="307" y="-164" on="0"/>
        <pt x="259" y="-187" on="0"/>
        <pt x="230" y="-187" on="1"/>
        <pt x="186" y="-187" on="0"/>
        <pt x="133" y="-149" on="0"/>
        <pt x="133" y="-113" on="1"/>
        <pt x="133" y="-77" on="0"/>
        <pt x="175" y="-20" on="0"/>
        <pt x="209" y="0" on="1"/>
        <pt x="35" y="0" on="1"/>
        <pt x="35" y="56" on="1"/>
      </contour>
    </TTGlyph>
    <TTGlyph name="Itilde" xMin="-9" yMin="0" xMax="380" yMax="844">
      <component glyphName=".ttfautohint" x="0" y="0" flags="0x0"/>
      <component glyphName="I" x="0" y="0" flags="0x0"/>
      <component glyphName="tildecomb.case" x="380" y="0" flags="0x0"/>
    </TTGlyph>
    <TTGlyph name="J" xMin="0" yMin="-18" xMax="409" yMax="648">
      <contour>
        <pt x="70" y="193" on="1"/>
        <pt x="96" y="72" on="1"/>
        <pt x="98" y="71" on="0"/>
        <pt x="117" y="65" on="0"/>
        <pt x="131" y="65" on="1"/>
        <pt x="165" y="65" on="0"/>
        <pt x="187" y="91" on="0"/>
        <pt x="187" y="120" on="1"/>
        <pt x="187" y="573" on="1"/>
        <pt x="107" y="592" on="1"/>
        <pt x="107" y="648" on="1"/>
        <pt x="409" y="648" on="1"/>
        <pt x="409" y="592" on="1"/>
        <pt x="329" y="573" on="1"/>
        <pt x="329" y="120" on="1"/>
        <pt x="329" y="57" on="0"/>
        <pt x="252" y="-18" on="0"/>
        <pt x="146" y="-18" on="1"/>
        <pt x="99" y="-18" on="0"/>
        <pt x="21" y="2" on="0"/>
        <pt x="0" y="15" on="1"/>
        <pt x="0" y="193" on="1"/>
      </contour>
    </TTGlyph>
    <TTGlyph name="Jcircumflex" xMin="0" yMin="-18" xMax="431" yMax="844">
      <component glyphName=".ttfautohint" x="0" y="0" flags="0x0"/>
      <component glyphName="J" x="0" y="0" flags="0x0"/>
      <component glyphName="uni0302.case" x="431" y="0" flags="0x0"/>
    </TTGlyph>
    <TTGlyph name="K" xMin="35" yMin="0" xMax="654" yMax="648">
      <contour>
        <pt x="115" y="75" on="1"/>
        <pt x="115" y="573" on="1"/>
        <pt x="35" y="592" on="1"/>
        <pt x="35" y="648" on="1"/>
        <pt x="337" y="648" on="1"/>
        <pt x="337" y="592" on="1"/>
        <pt x="257" y="573" on="1"/>
        <pt x="257" y="356" on="1"/>
        <pt x="272" y="356" on="1"/>
        <pt x="440" y="563" on="1"/>
        <pt x="440" y="580" on="1"/>
        <pt x="392" y="592" on="1"/>
        <pt x="392" y="648" on="1"/>
        <pt x="625" y="648" on="1"/>
        <pt x="625" y="592" on="1"/>
        <pt x="556" y="573" on="1"/>
        <pt x="380" y="356" on="1"/>
        <pt x="573" y="76" on="1"/>
        <pt x="654" y="56" on="1"/>
        <pt x="654" y="0" on="1"/>
        <pt x="504" y="0" on="1"/>
        <pt x="480" y="0" on="0"/>
        <pt x="452" y="21" on="0"/>
        <pt x="436" y="45" on="1"/>
        <pt x="270" y="291" on="1"/>
        <pt x="257" y="291" on="1"/>
        <pt x="257" y="75" on="1"/>
        <pt x="337" y="56" on="1"/>
        <pt x="337" y="0" on="1"/>
        <pt x="35" y="0" on="1"/>
        <pt x="35" y="56" on="1"/>
      </contour>
    </TTGlyph>
    <TTGlyph name="Kcommaaccent" xMin="35" yMin="-214" xMax="654" yMax="648">
      <contour>
        <pt x="115" y="75" on="1"/>
        <pt x="115" y="573" on="1"/>
        <pt x="35" y="592" on="1"/>
        <pt x="35" y="648" on="1"/>
        <pt x="337" y="648" on="1"/>
        <pt x="337" y="592" on="1"/>
        <pt x="257" y="573" on="1"/>
        <pt x="257" y="356" on="1"/>
        <pt x="272" y="356" on="1"/>
        <pt x="440" y="563" on="1"/>
        <pt x="440" y="580" on="1"/>
        <pt x="392" y="592" on="1"/>
        <pt x="392" y="648" on="1"/>
        <pt x="625" y="648" on="1"/>
        <pt x="625" y="592" on="1"/>
        <pt x="556" y="573" on="1"/>
        <pt x="380" y="356" on="1"/>
        <pt x="573" y="76" on="1"/>
        <pt x="654" y="56" on="1"/>
        <pt x="654" y="0" on="1"/>
        <pt x="504" y="0" on="1"/>
        <pt x="480" y="0" on="0"/>
        <pt x="452" y="21" on="0"/>
        <pt x="436" y="45" on="1"/>
        <pt x="270" y="291" on="1"/>
        <pt x="257" y="291" on="1"/>
        <pt x="257" y="75" on="1"/>
        <pt x="337" y="56" on="1"/>
        <pt x="337" y="0" on="1"/>
        <pt x="35" y="0" on="1"/>
        <pt x="35" y="56" on="1"/>
      </contour>
      <contour>
        <pt x="290" y="-208" on="0"/>
        <pt x="296" y="-182" on="0"/>
        <pt x="303" y="-138" on="0"/>
        <pt x="303" y="-118" on="1"/>
        <pt x="303" y="-98" on="0"/>
        <pt x="294" y="-70" on="0"/>
        <pt x="285" y="-56" on="0"/>
        <pt x="283" y="-54" on="1"/>
        <pt x="295" y="-40" on="0"/>
        <pt x="321" y="-24" on="0"/>
        <pt x="339" y="-24" on="1"/>
        <pt x="370" y="-24" on="0"/>
        <pt x="401" y="-59" on="0"/>
        <pt x="401" y="-83" on="1"/>
        <pt x="401" y="-113" on="0"/>
        <pt x="371" y="-170" on="0"/>
        <pt x="333" y="-214" on="0"/>
        <pt x="333" y="-212" on="1"/>
        <pt x="289" y="-212" on="1"/>
      </contour>
    </TTGlyph>
    <TTGlyph name="L" xMin="35" yMin="0" xMax="518" yMax="648">
      <contour>
        <pt x="115" y="75" on="1"/>
        <pt x="115" y="573" on="1"/>
        <pt x="35" y="592" on="1"/>
        <pt x="35" y="648" on="1"/>
        <pt x="337" y="648" on="1"/>
        <pt x="337" y="592" on="1"/>
        <pt x="257" y="573" on="1"/>
        <pt x="257" y="83" on="1"/>
        <pt x="308" y="76" on="1"/>
        <pt x="425" y="76" on="1"/>
        <pt x="452" y="188" on="1"/>
        <pt x="518" y="188" on="1"/>
        <pt x="518" y="0" on="1"/>
        <pt x="35" y="0" on="1"/>
        <pt x="35" y="56" on="1"/>
      </contour>
    </TTGlyph>
    <TTGlyph name="Lacute" xMin="35" yMin="0" xMax="518" yMax="844">
      <contour>
        <pt x="234" y="820" on="1"/>
        <pt x="240" y="823" on="0"/>
        <pt x="274" y="844" on="0"/>
        <pt x="286" y="844" on="1"/>
        <pt x="305" y="844" on="0"/>
        <pt x="342" y="810" on="0"/>
        <pt x="342" y="774" on="1"/>
        <pt x="342" y="761" on="0"/>
        <pt x="336" y="739" on="1"/>
        <pt x="116" y="671" on="1"/>
        <pt x="91" y="721" on="1"/>
      </contour>
      <contour>
        <pt x="115" y="75" on="1"/>
        <pt x="115" y="573" on="1"/>
        <pt x="35" y="592" on="1"/>
        <pt x="35" y="648" on="1"/>
        <pt x="337" y="648" on="1"/>
        <pt x="337" y="592" on="1"/>
        <pt x="257" y="573" on="1"/>
        <pt x="257" y="83" on="1"/>
        <pt x="308" y="76" on="1"/>
        <pt x="425" y="76" on="1"/>
        <pt x="452" y="188" on="1"/>
        <pt x="518" y="188" on="1"/>
        <pt x="518" y="0" on="1"/>
        <pt x="35" y="0" on="1"/>
        <pt x="35" y="56" on="1"/>
      </contour>
    </TTGlyph>
    <TTGlyph name="Lcaron" xMin="7" yMin="0" xMax="518" yMax="844">
      <contour>
        <pt x="188" y="782" on="1"/>
        <pt x="327" y="844" on="1"/>
        <pt x="356" y="802" on="1"/>
        <pt x="236" y="702" on="1"/>
        <pt x="233" y="700" on="0"/>
        <pt x="211" y="681" on="0"/>
        <pt x="192" y="671" on="0"/>
        <pt x="185" y="671" on="1"/>
        <pt x="181" y="671" on="1"/>
        <pt x="169" y="671" on="0"/>
        <pt x="140" y="691" on="0"/>
        <pt x="130" y="701" on="1"/>
        <pt x="7" y="792" on="1"/>
        <pt x="41" y="844" on="1"/>
      </contour>
      <contour>
        <pt x="115" y="75" on="1"/>
        <pt x="115" y="573" on="1"/>
        <pt x="35" y="592" on="1"/>
        <pt x="35" y="648" on="1"/>
        <pt x="337" y="648" on="1"/>
        <pt x="337" y="592" on="1"/>
        <pt x="257" y="573" on="1"/>
        <pt x="257" y="83" on="1"/>
        <pt x="308" y="76" on="1"/>
        <pt x="425" y="76" on="1"/>
        <pt x="452" y="188" on="1"/>
        <pt x="518" y="188" on="1"/>
        <pt x="518" y="0" on="1"/>
        <pt x="35" y="0" on="1"/>
        <pt x="35" y="56" on="1"/>
      </contour>
    </TTGlyph>
    <TTGlyph name="Lcommaaccent" xMin="35" yMin="-214" xMax="518" yMax="648">
      <contour>
        <pt x="115" y="75" on="1"/>
        <pt x="115" y="573" on="1"/>
        <pt x="35" y="592" on="1"/>
        <pt x="35" y="648" on="1"/>
        <pt x="337" y="648" on="1"/>
        <pt x="337" y="592" on="1"/>
        <pt x="257" y="573" on="1"/>
        <pt x="257" y="83" on="1"/>
        <pt x="308" y="76" on="1"/>
        <pt x="425" y="76" on="1"/>
        <pt x="452" y="188" on="1"/>
        <pt x="518" y="188" on="1"/>
        <pt x="518" y="0" on="1"/>
        <pt x="35" y="0" on="1"/>
        <pt x="35" y="56" on="1"/>
      </contour>
      <contour>
        <pt x="233" y="-208" on="0"/>
        <pt x="239" y="-182" on="0"/>
        <pt x="246" y="-138" on="0"/>
        <pt x="246" y="-118" on="1"/>
        <pt x="246" y="-98" on="0"/>
        <pt x="237" y="-70" on="0"/>
        <pt x="228" y="-56" on="0"/>
        <pt x="226" y="-54" on="1"/>
        <pt x="238" y="-40" on="0"/>
        <pt x="264" y="-24" on="0"/>
        <pt x="282" y="-24" on="1"/>
        <pt x="313" y="-24" on="0"/>
        <pt x="344" y="-59" on="0"/>
        <pt x="344" y="-83" on="1"/>
        <pt x="344" y="-113" on="0"/>
        <pt x="314" y="-170" on="0"/>
        <pt x="276" y="-214" on="0"/>
        <pt x="276" y="-212" on="1"/>
        <pt x="232" y="-212" on="1"/>
      </contour>
    </TTGlyph>
    <TTGlyph name="Ldot" xMin="35" yMin="0" xMax="518" yMax="648">
      <component glyphName=".ttfautohint" x="35" y="0" flags="0x0"/>
      <component glyphName="L" x="0" y="0" flags="0x0"/>
      <component glyphName="periodcentered" x="292" y="111" flags="0x4"/>
    </TTGlyph>
    <TTGlyph name="Lslash" xMin="35" yMin="0" xMax="518" yMax="648">
      <contour>
        <pt x="115" y="75" on="1"/>
        <pt x="115" y="288" on="1"/>
        <pt x="40" y="262" on="1"/>
        <pt x="40" y="322" on="1"/>
        <pt x="115" y="349" on="1"/>
        <pt x="115" y="573" on="1"/>
        <pt x="35" y="592" on="1"/>
        <pt x="35" y="648" on="1"/>
        <pt x="337" y="648" on="1"/>
        <pt x="337" y="592" on="1"/>
        <pt x="257" y="573" on="1"/>
        <pt x="257" y="401" on="1"/>
        <pt x="346" y="434" on="1"/>
        <pt x="346" y="370" on="1"/>
        <pt x="257" y="338" on="1"/>
        <pt x="257" y="83" on="1"/>
        <pt x="308" y="76" on="1"/>
        <pt x="425" y="76" on="1"/>
        <pt x="452" y="188" on="1"/>
        <pt x="518" y="188" on="1"/>
        <pt x="518" y="0" on="1"/>
        <pt x="35" y="0" on="1"/>
        <pt x="35" y="56" on="1"/>
      </contour>
    </TTGlyph>
    <TTGlyph name="M" xMin="32" yMin="0" xMax="843" yMax="648">
      <contour>
        <pt x="112" y="75" on="1"/>
        <pt x="112" y="574" on="1"/>
        <pt x="46" y="587" on="1"/>
        <pt x="46" y="648" on="1"/>
        <pt x="290" y="648" on="1"/>
        <pt x="434" y="179" on="1"/>
        <pt x="437" y="148" on="1"/>
        <pt x="442" y="179" on="1"/>
        <pt x="589" y="648" on="1"/>
        <pt x="831" y="648" on="1"/>
        <pt x="831" y="586" on="1"/>
        <pt x="763" y="574" on="1"/>
        <pt x="763" y="75" on="1"/>
        <pt x="843" y="56" on="1"/>
        <pt x="843" y="0" on="1"/>
        <pt x="542" y="0" on="1"/>
        <pt x="542" y="56" on="1"/>
        <pt x="622" y="75" on="1"/>
        <pt x="622" y="432" on="1"/>
        <pt x="624" y="456" on="1"/>
        <pt x="619" y="456" on="1"/>
        <pt x="614" y="432" on="1"/>
        <pt x="479" y="0" on="1"/>
        <pt x="358" y="0" on="1"/>
        <pt x="215" y="456" on="1"/>
        <pt x="209" y="456" on="1"/>
        <pt x="211" y="432" on="1"/>
        <pt x="211" y="75" on="1"/>
        <pt x="291" y="56" on="1"/>
        <pt x="291" y="0" on="1"/>
        <pt x="32" y="0" on="1"/>
        <pt x="32" y="56" on="1"/>
      </contour>
    </TTGlyph>
    <TTGlyph name="N" xMin="35" yMin="0" xMax="709" yMax="648">
      <contour>
        <pt x="115" y="75" on="1"/>
        <pt x="115" y="574" on="1"/>
        <pt x="49" y="587" on="1"/>
        <pt x="49" y="648" on="1"/>
        <pt x="259" y="648" on="1"/>
        <pt x="522" y="233" on="1"/>
        <pt x="526" y="218" on="1"/>
        <pt x="530" y="218" on="1"/>
        <pt x="530" y="573" on="1"/>
        <pt x="450" y="591" on="1"/>
        <pt x="450" y="648" on="1"/>
        <pt x="709" y="648" on="1"/>
        <pt x="709" y="591" on="1"/>
        <pt x="629" y="573" on="1"/>
        <pt x="629" y="0" on="1"/>
        <pt x="506" y="0" on="1"/>
        <pt x="222" y="432" on="1"/>
        <pt x="218" y="447" on="1"/>
        <pt x="214" y="447" on="1"/>
        <pt x="214" y="75" on="1"/>
        <pt x="294" y="56" on="1"/>
        <pt x="294" y="0" on="1"/>
        <pt x="35" y="0" on="1"/>
        <pt x="35" y="56" on="1"/>
      </contour>
    </TTGlyph>
    <TTGlyph name="Nacute" xMin="35" yMin="0" xMax="709" yMax="844">
      <contour>
        <pt x="408" y="820" on="1"/>
        <pt x="414" y="823" on="0"/>
        <pt x="448" y="844" on="0"/>
        <pt x="460" y="844" on="1"/>
        <pt x="479" y="844" on="0"/>
        <pt x="516" y="810" on="0"/>
        <pt x="516" y="774" on="1"/>
        <pt x="516" y="761" on="0"/>
        <pt x="510" y="739" on="1"/>
        <pt x="290" y="671" on="1"/>
        <pt x="265" y="721" on="1"/>
      </contour>
      <contour>
        <pt x="115" y="75" on="1"/>
        <pt x="115" y="574" on="1"/>
        <pt x="49" y="587" on="1"/>
        <pt x="49" y="648" on="1"/>
        <pt x="259" y="648" on="1"/>
        <pt x="522" y="233" on="1"/>
        <pt x="526" y="218" on="1"/>
        <pt x="530" y="218" on="1"/>
        <pt x="530" y="573" on="1"/>
        <pt x="450" y="591" on="1"/>
        <pt x="450" y="648" on="1"/>
        <pt x="709" y="648" on="1"/>
        <pt x="709" y="591" on="1"/>
        <pt x="629" y="573" on="1"/>
        <pt x="629" y="0" on="1"/>
        <pt x="506" y="0" on="1"/>
        <pt x="222" y="432" on="1"/>
        <pt x="218" y="447" on="1"/>
        <pt x="214" y="447" on="1"/>
        <pt x="214" y="75" on="1"/>
        <pt x="294" y="56" on="1"/>
        <pt x="294" y="0" on="1"/>
        <pt x="35" y="0" on="1"/>
        <pt x="35" y="56" on="1"/>
      </contour>
    </TTGlyph>
    <TTGlyph name="Nacute.loclPLK" xMin="35" yMin="0" xMax="709" yMax="873">
      <contour>
        <pt x="400" y="827" on="1"/>
        <pt x="404" y="832" on="0"/>
        <pt x="424" y="861" on="0"/>
        <pt x="444" y="873" on="0"/>
        <pt x="457" y="873" on="1"/>
        <pt x="474" y="873" on="0"/>
        <pt x="506" y="852" on="0"/>
        <pt x="517" y="827" on="1"/>
        <pt x="521" y="818" on="0"/>
        <pt x="526" y="793" on="1"/>
        <pt x="379" y="667" on="1"/>
        <pt x="329" y="713" on="1"/>
      </contour>
      <contour>
        <pt x="115" y="75" on="1"/>
        <pt x="115" y="574" on="1"/>
        <pt x="49" y="587" on="1"/>
        <pt x="49" y="648" on="1"/>
        <pt x="259" y="648" on="1"/>
        <pt x="522" y="233" on="1"/>
        <pt x="526" y="218" on="1"/>
        <pt x="530" y="218" on="1"/>
        <pt x="530" y="573" on="1"/>
        <pt x="450" y="591" on="1"/>
        <pt x="450" y="648" on="1"/>
        <pt x="709" y="648" on="1"/>
        <pt x="709" y="591" on="1"/>
        <pt x="629" y="573" on="1"/>
        <pt x="629" y="0" on="1"/>
        <pt x="506" y="0" on="1"/>
        <pt x="222" y="432" on="1"/>
        <pt x="218" y="447" on="1"/>
        <pt x="214" y="447" on="1"/>
        <pt x="214" y="75" on="1"/>
        <pt x="294" y="56" on="1"/>
        <pt x="294" y="0" on="1"/>
        <pt x="35" y="0" on="1"/>
        <pt x="35" y="56" on="1"/>
      </contour>
    </TTGlyph>
    <TTGlyph name="Ncaron" xMin="35" yMin="0" xMax="709" yMax="871">
      <contour>
        <pt x="378" y="796" on="1"/>
        <pt x="495" y="871" on="1"/>
        <pt x="527" y="829" on="1"/>
        <pt x="429" y="734" on="1"/>
        <pt x="405" y="710" on="0"/>
        <pt x="378" y="690" on="0"/>
        <pt x="370" y="690" on="1"/>
        <pt x="362" y="690" on="0"/>
        <pt x="335" y="710" on="0"/>
        <pt x="311" y="734" on="1"/>
        <pt x="220" y="822" on="1"/>
        <pt x="263" y="871" on="1"/>
      </contour>
      <contour>
        <pt x="115" y="75" on="1"/>
        <pt x="115" y="574" on="1"/>
        <pt x="49" y="587" on="1"/>
        <pt x="49" y="648" on="1"/>
        <pt x="259" y="648" on="1"/>
        <pt x="522" y="233" on="1"/>
        <pt x="526" y="218" on="1"/>
        <pt x="530" y="218" on="1"/>
        <pt x="530" y="573" on="1"/>
        <pt x="450" y="591" on="1"/>
        <pt x="450" y="648" on="1"/>
        <pt x="709" y="648" on="1"/>
        <pt x="709" y="591" on="1"/>
        <pt x="629" y="573" on="1"/>
        <pt x="629" y="0" on="1"/>
        <pt x="506" y="0" on="1"/>
        <pt x="222" y="432" on="1"/>
        <pt x="218" y="447" on="1"/>
        <pt x="214" y="447" on="1"/>
        <pt x="214" y="75" on="1"/>
        <pt x="294" y="56" on="1"/>
        <pt x="294" y="0" on="1"/>
        <pt x="35" y="0" on="1"/>
        <pt x="35" y="56" on="1"/>
      </contour>
    </TTGlyph>
    <TTGlyph name="Ncommaaccent" xMin="35" yMin="-214" xMax="709" yMax="648">
      <contour>
        <pt x="115" y="75" on="1"/>
        <pt x="115" y="574" on="1"/>
        <pt x="49" y="587" on="1"/>
        <pt x="49" y="648" on="1"/>
        <pt x="259" y="648" on="1"/>
        <pt x="522" y="233" on="1"/>
        <pt x="526" y="218" on="1"/>
        <pt x="530" y="218" on="1"/>
        <pt x="530" y="573" on="1"/>
        <pt x="450" y="591" on="1"/>
        <pt x="450" y="648" on="1"/>
        <pt x="709" y="648" on="1"/>
        <pt x="709" y="591" on="1"/>
        <pt x="629" y="573" on="1"/>
        <pt x="629" y="0" on="1"/>
        <pt x="506" y="0" on="1"/>
        <pt x="222" y="432" on="1"/>
        <pt x="218" y="447" on="1"/>
        <pt x="214" y="447" on="1"/>
        <pt x="214" y="75" on="1"/>
        <pt x="294" y="56" on="1"/>
        <pt x="294" y="0" on="1"/>
        <pt x="35" y="0" on="1"/>
        <pt x="35" y="56" on="1"/>
      </contour>
      <contour>
        <pt x="318" y="-208" on="0"/>
        <pt x="324" y="-182" on="0"/>
        <pt x="331" y="-138" on="0"/>
        <pt x="331" y="-118" on="1"/>
        <pt x="331" y="-98" on="0"/>
        <pt x="322" y="-70" on="0"/>
        <pt x="313" y="-56" on="0"/>
        <pt x="311" y="-54" on="1"/>
        <pt x="323" y="-40" on="0"/>
        <pt x="349" y="-24" on="0"/>
        <pt x="367" y="-24" on="1"/>
        <pt x="398" y="-24" on="0"/>
        <pt x="429" y="-59" on="0"/>
        <pt x="429" y="-83" on="1"/>
        <pt x="429" y="-113" on="0"/>
        <pt x="399" y="-170" on="0"/>
        <pt x="361" y="-214" on="0"/>
        <pt x="361" y="-212" on="1"/>
        <pt x="317" y="-212" on="1"/>
      </contour>
    </TTGlyph>
    <TTGlyph name="Ntilde" xMin="35" yMin="0" xMax="709" yMax="844">
      <contour>
        <pt x="235" y="825" on="0"/>
        <pt x="276" y="844" on="0"/>
        <pt x="302" y="844" on="1"/>
        <pt x="329" y="844" on="0"/>
        <pt x="359" y="834" on="1"/>
        <pt x="459" y="801" on="1"/>
        <pt x="531" y="839" on="1"/>
        <pt x="569" y="803" on="1"/>
        <pt x="534" y="750" on="1"/>
        <pt x="514" y="720" on="0"/>
        <pt x="473" y="700" on="0"/>
        <pt x="447" y="700" on="1"/>
        <pt x="433" y="700" on="0"/>
        <pt x="409" y="705" on="0"/>
        <pt x="390" y="711" on="1"/>
        <pt x="290" y="744" on="1"/>
        <pt x="219" y="705" on="1"/>
        <pt x="180" y="742" on="1"/>
        <pt x="215" y="795" on="1"/>
      </contour>
      <contour>
        <pt x="115" y="75" on="1"/>
        <pt x="115" y="574" on="1"/>
        <pt x="49" y="587" on="1"/>
        <pt x="49" y="648" on="1"/>
        <pt x="259" y="648" on="1"/>
        <pt x="522" y="233" on="1"/>
        <pt x="526" y="218" on="1"/>
        <pt x="530" y="218" on="1"/>
        <pt x="530" y="573" on="1"/>
        <pt x="450" y="591" on="1"/>
        <pt x="450" y="648" on="1"/>
        <pt x="709" y="648" on="1"/>
        <pt x="709" y="591" on="1"/>
        <pt x="629" y="573" on="1"/>
        <pt x="629" y="0" on="1"/>
        <pt x="506" y="0" on="1"/>
        <pt x="222" y="432" on="1"/>
        <pt x="218" y="447" on="1"/>
        <pt x="214" y="447" on="1"/>
        <pt x="214" y="75" on="1"/>
        <pt x="294" y="56" on="1"/>
        <pt x="294" y="0" on="1"/>
        <pt x="35" y="0" on="1"/>
        <pt x="35" y="56" on="1"/>
      </contour>
    </TTGlyph>
    <TTGlyph name="O" xMin="35" yMin="-18" xMax="672" yMax="666">
      <contour>
        <pt x="193" y="-18" on="0"/>
        <pt x="35" y="151" on="0"/>
        <pt x="35" y="313" on="1"/>
        <pt x="35" y="416" on="0"/>
        <pt x="115" y="577" on="0"/>
        <pt x="265" y="666" on="0"/>
        <pt x="366" y="666" on="1"/>
        <pt x="514" y="666" on="0"/>
        <pt x="672" y="497" on="0"/>
        <pt x="672" y="335" on="1"/>
        <pt x="672" y="231" on="0"/>
        <pt x="593" y="71" on="0"/>
        <pt x="444" y="-18" on="0"/>
        <pt x="341" y="-18" on="1"/>
      </contour>
      <contour>
        <pt x="413" y="65" on="0"/>
        <pt x="477" y="110" on="0"/>
        <pt x="508" y="217" on="0"/>
        <pt x="508" y="309" on="1"/>
        <pt x="508" y="409" on="0"/>
        <pt x="474" y="529" on="0"/>
        <pt x="404" y="582" on="0"/>
        <pt x="348" y="582" on="1"/>
        <pt x="295" y="582" on="0"/>
        <pt x="230" y="537" on="0"/>
        <pt x="198" y="432" on="0"/>
        <pt x="198" y="340" on="1"/>
        <pt x="198" y="239" on="0"/>
        <pt x="233" y="119" on="0"/>
        <pt x="303" y="65" on="0"/>
        <pt x="360" y="65" on="1"/>
      </contour>
    </TTGlyph>
    <TTGlyph name="OE" xMin="35" yMin="0" xMax="880" yMax="648">
      <contour>
        <pt x="816" y="197" on="1"/>
        <pt x="880" y="197" on="1"/>
        <pt x="880" y="0" on="1"/>
        <pt x="345" y="0" on="1"/>
        <pt x="35" y="0" on="0"/>
        <pt x="35" y="313" on="1"/>
        <pt x="35" y="416" on="0"/>
        <pt x="114" y="567" on="0"/>
        <pt x="263" y="648" on="0"/>
        <pt x="365" y="648" on="1"/>
        <pt x="871" y="648" on="1"/>
        <pt x="871" y="460" on="1"/>
        <pt x="805" y="460" on="1"/>
        <pt x="778" y="572" on="1"/>
        <pt x="640" y="572" on="1"/>
        <pt x="596" y="565" on="1"/>
        <pt x="596" y="366" on="1"/>
        <pt x="698" y="366" on="1"/>
        <pt x="720" y="435" on="1"/>
        <pt x="773" y="435" on="1"/>
        <pt x="773" y="214" on="1"/>
        <pt x="720" y="214" on="1"/>
        <pt x="698" y="290" on="1"/>
        <pt x="596" y="290" on="1"/>
        <pt x="596" y="76" on="1"/>
        <pt x="788" y="76" on="1"/>
      </contour>
      <contour>
        <pt x="417" y="567" on="0"/>
        <pt x="355" y="567" on="1"/>
        <pt x="281" y="567" on="0"/>
        <pt x="198" y="469" on="0"/>
        <pt x="198" y="340" on="1"/>
        <pt x="198" y="240" on="0"/>
        <pt x="231" y="126" on="0"/>
        <pt x="300" y="79" on="0"/>
        <pt x="358" y="79" on="1"/>
        <pt x="411" y="79" on="0"/>
        <pt x="454" y="87" on="1"/>
        <pt x="454" y="559" on="1"/>
      </contour>
    </TTGlyph>
    <TTGlyph name="Oacute" xMin="35" yMin="-18" xMax="672" yMax="844">
      <contour>
        <pt x="381" y="820" on="1"/>
        <pt x="387" y="823" on="0"/>
        <pt x="421" y="844" on="0"/>
        <pt x="433" y="844" on="1"/>
        <pt x="452" y="844" on="0"/>
        <pt x="489" y="810" on="0"/>
        <pt x="489" y="774" on="1"/>
        <pt x="489" y="761" on="0"/>
        <pt x="483" y="739" on="1"/>
        <pt x="263" y="671" on="1"/>
        <pt x="238" y="721" on="1"/>
      </contour>
      <contour>
        <pt x="193" y="-18" on="0"/>
        <pt x="35" y="151" on="0"/>
        <pt x="35" y="313" on="1"/>
        <pt x="35" y="416" on="0"/>
        <pt x="115" y="577" on="0"/>
        <pt x="265" y="666" on="0"/>
        <pt x="366" y="666" on="1"/>
        <pt x="514" y="666" on="0"/>
        <pt x="672" y="497" on="0"/>
        <pt x="672" y="335" on="1"/>
        <pt x="672" y="231" on="0"/>
        <pt x="593" y="71" on="0"/>
        <pt x="444" y="-18" on="0"/>
        <pt x="341" y="-18" on="1"/>
      </contour>
      <contour>
        <pt x="413" y="65" on="0"/>
        <pt x="477" y="110" on="0"/>
        <pt x="508" y="217" on="0"/>
        <pt x="508" y="309" on="1"/>
        <pt x="508" y="409" on="0"/>
        <pt x="474" y="529" on="0"/>
        <pt x="404" y="582" on="0"/>
        <pt x="348" y="582" on="1"/>
        <pt x="295" y="582" on="0"/>
        <pt x="230" y="537" on="0"/>
        <pt x="198" y="432" on="0"/>
        <pt x="198" y="340" on="1"/>
        <pt x="198" y="239" on="0"/>
        <pt x="233" y="119" on="0"/>
        <pt x="303" y="65" on="0"/>
        <pt x="360" y="65" on="1"/>
      </contour>
    </TTGlyph>
    <TTGlyph name="Oacute.loclPLK" xMin="35" yMin="-18" xMax="672" yMax="873">
      <contour>
        <pt x="389" y="827" on="1"/>
        <pt x="393" y="832" on="0"/>
        <pt x="413" y="861" on="0"/>
        <pt x="433" y="873" on="0"/>
        <pt x="446" y="873" on="1"/>
        <pt x="463" y="873" on="0"/>
        <pt x="495" y="852" on="0"/>
        <pt x="506" y="827" on="1"/>
        <pt x="510" y="818" on="0"/>
        <pt x="515" y="793" on="1"/>
        <pt x="368" y="667" on="1"/>
        <pt x="318" y="713" on="1"/>
      </contour>
      <contour>
        <pt x="193" y="-18" on="0"/>
        <pt x="35" y="151" on="0"/>
        <pt x="35" y="313" on="1"/>
        <pt x="35" y="416" on="0"/>
        <pt x="115" y="577" on="0"/>
        <pt x="265" y="666" on="0"/>
        <pt x="366" y="666" on="1"/>
        <pt x="514" y="666" on="0"/>
        <pt x="672" y="497" on="0"/>
        <pt x="672" y="335" on="1"/>
        <pt x="672" y="231" on="0"/>
        <pt x="593" y="71" on="0"/>
        <pt x="444" y="-18" on="0"/>
        <pt x="341" y="-18" on="1"/>
      </contour>
      <contour>
        <pt x="413" y="65" on="0"/>
        <pt x="477" y="110" on="0"/>
        <pt x="508" y="217" on="0"/>
        <pt x="508" y="309" on="1"/>
        <pt x="508" y="409" on="0"/>
        <pt x="474" y="529" on="0"/>
        <pt x="404" y="582" on="0"/>
        <pt x="348" y="582" on="1"/>
        <pt x="295" y="582" on="0"/>
        <pt x="230" y="537" on="0"/>
        <pt x="198" y="432" on="0"/>
        <pt x="198" y="340" on="1"/>
        <pt x="198" y="239" on="0"/>
        <pt x="233" y="119" on="0"/>
        <pt x="303" y="65" on="0"/>
        <pt x="360" y="65" on="1"/>
      </contour>
    </TTGlyph>
    <TTGlyph name="Obreve" xMin="35" yMin="-18" xMax="672" yMax="851">
      <component glyphName=".ttfautohint" x="35" y="0" flags="0x0"/>
      <component glyphName="O" x="0" y="0" flags="0x0"/>
      <component glyphName="uni0306.case" x="538" y="0" flags="0x0"/>
    </TTGlyph>
    <TTGlyph name="Ocircumflex" xMin="35" yMin="-18" xMax="672" yMax="844">
      <contour>
        <pt x="302" y="813" on="1"/>
        <pt x="327" y="834" on="0"/>
        <pt x="348" y="844" on="0"/>
        <pt x="356" y="844" on="1"/>
        <pt x="364" y="844" on="0"/>
        <pt x="382" y="833" on="0"/>
        <pt x="401" y="818" on="0"/>
        <pt x="406" y="814" on="1"/>
        <pt x="527" y="721" on="1"/>
        <pt x="496" y="671" on="1"/>
        <pt x="348" y="733" on="1"/>
        <pt x="207" y="671" on="1"/>
        <pt x="180" y="712" on="1"/>
      </contour>
      <contour>
        <pt x="193" y="-18" on="0"/>
        <pt x="35" y="151" on="0"/>
        <pt x="35" y="313" on="1"/>
        <pt x="35" y="416" on="0"/>
        <pt x="115" y="577" on="0"/>
        <pt x="265" y="666" on="0"/>
        <pt x="366" y="666" on="1"/>
        <pt x="514" y="666" on="0"/>
        <pt x="672" y="497" on="0"/>
        <pt x="672" y="335" on="1"/>
        <pt x="672" y="231" on="0"/>
        <pt x="593" y="71" on="0"/>
        <pt x="444" y="-18" on="0"/>
        <pt x="341" y="-18" on="1"/>
      </contour>
      <contour>
        <pt x="413" y="65" on="0"/>
        <pt x="477" y="110" on="0"/>
        <pt x="508" y="217" on="0"/>
        <pt x="508" y="309" on="1"/>
        <pt x="508" y="409" on="0"/>
        <pt x="474" y="529" on="0"/>
        <pt x="404" y="582" on="0"/>
        <pt x="348" y="582" on="1"/>
        <pt x="295" y="582" on="0"/>
        <pt x="230" y="537" on="0"/>
        <pt x="198" y="432" on="0"/>
        <pt x="198" y="340" on="1"/>
        <pt x="198" y="239" on="0"/>
        <pt x="233" y="119" on="0"/>
        <pt x="303" y="65" on="0"/>
        <pt x="360" y="65" on="1"/>
      </contour>
    </TTGlyph>
    <TTGlyph name="Odieresis" xMin="35" yMin="-18" xMax="672" yMax="847">
      <contour>
        <pt x="196" y="695" on="0"/>
        <pt x="156" y="736" on="0"/>
        <pt x="156" y="768" on="1"/>
        <pt x="156" y="800" on="0"/>
        <pt x="202" y="847" on="0"/>
        <pt x="234" y="847" on="1"/>
        <pt x="265" y="847" on="0"/>
        <pt x="305" y="808" on="0"/>
        <pt x="305" y="775" on="1"/>
        <pt x="305" y="742" on="0"/>
        <pt x="261" y="695" on="0"/>
        <pt x="226" y="695" on="1"/>
      </contour>
      <contour>
        <pt x="441" y="695" on="0"/>
        <pt x="401" y="736" on="0"/>
        <pt x="401" y="768" on="1"/>
        <pt x="401" y="800" on="0"/>
        <pt x="447" y="847" on="0"/>
        <pt x="479" y="847" on="1"/>
        <pt x="510" y="847" on="0"/>
        <pt x="550" y="808" on="0"/>
        <pt x="550" y="775" on="1"/>
        <pt x="550" y="742" on="0"/>
        <pt x="506" y="695" on="0"/>
        <pt x="471" y="695" on="1"/>
      </contour>
      <contour>
        <pt x="193" y="-18" on="0"/>
        <pt x="35" y="151" on="0"/>
        <pt x="35" y="313" on="1"/>
        <pt x="35" y="416" on="0"/>
        <pt x="115" y="577" on="0"/>
        <pt x="265" y="666" on="0"/>
        <pt x="366" y="666" on="1"/>
        <pt x="514" y="666" on="0"/>
        <pt x="672" y="497" on="0"/>
        <pt x="672" y="335" on="1"/>
        <pt x="672" y="231" on="0"/>
        <pt x="593" y="71" on="0"/>
        <pt x="444" y="-18" on="0"/>
        <pt x="341" y="-18" on="1"/>
      </contour>
      <contour>
        <pt x="413" y="65" on="0"/>
        <pt x="477" y="110" on="0"/>
        <pt x="508" y="217" on="0"/>
        <pt x="508" y="309" on="1"/>
        <pt x="508" y="409" on="0"/>
        <pt x="474" y="529" on="0"/>
        <pt x="404" y="582" on="0"/>
        <pt x="348" y="582" on="1"/>
        <pt x="295" y="582" on="0"/>
        <pt x="230" y="537" on="0"/>
        <pt x="198" y="432" on="0"/>
        <pt x="198" y="340" on="1"/>
        <pt x="198" y="239" on="0"/>
        <pt x="233" y="119" on="0"/>
        <pt x="303" y="65" on="0"/>
        <pt x="360" y="65" on="1"/>
      </contour>
    </TTGlyph>
    <TTGlyph name="Ograve" xMin="35" yMin="-18" xMax="672" yMax="844">
      <contour>
        <pt x="220" y="761" on="0"/>
        <pt x="220" y="774" on="1"/>
        <pt x="220" y="810" on="0"/>
        <pt x="257" y="844" on="0"/>
        <pt x="276" y="844" on="1"/>
        <pt x="288" y="844" on="0"/>
        <pt x="322" y="823" on="0"/>
        <pt x="328" y="820" on="1"/>
        <pt x="471" y="721" on="1"/>
        <pt x="446" y="671" on="1"/>
        <pt x="226" y="739" on="1"/>
      </contour>
      <contour>
        <pt x="193" y="-18" on="0"/>
        <pt x="35" y="151" on="0"/>
        <pt x="35" y="313" on="1"/>
        <pt x="35" y="416" on="0"/>
        <pt x="115" y="577" on="0"/>
        <pt x="265" y="666" on="0"/>
        <pt x="366" y="666" on="1"/>
        <pt x="514" y="666" on="0"/>
        <pt x="672" y="497" on="0"/>
        <pt x="672" y="335" on="1"/>
        <pt x="672" y="231" on="0"/>
        <pt x="593" y="71" on="0"/>
        <pt x="444" y="-18" on="0"/>
        <pt x="341" y="-18" on="1"/>
      </contour>
      <contour>
        <pt x="413" y="65" on="0"/>
        <pt x="477" y="110" on="0"/>
        <pt x="508" y="217" on="0"/>
        <pt x="508" y="309" on="1"/>
        <pt x="508" y="409" on="0"/>
        <pt x="474" y="529" on="0"/>
        <pt x="404" y="582" on="0"/>
        <pt x="348" y="582" on="1"/>
        <pt x="295" y="582" on="0"/>
        <pt x="230" y="537" on="0"/>
        <pt x="198" y="432" on="0"/>
        <pt x="198" y="340" on="1"/>
        <pt x="198" y="239" on="0"/>
        <pt x="233" y="119" on="0"/>
        <pt x="303" y="65" on="0"/>
        <pt x="360" y="65" on="1"/>
      </contour>
    </TTGlyph>
    <TTGlyph name="Ohorn" xMin="35" yMin="-18" xMax="790" yMax="729">
      <contour>
        <pt x="790" y="590" on="0"/>
        <pt x="643" y="504" on="1"/>
        <pt x="672" y="432" on="0"/>
        <pt x="672" y="335" on="1"/>
        <pt x="672" y="231" on="0"/>
        <pt x="593" y="71" on="0"/>
        <pt x="444" y="-18" on="0"/>
        <pt x="341" y="-18" on="1"/>
        <pt x="193" y="-18" on="0"/>
        <pt x="35" y="151" on="0"/>
        <pt x="35" y="313" on="1"/>
        <pt x="35" y="416" on="0"/>
        <pt x="115" y="577" on="0"/>
        <pt x="265" y="666" on="0"/>
        <pt x="366" y="666" on="1"/>
        <pt x="457" y="666" on="0"/>
        <pt x="588" y="602" on="0"/>
        <pt x="625" y="539" on="1"/>
        <pt x="698" y="592" on="0"/>
        <pt x="698" y="637" on="1"/>
        <pt x="698" y="647" on="0"/>
        <pt x="691" y="660" on="0"/>
        <pt x="684" y="666" on="1"/>
        <pt x="684" y="681" on="1"/>
        <pt x="757" y="729" on="1"/>
        <pt x="758" y="728" on="0"/>
        <pt x="775" y="716" on="0"/>
        <pt x="790" y="686" on="0"/>
        <pt x="790" y="668" on="1"/>
      </contour>
      <contour>
        <pt x="413" y="65" on="0"/>
        <pt x="477" y="110" on="0"/>
        <pt x="508" y="217" on="0"/>
        <pt x="508" y="309" on="1"/>
        <pt x="508" y="409" on="0"/>
        <pt x="474" y="529" on="0"/>
        <pt x="404" y="582" on="0"/>
        <pt x="348" y="582" on="1"/>
        <pt x="295" y="582" on="0"/>
        <pt x="230" y="537" on="0"/>
        <pt x="198" y="432" on="0"/>
        <pt x="198" y="340" on="1"/>
        <pt x="198" y="239" on="0"/>
        <pt x="233" y="119" on="0"/>
        <pt x="303" y="65" on="0"/>
        <pt x="360" y="65" on="1"/>
      </contour>
    </TTGlyph>
    <TTGlyph name="Ohungarumlaut" xMin="35" yMin="-18" xMax="672" yMax="855">
      <contour>
        <pt x="276" y="824" on="1"/>
        <pt x="289" y="839" on="0"/>
        <pt x="311" y="855" on="0"/>
        <pt x="325" y="855" on="1"/>
        <pt x="345" y="855" on="0"/>
        <pt x="377" y="816" on="0"/>
        <pt x="381" y="782" on="1"/>
        <pt x="212" y="671" on="1"/>
        <pt x="177" y="713" on="1"/>
      </contour>
      <contour>
        <pt x="466" y="824" on="1"/>
        <pt x="479" y="839" on="0"/>
        <pt x="501" y="855" on="0"/>
        <pt x="515" y="855" on="1"/>
        <pt x="535" y="855" on="0"/>
        <pt x="567" y="816" on="0"/>
        <pt x="571" y="782" on="1"/>
        <pt x="402" y="671" on="1"/>
        <pt x="367" y="713" on="1"/>
      </contour>
      <contour>
        <pt x="193" y="-18" on="0"/>
        <pt x="35" y="151" on="0"/>
        <pt x="35" y="313" on="1"/>
        <pt x="35" y="416" on="0"/>
        <pt x="115" y="577" on="0"/>
        <pt x="265" y="666" on="0"/>
        <pt x="366" y="666" on="1"/>
        <pt x="514" y="666" on="0"/>
        <pt x="672" y="497" on="0"/>
        <pt x="672" y="335" on="1"/>
        <pt x="672" y="231" on="0"/>
        <pt x="593" y="71" on="0"/>
        <pt x="444" y="-18" on="0"/>
        <pt x="341" y="-18" on="1"/>
      </contour>
      <contour>
        <pt x="413" y="65" on="0"/>
        <pt x="477" y="110" on="0"/>
        <pt x="508" y="217" on="0"/>
        <pt x="508" y="309" on="1"/>
        <pt x="508" y="409" on="0"/>
        <pt x="474" y="529" on="0"/>
        <pt x="404" y="582" on="0"/>
        <pt x="348" y="582" on="1"/>
        <pt x="295" y="582" on="0"/>
        <pt x="230" y="537" on="0"/>
        <pt x="198" y="432" on="0"/>
        <pt x="198" y="340" on="1"/>
        <pt x="198" y="239" on="0"/>
        <pt x="233" y="119" on="0"/>
        <pt x="303" y="65" on="0"/>
        <pt x="360" y="65" on="1"/>
      </contour>
    </TTGlyph>
    <TTGlyph name="Omacron" xMin="35" yMin="-18" xMax="672" yMax="806">
      <contour>
        <pt x="533" y="806" on="1"/>
        <pt x="520" y="723" on="1"/>
        <pt x="174" y="723" on="1"/>
        <pt x="187" y="806" on="1"/>
      </contour>
      <contour>
        <pt x="193" y="-18" on="0"/>
        <pt x="35" y="151" on="0"/>
        <pt x="35" y="313" on="1"/>
        <pt x="35" y="416" on="0"/>
        <pt x="115" y="577" on="0"/>
        <pt x="265" y="666" on="0"/>
        <pt x="366" y="666" on="1"/>
        <pt x="514" y="666" on="0"/>
        <pt x="672" y="497" on="0"/>
        <pt x="672" y="335" on="1"/>
        <pt x="672" y="231" on="0"/>
        <pt x="593" y="71" on="0"/>
        <pt x="444" y="-18" on="0"/>
        <pt x="341" y="-18" on="1"/>
      </contour>
      <contour>
        <pt x="413" y="65" on="0"/>
        <pt x="477" y="110" on="0"/>
        <pt x="508" y="217" on="0"/>
        <pt x="508" y="309" on="1"/>
        <pt x="508" y="409" on="0"/>
        <pt x="474" y="529" on="0"/>
        <pt x="404" y="582" on="0"/>
        <pt x="348" y="582" on="1"/>
        <pt x="295" y="582" on="0"/>
        <pt x="230" y="537" on="0"/>
        <pt x="198" y="432" on="0"/>
        <pt x="198" y="340" on="1"/>
        <pt x="198" y="239" on="0"/>
        <pt x="233" y="119" on="0"/>
        <pt x="303" y="65" on="0"/>
        <pt x="360" y="65" on="1"/>
      </contour>
    </TTGlyph>
    <TTGlyph name="Oslash" xMin="35" yMin="-76" xMax="672" yMax="720">
      <contour>
        <pt x="104" y="59" on="0"/>
        <pt x="35" y="206" on="0"/>
        <pt x="35" y="313" on="1"/>
        <pt x="35" y="416" on="0"/>
        <pt x="115" y="577" on="0"/>
        <pt x="265" y="666" on="0"/>
        <pt x="366" y="666" on="1"/>
        <pt x="411" y="666" on="0"/>
        <pt x="446" y="659" on="1"/>
        <pt x="473" y="720" on="1"/>
        <pt x="543" y="689" on="1"/>
        <pt x="520" y="635" on="1"/>
        <pt x="594" y="599" on="0"/>
        <pt x="672" y="448" on="0"/>
        <pt x="672" y="335" on="1"/>
        <pt x="672" y="231" on="0"/>
        <pt x="593" y="71" on="0"/>
        <pt x="444" y="-18" on="0"/>
        <pt x="341" y="-18" on="1"/>
        <pt x="291" y="-18" on="0"/>
        <pt x="244" y="-7" on="1"/>
        <pt x="215" y="-76" on="1"/>
        <pt x="143" y="-45" on="1"/>
        <pt x="171" y="21" on="1"/>
      </contour>
      <contour>
        <pt x="379" y="582" on="0"/>
        <pt x="348" y="582" on="1"/>
        <pt x="295" y="582" on="0"/>
        <pt x="230" y="537" on="0"/>
        <pt x="198" y="432" on="0"/>
        <pt x="198" y="340" on="1"/>
        <pt x="198" y="213" on="0"/>
        <pt x="226" y="148" on="1"/>
        <pt x="409" y="572" on="1"/>
      </contour>
      <contour>
        <pt x="313" y="65" on="0"/>
        <pt x="360" y="65" on="1"/>
        <pt x="413" y="65" on="0"/>
        <pt x="477" y="110" on="0"/>
        <pt x="508" y="217" on="0"/>
        <pt x="508" y="309" on="1"/>
        <pt x="508" y="456" on="0"/>
        <pt x="470" y="519" on="1"/>
        <pt x="282" y="82" on="1"/>
      </contour>
    </TTGlyph>
    <TTGlyph name="Oslashacute" xMin="35" yMin="-76" xMax="672" yMax="844">
      <component glyphName=".ttfautohint" x="35" y="0" flags="0x0"/>
      <component glyphName="Oslash" x="0" y="0" flags="0x0"/>
      <component glyphName="acutecomb.case" x="457" y="0" flags="0x0"/>
    </TTGlyph>
    <TTGlyph name="Otilde" xMin="35" yMin="-18" xMax="672" yMax="844">
      <contour>
        <pt x="216" y="825" on="0"/>
        <pt x="257" y="844" on="0"/>
        <pt x="283" y="844" on="1"/>
        <pt x="310" y="844" on="0"/>
        <pt x="340" y="834" on="1"/>
        <pt x="440" y="801" on="1"/>
        <pt x="512" y="839" on="1"/>
        <pt x="550" y="803" on="1"/>
        <pt x="515" y="750" on="1"/>
        <pt x="495" y="720" on="0"/>
        <pt x="454" y="700" on="0"/>
        <pt x="428" y="700" on="1"/>
        <pt x="414" y="700" on="0"/>
        <pt x="390" y="705" on="0"/>
        <pt x="371" y="711" on="1"/>
        <pt x="271" y="744" on="1"/>
        <pt x="200" y="705" on="1"/>
        <pt x="161" y="742" on="1"/>
        <pt x="196" y="795" on="1"/>
      </contour>
      <contour>
        <pt x="193" y="-18" on="0"/>
        <pt x="35" y="151" on="0"/>
        <pt x="35" y="313" on="1"/>
        <pt x="35" y="416" on="0"/>
        <pt x="115" y="577" on="0"/>
        <pt x="265" y="666" on="0"/>
        <pt x="366" y="666" on="1"/>
        <pt x="514" y="666" on="0"/>
        <pt x="672" y="497" on="0"/>
        <pt x="672" y="335" on="1"/>
        <pt x="672" y="231" on="0"/>
        <pt x="593" y="71" on="0"/>
        <pt x="444" y="-18" on="0"/>
        <pt x="341" y="-18" on="1"/>
      </contour>
      <contour>
        <pt x="413" y="65" on="0"/>
        <pt x="477" y="110" on="0"/>
        <pt x="508" y="217" on="0"/>
        <pt x="508" y="309" on="1"/>
        <pt x="508" y="409" on="0"/>
        <pt x="474" y="529" on="0"/>
        <pt x="404" y="582" on="0"/>
        <pt x="348" y="582" on="1"/>
        <pt x="295" y="582" on="0"/>
        <pt x="230" y="537" on="0"/>
        <pt x="198" y="432" on="0"/>
        <pt x="198" y="340" on="1"/>
        <pt x="198" y="239" on="0"/>
        <pt x="233" y="119" on="0"/>
        <pt x="303" y="65" on="0"/>
        <pt x="360" y="65" on="1"/>
      </contour>
    </TTGlyph>
    <TTGlyph name="P" xMin="35" yMin="0" xMax="573" yMax="648">
      <contour>
        <pt x="337" y="56" on="1"/>
        <pt x="337" y="0" on="1"/>
        <pt x="35" y="0" on="1"/>
        <pt x="35" y="56" on="1"/>
        <pt x="115" y="75" on="1"/>
        <pt x="115" y="573" on="1"/>
        <pt x="35" y="592" on="1"/>
        <pt x="35" y="648" on="1"/>
        <pt x="317" y="648" on="1"/>
        <pt x="450" y="648" on="0"/>
        <pt x="573" y="565" on="0"/>
        <pt x="573" y="461" on="1"/>
        <pt x="573" y="398" on="0"/>
        <pt x="511" y="307" on="0"/>
        <pt x="405" y="261" on="0"/>
        <pt x="340" y="261" on="1"/>
        <pt x="328" y="261" on="0"/>
        <pt x="304" y="263" on="1"/>
        <pt x="299" y="310" on="1"/>
        <pt x="369" y="318" on="0"/>
        <pt x="423" y="386" on="0"/>
        <pt x="423" y="461" on="1"/>
        <pt x="423" y="572" on="0"/>
        <pt x="312" y="572" on="1"/>
        <pt x="295" y="572" on="0"/>
        <pt x="262" y="569" on="0"/>
        <pt x="257" y="568" on="1"/>
        <pt x="257" y="75" on="1"/>
      </contour>
    </TTGlyph>
    <TTGlyph name="Q" xMin="35" yMin="-162" xMax="708" yMax="666">
      <contour>
        <pt x="323" y="-21" on="0"/>
        <pt x="274" y="-13" on="1"/>
        <pt x="157" y="4" on="0"/>
        <pt x="35" y="172" on="0"/>
        <pt x="35" y="313" on="1"/>
        <pt x="35" y="414" on="0"/>
        <pt x="115" y="575" on="0"/>
        <pt x="265" y="666" on="0"/>
        <pt x="366" y="666" on="1"/>
        <pt x="513" y="666" on="0"/>
        <pt x="672" y="495" on="0"/>
        <pt x="672" y="335" on="1"/>
        <pt x="672" y="213" on="0"/>
        <pt x="559" y="33" on="0"/>
        <pt x="457" y="0" on="1"/>
        <pt x="603" y="-77" on="1"/>
        <pt x="708" y="-77" on="1"/>
        <pt x="708" y="-128" on="1"/>
        <pt x="704" y="-131" on="0"/>
        <pt x="671" y="-147" on="0"/>
        <pt x="624" y="-162" on="0"/>
        <pt x="602" y="-162" on="1"/>
        <pt x="548" y="-162" on="0"/>
        <pt x="507" y="-134" on="1"/>
        <pt x="358" y="-43" on="1"/>
      </contour>
      <contour>
        <pt x="413" y="65" on="0"/>
        <pt x="477" y="110" on="0"/>
        <pt x="508" y="222" on="0"/>
        <pt x="508" y="324" on="1"/>
        <pt x="508" y="459" on="0"/>
        <pt x="430" y="582" on="0"/>
        <pt x="347" y="582" on="1"/>
        <pt x="294" y="582" on="0"/>
        <pt x="230" y="537" on="0"/>
        <pt x="198" y="430" on="0"/>
        <pt x="198" y="337" on="1"/>
        <pt x="198" y="191" on="0"/>
        <pt x="275" y="65" on="0"/>
        <pt x="360" y="65" on="1"/>
      </contour>
    </TTGlyph>
    <TTGlyph name="R" xMin="35" yMin="0" xMax="630" yMax="648">
      <contour>
        <pt x="115" y="75" on="1"/>
        <pt x="115" y="573" on="1"/>
        <pt x="35" y="592" on="1"/>
        <pt x="35" y="648" on="1"/>
        <pt x="317" y="648" on="1"/>
        <pt x="444" y="648" on="0"/>
        <pt x="564" y="568" on="0"/>
        <pt x="564" y="465" on="1"/>
        <pt x="564" y="400" on="0"/>
        <pt x="495" y="310" on="0"/>
        <pt x="432" y="287" on="1"/>
        <pt x="556" y="73" on="1"/>
        <pt x="630" y="56" on="1"/>
        <pt x="630" y="0" on="1"/>
        <pt x="480" y="0" on="1"/>
        <pt x="457" y="0" on="0"/>
        <pt x="431" y="14" on="0"/>
        <pt x="421" y="33" on="1"/>
        <pt x="399" y="74" on="1"/>
        <pt x="299" y="264" on="1"/>
        <pt x="257" y="264" on="1"/>
        <pt x="257" y="75" on="1"/>
        <pt x="337" y="56" on="1"/>
        <pt x="337" y="0" on="1"/>
        <pt x="35" y="0" on="1"/>
        <pt x="35" y="56" on="1"/>
      </contour>
      <contour>
        <pt x="349" y="340" on="0"/>
        <pt x="415" y="403" on="0"/>
        <pt x="415" y="465" on="1"/>
        <pt x="415" y="522" on="0"/>
        <pt x="370" y="572" on="0"/>
        <pt x="308" y="572" on="1"/>
        <pt x="288" y="572" on="0"/>
        <pt x="260" y="569" on="0"/>
        <pt x="257" y="568" on="1"/>
        <pt x="257" y="340" on="1"/>
        <pt x="287" y="340" on="1"/>
      </contour>
    </TTGlyph>
    <TTGlyph name="Racute" xMin="35" yMin="0" xMax="623" yMax="844">
      <contour>
        <pt x="345" y="820" on="1"/>
        <pt x="351" y="823" on="0"/>
        <pt x="385" y="844" on="0"/>
        <pt x="397" y="844" on="1"/>
        <pt x="416" y="844" on="0"/>
        <pt x="453" y="810" on="0"/>
        <pt x="453" y="774" on="1"/>
        <pt x="453" y="761" on="0"/>
        <pt x="447" y="739" on="1"/>
        <pt x="227" y="671" on="1"/>
        <pt x="202" y="721" on="1"/>
      </contour>
      <contour>
        <pt x="115" y="75" on="1"/>
        <pt x="115" y="573" on="1"/>
        <pt x="35" y="592" on="1"/>
        <pt x="35" y="648" on="1"/>
        <pt x="317" y="648" on="1"/>
        <pt x="444" y="648" on="0"/>
        <pt x="564" y="568" on="0"/>
        <pt x="564" y="465" on="1"/>
        <pt x="564" y="400" on="0"/>
        <pt x="494" y="308" on="0"/>
        <pt x="431" y="285" on="1"/>
        <pt x="549" y="73" on="1"/>
        <pt x="623" y="56" on="1"/>
        <pt x="623" y="0" on="1"/>
        <pt x="482" y="0" on="1"/>
        <pt x="459" y="0" on="0"/>
        <pt x="433" y="14" on="0"/>
        <pt x="423" y="33" on="1"/>
        <pt x="401" y="74" on="1"/>
        <pt x="301" y="264" on="1"/>
        <pt x="257" y="264" on="1"/>
        <pt x="257" y="75" on="1"/>
        <pt x="337" y="56" on="1"/>
        <pt x="337" y="0" on="1"/>
        <pt x="35" y="0" on="1"/>
        <pt x="35" y="56" on="1"/>
      </contour>
      <contour>
        <pt x="349" y="340" on="0"/>
        <pt x="416" y="403" on="0"/>
        <pt x="416" y="465" on="1"/>
        <pt x="416" y="521" on="0"/>
        <pt x="372" y="572" on="0"/>
        <pt x="311" y="572" on="1"/>
        <pt x="291" y="572" on="0"/>
        <pt x="261" y="569" on="0"/>
        <pt x="257" y="568" on="1"/>
        <pt x="257" y="340" on="1"/>
        <pt x="287" y="340" on="1"/>
      </contour>
    </TTGlyph>
    <TTGlyph name="Rcaron" xMin="35" yMin="0" xMax="623" yMax="844">
      <contour>
        <pt x="320" y="782" on="1"/>
        <pt x="459" y="844" on="1"/>
        <pt x="488" y="802" on="1"/>
        <pt x="368" y="702" on="1"/>
        <pt x="350" y="688" on="0"/>
        <pt x="325" y="671" on="0"/>
        <pt x="314" y="671" on="1"/>
        <pt x="300" y="671" on="0"/>
        <pt x="265" y="699" on="0"/>
        <pt x="262" y="701" on="1"/>
        <pt x="139" y="792" on="1"/>
        <pt x="173" y="844" on="1"/>
      </contour>
      <contour>
        <pt x="115" y="75" on="1"/>
        <pt x="115" y="573" on="1"/>
        <pt x="35" y="592" on="1"/>
        <pt x="35" y="648" on="1"/>
        <pt x="317" y="648" on="1"/>
        <pt x="444" y="648" on="0"/>
        <pt x="564" y="568" on="0"/>
        <pt x="564" y="465" on="1"/>
        <pt x="564" y="400" on="0"/>
        <pt x="494" y="308" on="0"/>
        <pt x="431" y="285" on="1"/>
        <pt x="549" y="73" on="1"/>
        <pt x="623" y="56" on="1"/>
        <pt x="623" y="0" on="1"/>
        <pt x="482" y="0" on="1"/>
        <pt x="459" y="0" on="0"/>
        <pt x="433" y="14" on="0"/>
        <pt x="423" y="33" on="1"/>
        <pt x="401" y="74" on="1"/>
        <pt x="301" y="264" on="1"/>
        <pt x="257" y="264" on="1"/>
        <pt x="257" y="75" on="1"/>
        <pt x="337" y="56" on="1"/>
        <pt x="337" y="0" on="1"/>
        <pt x="35" y="0" on="1"/>
        <pt x="35" y="56" on="1"/>
      </contour>
      <contour>
        <pt x="349" y="340" on="0"/>
        <pt x="416" y="403" on="0"/>
        <pt x="416" y="465" on="1"/>
        <pt x="416" y="521" on="0"/>
        <pt x="372" y="572" on="0"/>
        <pt x="311" y="572" on="1"/>
        <pt x="291" y="572" on="0"/>
        <pt x="261" y="569" on="0"/>
        <pt x="257" y="568" on="1"/>
        <pt x="257" y="340" on="1"/>
        <pt x="287" y="340" on="1"/>
      </contour>
    </TTGlyph>
    <TTGlyph name="Rcommaaccent" xMin="35" yMin="-214" xMax="623" yMax="648">
      <contour>
        <pt x="115" y="75" on="1"/>
        <pt x="115" y="573" on="1"/>
        <pt x="35" y="592" on="1"/>
        <pt x="35" y="648" on="1"/>
        <pt x="317" y="648" on="1"/>
        <pt x="444" y="648" on="0"/>
        <pt x="564" y="568" on="0"/>
        <pt x="564" y="465" on="1"/>
        <pt x="564" y="400" on="0"/>
        <pt x="494" y="308" on="0"/>
        <pt x="431" y="285" on="1"/>
        <pt x="549" y="73" on="1"/>
        <pt x="623" y="56" on="1"/>
        <pt x="623" y="0" on="1"/>
        <pt x="482" y="0" on="1"/>
        <pt x="459" y="0" on="0"/>
        <pt x="433" y="14" on="0"/>
        <pt x="423" y="33" on="1"/>
        <pt x="401" y="74" on="1"/>
        <pt x="301" y="264" on="1"/>
        <pt x="257" y="264" on="1"/>
        <pt x="257" y="75" on="1"/>
        <pt x="337" y="56" on="1"/>
        <pt x="337" y="0" on="1"/>
        <pt x="35" y="0" on="1"/>
        <pt x="35" y="56" on="1"/>
      </contour>
      <contour>
        <pt x="349" y="340" on="0"/>
        <pt x="416" y="403" on="0"/>
        <pt x="416" y="465" on="1"/>
        <pt x="416" y="521" on="0"/>
        <pt x="372" y="572" on="0"/>
        <pt x="311" y="572" on="1"/>
        <pt x="291" y="572" on="0"/>
        <pt x="261" y="569" on="0"/>
        <pt x="257" y="568" on="1"/>
        <pt x="257" y="340" on="1"/>
        <pt x="287" y="340" on="1"/>
      </contour>
      <contour>
        <pt x="274" y="-208" on="0"/>
        <pt x="280" y="-182" on="0"/>
        <pt x="287" y="-138" on="0"/>
        <pt x="287" y="-118" on="1"/>
        <pt x="287" y="-98" on="0"/>
        <pt x="278" y="-70" on="0"/>
        <pt x="269" y="-56" on="0"/>
        <pt x="267" y="-54" on="1"/>
        <pt x="279" y="-40" on="0"/>
        <pt x="305" y="-24" on="0"/>
        <pt x="323" y="-24" on="1"/>
        <pt x="354" y="-24" on="0"/>
        <pt x="385" y="-59" on="0"/>
        <pt x="385" y="-83" on="1"/>
        <pt x="385" y="-113" on="0"/>
        <pt x="355" y="-170" on="0"/>
        <pt x="317" y="-214" on="0"/>
        <pt x="317" y="-212" on="1"/>
        <pt x="273" y="-212" on="1"/>
      </contour>
    </TTGlyph>
    <TTGlyph name="S" xMin="39" yMin="-17" xMax="495" yMax="666">
      <contour>
        <pt x="109" y="211" on="1"/>
        <pt x="130" y="108" on="1"/>
        <pt x="130" y="107" on="0"/>
        <pt x="162" y="84" on="0"/>
        <pt x="215" y="65" on="0"/>
        <pt x="249" y="65" on="1"/>
        <pt x="313" y="65" on="0"/>
        <pt x="369" y="113" on="0"/>
        <pt x="369" y="152" on="1"/>
        <pt x="369" y="177" on="0"/>
        <pt x="353" y="206" on="0"/>
        <pt x="302" y="236" on="0"/>
        <pt x="243" y="262" on="1"/>
        <pt x="214" y="274" on="1"/>
        <pt x="157" y="298" on="0"/>
        <pt x="87" y="340" on="0"/>
        <pt x="39" y="416" on="0"/>
        <pt x="39" y="475" on="1"/>
        <pt x="39" y="531" on="0"/>
        <pt x="96" y="618" on="0"/>
        <pt x="203" y="666" on="0"/>
        <pt x="274" y="666" on="1"/>
        <pt x="325" y="666" on="0"/>
        <pt x="434" y="650" on="0"/>
        <pt x="466" y="641" on="1"/>
        <pt x="466" y="459" on="1"/>
        <pt x="397" y="459" on="1"/>
        <pt x="376" y="563" on="1"/>
        <pt x="330" y="582" on="0"/>
        <pt x="278" y="582" on="1"/>
        <pt x="218" y="582" on="0"/>
        <pt x="170" y="543" on="0"/>
        <pt x="170" y="501" on="1"/>
        <pt x="170" y="478" on="0"/>
        <pt x="194" y="447" on="0"/>
        <pt x="232" y="428" on="0"/>
        <pt x="269" y="413" on="1"/>
        <pt x="276" y="411" on="0"/>
        <pt x="290" y="405" on="1"/>
        <pt x="358" y="378" on="0"/>
        <pt x="443" y="327" on="0"/>
        <pt x="495" y="250" on="0"/>
        <pt x="495" y="195" on="1"/>
        <pt x="495" y="82" on="0"/>
        <pt x="354" y="-17" on="0"/>
        <pt x="252" y="-17" on="1"/>
        <pt x="178" y="-17" on="0"/>
        <pt x="67" y="16" on="0"/>
        <pt x="39" y="33" on="1"/>
        <pt x="39" y="211" on="1"/>
      </contour>
    </TTGlyph>
    <TTGlyph name="Sacute" xMin="42" yMin="-17" xMax="498" yMax="844">
      <contour>
        <pt x="301" y="820" on="1"/>
        <pt x="307" y="823" on="0"/>
        <pt x="341" y="844" on="0"/>
        <pt x="353" y="844" on="1"/>
        <pt x="372" y="844" on="0"/>
        <pt x="409" y="810" on="0"/>
        <pt x="409" y="774" on="1"/>
        <pt x="409" y="761" on="0"/>
        <pt x="403" y="739" on="1"/>
        <pt x="183" y="671" on="1"/>
        <pt x="158" y="721" on="1"/>
      </contour>
      <contour>
        <pt x="112" y="211" on="1"/>
        <pt x="133" y="108" on="1"/>
        <pt x="133" y="107" on="0"/>
        <pt x="165" y="84" on="0"/>
        <pt x="218" y="65" on="0"/>
        <pt x="252" y="65" on="1"/>
        <pt x="318" y="65" on="0"/>
        <pt x="372" y="107" on="0"/>
        <pt x="372" y="152" on="1"/>
        <pt x="372" y="178" on="0"/>
        <pt x="356" y="208" on="0"/>
        <pt x="304" y="239" on="0"/>
        <pt x="246" y="262" on="1"/>
        <pt x="179" y="289" on="0"/>
        <pt x="100" y="331" on="0"/>
        <pt x="42" y="412" on="0"/>
        <pt x="42" y="475" on="1"/>
        <pt x="42" y="531" on="0"/>
        <pt x="99" y="618" on="0"/>
        <pt x="206" y="666" on="0"/>
        <pt x="277" y="666" on="1"/>
        <pt x="328" y="666" on="0"/>
        <pt x="437" y="650" on="0"/>
        <pt x="469" y="641" on="1"/>
        <pt x="469" y="459" on="1"/>
        <pt x="400" y="459" on="1"/>
        <pt x="379" y="563" on="1"/>
        <pt x="333" y="582" on="0"/>
        <pt x="281" y="582" on="1"/>
        <pt x="218" y="582" on="0"/>
        <pt x="173" y="544" on="0"/>
        <pt x="173" y="501" on="1"/>
        <pt x="173" y="478" on="0"/>
        <pt x="203" y="445" on="0"/>
        <pt x="248" y="423" on="0"/>
        <pt x="293" y="405" on="1"/>
        <pt x="361" y="378" on="0"/>
        <pt x="446" y="327" on="0"/>
        <pt x="498" y="250" on="0"/>
        <pt x="498" y="195" on="1"/>
        <pt x="498" y="82" on="0"/>
        <pt x="357" y="-17" on="0"/>
        <pt x="255" y="-17" on="1"/>
        <pt x="181" y="-17" on="0"/>
        <pt x="70" y="16" on="0"/>
        <pt x="42" y="33" on="1"/>
        <pt x="42" y="211" on="1"/>
      </contour>
    </TTGlyph>
    <TTGlyph name="Sacute.loclPLK" xMin="39" yMin="-17" xMax="495" yMax="873">
      <contour>
        <pt x="303" y="827" on="1"/>
        <pt x="307" y="832" on="0"/>
        <pt x="327" y="861" on="0"/>
        <pt x="347" y="873" on="0"/>
        <pt x="360" y="873" on="1"/>
        <pt x="377" y="873" on="0"/>
        <pt x="409" y="852" on="0"/>
        <pt x="420" y="827" on="1"/>
        <pt x="424" y="818" on="0"/>
        <pt x="429" y="793" on="1"/>
        <pt x="282" y="667" on="1"/>
        <pt x="232" y="713" on="1"/>
      </contour>
      <contour>
        <pt x="109" y="211" on="1"/>
        <pt x="130" y="108" on="1"/>
        <pt x="130" y="107" on="0"/>
        <pt x="162" y="84" on="0"/>
        <pt x="215" y="65" on="0"/>
        <pt x="249" y="65" on="1"/>
        <pt x="313" y="65" on="0"/>
        <pt x="369" y="113" on="0"/>
        <pt x="369" y="152" on="1"/>
        <pt x="369" y="177" on="0"/>
        <pt x="353" y="206" on="0"/>
        <pt x="302" y="236" on="0"/>
        <pt x="243" y="262" on="1"/>
        <pt x="214" y="274" on="1"/>
        <pt x="157" y="298" on="0"/>
        <pt x="87" y="340" on="0"/>
        <pt x="39" y="416" on="0"/>
        <pt x="39" y="475" on="1"/>
        <pt x="39" y="531" on="0"/>
        <pt x="96" y="618" on="0"/>
        <pt x="203" y="666" on="0"/>
        <pt x="274" y="666" on="1"/>
        <pt x="325" y="666" on="0"/>
        <pt x="434" y="650" on="0"/>
        <pt x="466" y="641" on="1"/>
        <pt x="466" y="459" on="1"/>
        <pt x="397" y="459" on="1"/>
        <pt x="376" y="563" on="1"/>
        <pt x="330" y="582" on="0"/>
        <pt x="278" y="582" on="1"/>
        <pt x="218" y="582" on="0"/>
        <pt x="170" y="543" on="0"/>
        <pt x="170" y="501" on="1"/>
        <pt x="170" y="478" on="0"/>
        <pt x="194" y="447" on="0"/>
        <pt x="232" y="428" on="0"/>
        <pt x="269" y="413" on="1"/>
        <pt x="276" y="411" on="0"/>
        <pt x="290" y="405" on="1"/>
        <pt x="358" y="378" on="0"/>
        <pt x="443" y="327" on="0"/>
        <pt x="495" y="250" on="0"/>
        <pt x="495" y="195" on="1"/>
        <pt x="495" y="82" on="0"/>
        <pt x="354" y="-17" on="0"/>
        <pt x="252" y="-17" on="1"/>
        <pt x="178" y="-17" on="0"/>
        <pt x="67" y="16" on="0"/>
        <pt x="39" y="33" on="1"/>
        <pt x="39" y="211" on="1"/>
      </contour>
    </TTGlyph>
    <TTGlyph name="Scaron" xMin="42" yMin="-17" xMax="498" yMax="844">
      <contour>
        <pt x="282" y="782" on="1"/>
        <pt x="421" y="844" on="1"/>
        <pt x="450" y="802" on="1"/>
        <pt x="330" y="702" on="1"/>
        <pt x="312" y="688" on="0"/>
        <pt x="286" y="671" on="0"/>
        <pt x="275" y="671" on="1"/>
        <pt x="268" y="671" on="0"/>
        <pt x="248" y="683" on="0"/>
        <pt x="231" y="696" on="0"/>
        <pt x="224" y="701" on="1"/>
        <pt x="101" y="792" on="1"/>
        <pt x="135" y="844" on="1"/>
      </contour>
      <contour>
        <pt x="112" y="211" on="1"/>
        <pt x="133" y="108" on="1"/>
        <pt x="133" y="107" on="0"/>
        <pt x="165" y="84" on="0"/>
        <pt x="218" y="65" on="0"/>
        <pt x="252" y="65" on="1"/>
        <pt x="318" y="65" on="0"/>
        <pt x="372" y="107" on="0"/>
        <pt x="372" y="152" on="1"/>
        <pt x="372" y="178" on="0"/>
        <pt x="356" y="208" on="0"/>
        <pt x="304" y="239" on="0"/>
        <pt x="246" y="262" on="1"/>
        <pt x="179" y="289" on="0"/>
        <pt x="100" y="331" on="0"/>
        <pt x="42" y="412" on="0"/>
        <pt x="42" y="475" on="1"/>
        <pt x="42" y="531" on="0"/>
        <pt x="99" y="618" on="0"/>
        <pt x="206" y="666" on="0"/>
        <pt x="277" y="666" on="1"/>
        <pt x="328" y="666" on="0"/>
        <pt x="437" y="650" on="0"/>
        <pt x="469" y="641" on="1"/>
        <pt x="469" y="459" on="1"/>
        <pt x="400" y="459" on="1"/>
        <pt x="379" y="563" on="1"/>
        <pt x="333" y="582" on="0"/>
        <pt x="281" y="582" on="1"/>
        <pt x="218" y="582" on="0"/>
        <pt x="173" y="544" on="0"/>
        <pt x="173" y="501" on="1"/>
        <pt x="173" y="478" on="0"/>
        <pt x="203" y="445" on="0"/>
        <pt x="248" y="423" on="0"/>
        <pt x="293" y="405" on="1"/>
        <pt x="361" y="378" on="0"/>
        <pt x="446" y="327" on="0"/>
        <pt x="498" y="250" on="0"/>
        <pt x="498" y="195" on="1"/>
        <pt x="498" y="82" on="0"/>
        <pt x="357" y="-17" on="0"/>
        <pt x="255" y="-17" on="1"/>
        <pt x="181" y="-17" on="0"/>
        <pt x="70" y="16" on="0"/>
        <pt x="42" y="33" on="1"/>
        <pt x="42" y="211" on="1"/>
      </contour>
    </TTGlyph>
    <TTGlyph name="Scedilla" xMin="42" yMin="-194" xMax="498" yMax="666">
      <contour>
        <pt x="198" y="-132" on="1"/>
        <pt x="218" y="-141" on="0"/>
        <pt x="249" y="-141" on="1"/>
        <pt x="266" y="-141" on="0"/>
        <pt x="284" y="-131" on="0"/>
        <pt x="284" y="-116" on="1"/>
        <pt x="284" y="-106" on="0"/>
        <pt x="273" y="-95" on="0"/>
        <pt x="261" y="-93" on="1"/>
        <pt x="232" y="-87" on="1"/>
        <pt x="209" y="-64" on="1"/>
        <pt x="230" y="-16" on="1"/>
        <pt x="165" y="-13" on="0"/>
        <pt x="66" y="18" on="0"/>
        <pt x="42" y="33" on="1"/>
        <pt x="42" y="211" on="1"/>
        <pt x="112" y="211" on="1"/>
        <pt x="133" y="108" on="1"/>
        <pt x="133" y="107" on="0"/>
        <pt x="165" y="84" on="0"/>
        <pt x="218" y="65" on="0"/>
        <pt x="252" y="65" on="1"/>
        <pt x="318" y="65" on="0"/>
        <pt x="372" y="107" on="0"/>
        <pt x="372" y="152" on="1"/>
        <pt x="372" y="178" on="0"/>
        <pt x="356" y="208" on="0"/>
        <pt x="304" y="239" on="0"/>
        <pt x="246" y="262" on="1"/>
        <pt x="179" y="289" on="0"/>
        <pt x="100" y="331" on="0"/>
        <pt x="42" y="412" on="0"/>
        <pt x="42" y="475" on="1"/>
        <pt x="42" y="531" on="0"/>
        <pt x="99" y="618" on="0"/>
        <pt x="206" y="666" on="0"/>
        <pt x="277" y="666" on="1"/>
        <pt x="328" y="666" on="0"/>
        <pt x="437" y="650" on="0"/>
        <pt x="469" y="641" on="1"/>
        <pt x="469" y="459" on="1"/>
        <pt x="400" y="459" on="1"/>
        <pt x="379" y="563" on="1"/>
        <pt x="333" y="582" on="0"/>
        <pt x="281" y="582" on="1"/>
        <pt x="218" y="582" on="0"/>
        <pt x="173" y="544" on="0"/>
        <pt x="173" y="501" on="1"/>
        <pt x="173" y="478" on="0"/>
        <pt x="203" y="445" on="0"/>
        <pt x="248" y="423" on="0"/>
        <pt x="293" y="405" on="1"/>
        <pt x="361" y="378" on="0"/>
        <pt x="446" y="327" on="0"/>
        <pt x="498" y="250" on="0"/>
        <pt x="498" y="195" on="1"/>
        <pt x="498" y="91" on="0"/>
        <pt x="378" y="-8" on="0"/>
        <pt x="287" y="-15" on="1"/>
        <pt x="287" y="-30" on="1"/>
        <pt x="308" y="-35" on="1"/>
        <pt x="343" y="-44" on="0"/>
        <pt x="376" y="-72" on="0"/>
        <pt x="376" y="-104" on="1"/>
        <pt x="376" y="-148" on="0"/>
        <pt x="313" y="-194" on="0"/>
        <pt x="252" y="-194" on="1"/>
        <pt x="206" y="-194" on="0"/>
        <pt x="180" y="-181" on="1"/>
        <pt x="168" y="-175" on="1"/>
        <pt x="188" y="-128" on="1"/>
      </contour>
    </TTGlyph>
    <TTGlyph name="Scircumflex" xMin="39" yMin="-17" xMax="495" yMax="844">
      <component glyphName=".ttfautohint" x="39" y="0" flags="0x0"/>
      <component glyphName="S" x="0" y="0" flags="0x0"/>
      <component glyphName="uni0302.case" x="441" y="0" flags="0x0"/>
    </TTGlyph>
    <TTGlyph name="Scommaaccent" xMin="42" yMin="-214" xMax="498" yMax="666">
      <contour>
        <pt x="112" y="211" on="1"/>
        <pt x="133" y="108" on="1"/>
        <pt x="133" y="107" on="0"/>
        <pt x="165" y="84" on="0"/>
        <pt x="218" y="65" on="0"/>
        <pt x="252" y="65" on="1"/>
        <pt x="318" y="65" on="0"/>
        <pt x="372" y="107" on="0"/>
        <pt x="372" y="152" on="1"/>
        <pt x="372" y="178" on="0"/>
        <pt x="356" y="208" on="0"/>
        <pt x="304" y="239" on="0"/>
        <pt x="246" y="262" on="1"/>
        <pt x="179" y="289" on="0"/>
        <pt x="100" y="331" on="0"/>
        <pt x="42" y="412" on="0"/>
        <pt x="42" y="475" on="1"/>
        <pt x="42" y="531" on="0"/>
        <pt x="99" y="618" on="0"/>
        <pt x="206" y="666" on="0"/>
        <pt x="277" y="666" on="1"/>
        <pt x="328" y="666" on="0"/>
        <pt x="437" y="650" on="0"/>
        <pt x="469" y="641" on="1"/>
        <pt x="469" y="459" on="1"/>
        <pt x="400" y="459" on="1"/>
        <pt x="379" y="563" on="1"/>
        <pt x="333" y="582" on="0"/>
        <pt x="281" y="582" on="1"/>
        <pt x="218" y="582" on="0"/>
        <pt x="173" y="544" on="0"/>
        <pt x="173" y="501" on="1"/>
        <pt x="173" y="478" on="0"/>
        <pt x="203" y="445" on="0"/>
        <pt x="248" y="423" on="0"/>
        <pt x="293" y="405" on="1"/>
        <pt x="361" y="378" on="0"/>
        <pt x="446" y="327" on="0"/>
        <pt x="498" y="250" on="0"/>
        <pt x="498" y="195" on="1"/>
        <pt x="498" y="82" on="0"/>
        <pt x="357" y="-17" on="0"/>
        <pt x="255" y="-17" on="1"/>
        <pt x="181" y="-17" on="0"/>
        <pt x="70" y="16" on="0"/>
        <pt x="42" y="33" on="1"/>
        <pt x="42" y="211" on="1"/>
      </contour>
      <contour>
        <pt x="207" y="-208" on="0"/>
        <pt x="213" y="-182" on="0"/>
        <pt x="220" y="-138" on="0"/>
        <pt x="220" y="-118" on="1"/>
        <pt x="220" y="-98" on="0"/>
        <pt x="211" y="-70" on="0"/>
        <pt x="202" y="-56" on="0"/>
        <pt x="200" y="-54" on="1"/>
        <pt x="212" y="-40" on="0"/>
        <pt x="238" y="-24" on="0"/>
        <pt x="256" y="-24" on="1"/>
        <pt x="287" y="-24" on="0"/>
        <pt x="318" y="-59" on="0"/>
        <pt x="318" y="-83" on="1"/>
        <pt x="318" y="-113" on="0"/>
        <pt x="288" y="-170" on="0"/>
        <pt x="250" y="-214" on="0"/>
        <pt x="250" y="-212" on="1"/>
        <pt x="206" y="-212" on="1"/>
      </contour>
    </TTGlyph>
    <TTGlyph name="T" xMin="8" yMin="0" xMax="561" yMax="648">
      <contour>
        <pt x="215" y="75" on="1"/>
        <pt x="215" y="572" on="1"/>
        <pt x="101" y="572" on="1"/>
        <pt x="74" y="460" on="1"/>
        <pt x="8" y="460" on="1"/>
        <pt x="8" y="648" on="1"/>
        <pt x="561" y="648" on="1"/>
        <pt x="561" y="460" on="1"/>
        <pt x="495" y="460" on="1"/>
        <pt x="468" y="572" on="1"/>
        <pt x="357" y="572" on="1"/>
        <pt x="357" y="75" on="1"/>
        <pt x="437" y="56" on="1"/>
        <pt x="437" y="0" on="1"/>
        <pt x="135" y="0" on="1"/>
        <pt x="135" y="56" on="1"/>
      </contour>
    </TTGlyph>
    <TTGlyph name="Tbar" xMin="8" yMin="0" xMax="561" yMax="648">
      <contour>
        <pt x="357" y="572" on="1"/>
        <pt x="357" y="373" on="1"/>
        <pt x="532" y="373" on="1"/>
        <pt x="532" y="296" on="1"/>
        <pt x="357" y="296" on="1"/>
        <pt x="357" y="75" on="1"/>
        <pt x="437" y="56" on="1"/>
        <pt x="437" y="0" on="1"/>
        <pt x="135" y="0" on="1"/>
        <pt x="135" y="56" on="1"/>
        <pt x="215" y="75" on="1"/>
        <pt x="215" y="296" on="1"/>
        <pt x="31" y="296" on="1"/>
        <pt x="31" y="373" on="1"/>
        <pt x="215" y="373" on="1"/>
        <pt x="215" y="572" on="1"/>
        <pt x="101" y="572" on="1"/>
        <pt x="74" y="460" on="1"/>
        <pt x="8" y="460" on="1"/>
        <pt x="8" y="648" on="1"/>
        <pt x="561" y="648" on="1"/>
        <pt x="561" y="460" on="1"/>
        <pt x="495" y="460" on="1"/>
        <pt x="468" y="572" on="1"/>
      </contour>
    </TTGlyph>
    <TTGlyph name="Tcaron" xMin="10" yMin="0" xMax="563" yMax="844">
      <contour>
        <pt x="299" y="782" on="1"/>
        <pt x="438" y="844" on="1"/>
        <pt x="467" y="802" on="1"/>
        <pt x="347" y="702" on="1"/>
        <pt x="343" y="699" on="0"/>
        <pt x="323" y="682" on="0"/>
        <pt x="303" y="671" on="0"/>
        <pt x="293" y="671" on="1"/>
        <pt x="279" y="671" on="0"/>
        <pt x="244" y="699" on="0"/>
        <pt x="241" y="701" on="1"/>
        <pt x="118" y="792" on="1"/>
        <pt x="152" y="844" on="1"/>
      </contour>
      <contour>
        <pt x="217" y="75" on="1"/>
        <pt x="217" y="572" on="1"/>
        <pt x="103" y="572" on="1"/>
        <pt x="76" y="460" on="1"/>
        <pt x="10" y="460" on="1"/>
        <pt x="10" y="648" on="1"/>
        <pt x="563" y="648" on="1"/>
        <pt x="563" y="460" on="1"/>
        <pt x="497" y="460" on="1"/>
        <pt x="470" y="572" on="1"/>
        <pt x="359" y="572" on="1"/>
        <pt x="359" y="75" on="1"/>
        <pt x="439" y="56" on="1"/>
        <pt x="439" y="0" on="1"/>
        <pt x="137" y="0" on="1"/>
        <pt x="137" y="56" on="1"/>
      </contour>
    </TTGlyph>
    <TTGlyph name="Thorn" xMin="35" yMin="0" xMax="552" yMax="648">
      <contour>
        <pt x="115" y="75" on="1"/>
        <pt x="115" y="573" on="1"/>
        <pt x="35" y="592" on="1"/>
        <pt x="35" y="648" on="1"/>
        <pt x="337" y="648" on="1"/>
        <pt x="337" y="592" on="1"/>
        <pt x="257" y="573" on="1"/>
        <pt x="257" y="511" on="1"/>
        <pt x="339" y="511" on="1"/>
        <pt x="452" y="511" on="0"/>
        <pt x="552" y="430" on="0"/>
        <pt x="552" y="344" on="1"/>
        <pt x="552" y="241" on="0"/>
        <pt x="412" y="140" on="0"/>
        <pt x="293" y="140" on="1"/>
        <pt x="257" y="140" on="1"/>
        <pt x="257" y="75" on="1"/>
        <pt x="337" y="56" on="1"/>
        <pt x="337" y="0" on="1"/>
        <pt x="35" y="0" on="1"/>
        <pt x="35" y="56" on="1"/>
      </contour>
      <contour>
        <pt x="353" y="216" on="0"/>
        <pt x="409" y="275" on="0"/>
        <pt x="409" y="334" on="1"/>
        <pt x="409" y="384" on="0"/>
        <pt x="357" y="435" on="0"/>
        <pt x="301" y="435" on="1"/>
        <pt x="287" y="435" on="0"/>
        <pt x="257" y="432" on="1"/>
        <pt x="257" y="216" on="1"/>
        <pt x="288" y="216" on="1"/>
      </contour>
    </TTGlyph>
    <TTGlyph name="U" xMin="3" yMin="-18" xMax="681" yMax="648">
      <contour>
        <pt x="3" y="592" on="1"/>
        <pt x="3" y="648" on="1"/>
        <pt x="299" y="648" on="1"/>
        <pt x="299" y="592" on="1"/>
        <pt x="225" y="573" on="1"/>
        <pt x="225" y="278" on="1"/>
        <pt x="225" y="190" on="0"/>
        <pt x="252" y="101" on="0"/>
        <pt x="313" y="69" on="0"/>
        <pt x="371" y="69" on="1"/>
        <pt x="421" y="69" on="0"/>
        <pt x="476" y="103" on="0"/>
        <pt x="501" y="193" on="0"/>
        <pt x="501" y="278" on="1"/>
        <pt x="501" y="573" on="1"/>
        <pt x="422" y="591" on="1"/>
        <pt x="422" y="648" on="1"/>
        <pt x="681" y="648" on="1"/>
        <pt x="681" y="591" on="1"/>
        <pt x="601" y="573" on="1"/>
        <pt x="601" y="278" on="1"/>
        <pt x="601" y="172" on="0"/>
        <pt x="554" y="43" on="0"/>
        <pt x="446" y="-18" on="0"/>
        <pt x="352" y="-18" on="1"/>
        <pt x="249" y="-18" on="0"/>
        <pt x="133" y="39" on="0"/>
        <pt x="83" y="166" on="0"/>
        <pt x="83" y="278" on="1"/>
        <pt x="83" y="573" on="1"/>
      </contour>
    </TTGlyph>
    <TTGlyph name="Uacute" xMin="3" yMin="-18" xMax="681" yMax="844">
      <contour>
        <pt x="386" y="820" on="1"/>
        <pt x="392" y="823" on="0"/>
        <pt x="426" y="844" on="0"/>
        <pt x="438" y="844" on="1"/>
        <pt x="457" y="844" on="0"/>
        <pt x="494" y="810" on="0"/>
        <pt x="494" y="774" on="1"/>
        <pt x="494" y="761" on="0"/>
        <pt x="488" y="739" on="1"/>
        <pt x="268" y="671" on="1"/>
        <pt x="243" y="721" on="1"/>
      </contour>
      <contour>
        <pt x="3" y="592" on="1"/>
        <pt x="3" y="648" on="1"/>
        <pt x="299" y="648" on="1"/>
        <pt x="299" y="592" on="1"/>
        <pt x="225" y="573" on="1"/>
        <pt x="225" y="278" on="1"/>
        <pt x="225" y="190" on="0"/>
        <pt x="252" y="101" on="0"/>
        <pt x="313" y="69" on="0"/>
        <pt x="371" y="69" on="1"/>
        <pt x="423" y="69" on="0"/>
        <pt x="478" y="103" on="0"/>
        <pt x="500" y="191" on="0"/>
        <pt x="500" y="278" on="1"/>
        <pt x="500" y="573" on="1"/>
        <pt x="422" y="591" on="1"/>
        <pt x="422" y="648" on="1"/>
        <pt x="681" y="648" on="1"/>
        <pt x="681" y="591" on="1"/>
        <pt x="601" y="573" on="1"/>
        <pt x="601" y="278" on="1"/>
        <pt x="601" y="123" on="0"/>
        <pt x="482" y="-18" on="0"/>
        <pt x="352" y="-18" on="1"/>
        <pt x="249" y="-18" on="0"/>
        <pt x="133" y="39" on="0"/>
        <pt x="83" y="166" on="0"/>
        <pt x="83" y="278" on="1"/>
        <pt x="83" y="573" on="1"/>
      </contour>
    </TTGlyph>
    <TTGlyph name="Ubreve" xMin="3" yMin="-18" xMax="681" yMax="851">
      <component glyphName=".ttfautohint" x="3" y="0" flags="0x0"/>
      <component glyphName="U" x="0" y="0" flags="0x0"/>
      <component glyphName="uni0306.case" x="526" y="0" flags="0x0"/>
    </TTGlyph>
    <TTGlyph name="Ucircumflex" xMin="3" yMin="-18" xMax="681" yMax="844">
      <contour>
        <pt x="309" y="813" on="1"/>
        <pt x="334" y="834" on="0"/>
        <pt x="355" y="844" on="0"/>
        <pt x="363" y="844" on="1"/>
        <pt x="371" y="844" on="0"/>
        <pt x="389" y="833" on="0"/>
        <pt x="408" y="818" on="0"/>
        <pt x="413" y="814" on="1"/>
        <pt x="534" y="721" on="1"/>
        <pt x="503" y="671" on="1"/>
        <pt x="355" y="733" on="1"/>
        <pt x="214" y="671" on="1"/>
        <pt x="187" y="712" on="1"/>
      </contour>
      <contour>
        <pt x="3" y="592" on="1"/>
        <pt x="3" y="648" on="1"/>
        <pt x="299" y="648" on="1"/>
        <pt x="299" y="592" on="1"/>
        <pt x="225" y="573" on="1"/>
        <pt x="225" y="278" on="1"/>
        <pt x="225" y="190" on="0"/>
        <pt x="252" y="101" on="0"/>
        <pt x="313" y="69" on="0"/>
        <pt x="371" y="69" on="1"/>
        <pt x="423" y="69" on="0"/>
        <pt x="478" y="103" on="0"/>
        <pt x="500" y="191" on="0"/>
        <pt x="500" y="278" on="1"/>
        <pt x="500" y="573" on="1"/>
        <pt x="422" y="591" on="1"/>
        <pt x="422" y="648" on="1"/>
        <pt x="681" y="648" on="1"/>
        <pt x="681" y="591" on="1"/>
        <pt x="601" y="573" on="1"/>
        <pt x="601" y="278" on="1"/>
        <pt x="601" y="123" on="0"/>
        <pt x="482" y="-18" on="0"/>
        <pt x="352" y="-18" on="1"/>
        <pt x="249" y="-18" on="0"/>
        <pt x="133" y="39" on="0"/>
        <pt x="83" y="166" on="0"/>
        <pt x="83" y="278" on="1"/>
        <pt x="83" y="573" on="1"/>
      </contour>
    </TTGlyph>
    <TTGlyph name="Udieresis" xMin="3" yMin="-18" xMax="681" yMax="847">
      <contour>
        <pt x="188" y="695" on="0"/>
        <pt x="148" y="736" on="0"/>
        <pt x="148" y="768" on="1"/>
        <pt x="148" y="800" on="0"/>
        <pt x="194" y="847" on="0"/>
        <pt x="226" y="847" on="1"/>
        <pt x="257" y="847" on="0"/>
        <pt x="297" y="808" on="0"/>
        <pt x="297" y="775" on="1"/>
        <pt x="297" y="742" on="0"/>
        <pt x="253" y="695" on="0"/>
        <pt x="218" y="695" on="1"/>
      </contour>
      <contour>
        <pt x="433" y="695" on="0"/>
        <pt x="393" y="736" on="0"/>
        <pt x="393" y="768" on="1"/>
        <pt x="393" y="800" on="0"/>
        <pt x="439" y="847" on="0"/>
        <pt x="471" y="847" on="1"/>
        <pt x="502" y="847" on="0"/>
        <pt x="542" y="808" on="0"/>
        <pt x="542" y="775" on="1"/>
        <pt x="542" y="742" on="0"/>
        <pt x="498" y="695" on="0"/>
        <pt x="463" y="695" on="1"/>
      </contour>
      <contour>
        <pt x="3" y="592" on="1"/>
        <pt x="3" y="648" on="1"/>
        <pt x="299" y="648" on="1"/>
        <pt x="299" y="592" on="1"/>
        <pt x="225" y="573" on="1"/>
        <pt x="225" y="278" on="1"/>
        <pt x="225" y="190" on="0"/>
        <pt x="252" y="101" on="0"/>
        <pt x="313" y="69" on="0"/>
        <pt x="371" y="69" on="1"/>
        <pt x="423" y="69" on="0"/>
        <pt x="478" y="103" on="0"/>
        <pt x="500" y="191" on="0"/>
        <pt x="500" y="278" on="1"/>
        <pt x="500" y="573" on="1"/>
        <pt x="422" y="591" on="1"/>
        <pt x="422" y="648" on="1"/>
        <pt x="681" y="648" on="1"/>
        <pt x="681" y="591" on="1"/>
        <pt x="601" y="573" on="1"/>
        <pt x="601" y="278" on="1"/>
        <pt x="601" y="123" on="0"/>
        <pt x="482" y="-18" on="0"/>
        <pt x="352" y="-18" on="1"/>
        <pt x="249" y="-18" on="0"/>
        <pt x="133" y="39" on="0"/>
        <pt x="83" y="166" on="0"/>
        <pt x="83" y="278" on="1"/>
        <pt x="83" y="573" on="1"/>
      </contour>
    </TTGlyph>
    <TTGlyph name="Ugrave" xMin="3" yMin="-18" xMax="681" yMax="844">
      <contour>
        <pt x="229" y="761" on="0"/>
        <pt x="229" y="774" on="1"/>
        <pt x="229" y="810" on="0"/>
        <pt x="266" y="844" on="0"/>
        <pt x="285" y="844" on="1"/>
        <pt x="297" y="844" on="0"/>
        <pt x="331" y="823" on="0"/>
        <pt x="337" y="820" on="1"/>
        <pt x="480" y="721" on="1"/>
        <pt x="455" y="671" on="1"/>
        <pt x="235" y="739" on="1"/>
      </contour>
      <contour>
        <pt x="3" y="592" on="1"/>
        <pt x="3" y="648" on="1"/>
        <pt x="299" y="648" on="1"/>
        <pt x="299" y="592" on="1"/>
        <pt x="225" y="573" on="1"/>
        <pt x="225" y="278" on="1"/>
        <pt x="225" y="190" on="0"/>
        <pt x="252" y="101" on="0"/>
        <pt x="313" y="69" on="0"/>
        <pt x="371" y="69" on="1"/>
        <pt x="423" y="69" on="0"/>
        <pt x="478" y="103" on="0"/>
        <pt x="500" y="191" on="0"/>
        <pt x="500" y="278" on="1"/>
        <pt x="500" y="573" on="1"/>
        <pt x="422" y="591" on="1"/>
        <pt x="422" y="648" on="1"/>
        <pt x="681" y="648" on="1"/>
        <pt x="681" y="591" on="1"/>
        <pt x="601" y="573" on="1"/>
        <pt x="601" y="278" on="1"/>
        <pt x="601" y="123" on="0"/>
        <pt x="482" y="-18" on="0"/>
        <pt x="352" y="-18" on="1"/>
        <pt x="249" y="-18" on="0"/>
        <pt x="133" y="39" on="0"/>
        <pt x="83" y="166" on="0"/>
        <pt x="83" y="278" on="1"/>
        <pt x="83" y="573" on="1"/>
      </contour>
    </TTGlyph>
    <TTGlyph name="Uhorn" xMin="3" yMin="-18" xMax="737" yMax="779">
      <contour>
        <pt x="737" y="685" on="0"/>
        <pt x="676" y="608" on="0"/>
        <pt x="601" y="576" on="1"/>
        <pt x="601" y="278" on="1"/>
        <pt x="601" y="172" on="0"/>
        <pt x="554" y="43" on="0"/>
        <pt x="446" y="-18" on="0"/>
        <pt x="352" y="-18" on="1"/>
        <pt x="249" y="-18" on="0"/>
        <pt x="133" y="39" on="0"/>
        <pt x="83" y="166" on="0"/>
        <pt x="83" y="278" on="1"/>
        <pt x="83" y="573" on="1"/>
        <pt x="3" y="592" on="1"/>
        <pt x="3" y="648" on="1"/>
        <pt x="299" y="648" on="1"/>
        <pt x="299" y="592" on="1"/>
        <pt x="225" y="573" on="1"/>
        <pt x="225" y="278" on="1"/>
        <pt x="225" y="190" on="0"/>
        <pt x="252" y="101" on="0"/>
        <pt x="313" y="69" on="0"/>
        <pt x="371" y="69" on="1"/>
        <pt x="421" y="69" on="0"/>
        <pt x="476" y="103" on="0"/>
        <pt x="501" y="193" on="0"/>
        <pt x="501" y="278" on="1"/>
        <pt x="501" y="573" on="1"/>
        <pt x="422" y="591" on="1"/>
        <pt x="422" y="648" on="1"/>
        <pt x="576" y="648" on="1"/>
        <pt x="608" y="648" on="0"/>
        <pt x="636" y="655" on="0"/>
        <pt x="645" y="670" on="0"/>
        <pt x="645" y="687" on="1"/>
        <pt x="645" y="697" on="0"/>
        <pt x="638" y="710" on="0"/>
        <pt x="631" y="716" on="1"/>
        <pt x="631" y="731" on="1"/>
        <pt x="704" y="779" on="1"/>
        <pt x="705" y="778" on="0"/>
        <pt x="722" y="766" on="0"/>
        <pt x="737" y="736" on="0"/>
        <pt x="737" y="718" on="1"/>
      </contour>
    </TTGlyph>
    <TTGlyph name="Uhungarumlaut" xMin="3" yMin="-18" xMax="681" yMax="855">
      <contour>
        <pt x="274" y="824" on="1"/>
        <pt x="287" y="839" on="0"/>
        <pt x="309" y="855" on="0"/>
        <pt x="323" y="855" on="1"/>
        <pt x="343" y="855" on="0"/>
        <pt x="375" y="816" on="0"/>
        <pt x="379" y="782" on="1"/>
        <pt x="210" y="671" on="1"/>
        <pt x="175" y="713" on="1"/>
      </contour>
      <contour>
        <pt x="464" y="824" on="1"/>
        <pt x="477" y="839" on="0"/>
        <pt x="499" y="855" on="0"/>
        <pt x="513" y="855" on="1"/>
        <pt x="533" y="855" on="0"/>
        <pt x="565" y="816" on="0"/>
        <pt x="569" y="782" on="1"/>
        <pt x="400" y="671" on="1"/>
        <pt x="365" y="713" on="1"/>
      </contour>
      <contour>
        <pt x="3" y="592" on="1"/>
        <pt x="3" y="648" on="1"/>
        <pt x="299" y="648" on="1"/>
        <pt x="299" y="592" on="1"/>
        <pt x="225" y="573" on="1"/>
        <pt x="225" y="278" on="1"/>
        <pt x="225" y="190" on="0"/>
        <pt x="252" y="101" on="0"/>
        <pt x="313" y="69" on="0"/>
        <pt x="371" y="69" on="1"/>
        <pt x="423" y="69" on="0"/>
        <pt x="477" y="103" on="0"/>
        <pt x="498" y="191" on="0"/>
        <pt x="499" y="278" on="1"/>
        <pt x="501" y="573" on="1"/>
        <pt x="422" y="591" on="1"/>
        <pt x="422" y="648" on="1"/>
        <pt x="681" y="648" on="1"/>
        <pt x="681" y="591" on="1"/>
        <pt x="601" y="573" on="1"/>
        <pt x="601" y="278" on="1"/>
        <pt x="601" y="123" on="0"/>
        <pt x="482" y="-18" on="0"/>
        <pt x="352" y="-18" on="1"/>
        <pt x="249" y="-18" on="0"/>
        <pt x="133" y="39" on="0"/>
        <pt x="83" y="166" on="0"/>
        <pt x="83" y="278" on="1"/>
        <pt x="83" y="573" on="1"/>
      </contour>
    </TTGlyph>
    <TTGlyph name="Umacron" xMin="3" yMin="-18" xMax="681" yMax="806">
      <contour>
        <pt x="538" y="806" on="1"/>
        <pt x="525" y="723" on="1"/>
        <pt x="179" y="723" on="1"/>
        <pt x="192" y="806" on="1"/>
      </contour>
      <contour>
        <pt x="3" y="592" on="1"/>
        <pt x="3" y="648" on="1"/>
        <pt x="299" y="648" on="1"/>
        <pt x="299" y="592" on="1"/>
        <pt x="225" y="573" on="1"/>
        <pt x="225" y="278" on="1"/>
        <pt x="225" y="190" on="0"/>
        <pt x="252" y="101" on="0"/>
        <pt x="313" y="69" on="0"/>
        <pt x="371" y="69" on="1"/>
        <pt x="423" y="69" on="0"/>
        <pt x="477" y="103" on="0"/>
        <pt x="498" y="191" on="0"/>
        <pt x="499" y="278" on="1"/>
        <pt x="501" y="573" on="1"/>
        <pt x="422" y="591" on="1"/>
        <pt x="422" y="648" on="1"/>
        <pt x="681" y="648" on="1"/>
        <pt x="681" y="591" on="1"/>
        <pt x="601" y="573" on="1"/>
        <pt x="601" y="278" on="1"/>
        <pt x="601" y="123" on="0"/>
        <pt x="482" y="-18" on="0"/>
        <pt x="352" y="-18" on="1"/>
        <pt x="249" y="-18" on="0"/>
        <pt x="133" y="39" on="0"/>
        <pt x="83" y="166" on="0"/>
        <pt x="83" y="278" on="1"/>
        <pt x="83" y="573" on="1"/>
      </contour>
    </TTGlyph>
    <TTGlyph name="Uogonek" xMin="3" yMin="-187" xMax="681" yMax="648">
      <contour>
        <pt x="3" y="592" on="1"/>
        <pt x="3" y="648" on="1"/>
        <pt x="299" y="648" on="1"/>
        <pt x="299" y="592" on="1"/>
        <pt x="225" y="573" on="1"/>
        <pt x="225" y="278" on="1"/>
        <pt x="225" y="190" on="0"/>
        <pt x="252" y="101" on="0"/>
        <pt x="313" y="69" on="0"/>
        <pt x="371" y="69" on="1"/>
        <pt x="423" y="69" on="0"/>
        <pt x="477" y="103" on="0"/>
        <pt x="498" y="191" on="0"/>
        <pt x="499" y="278" on="1"/>
        <pt x="501" y="573" on="1"/>
        <pt x="422" y="591" on="1"/>
        <pt x="422" y="648" on="1"/>
        <pt x="681" y="648" on="1"/>
        <pt x="681" y="591" on="1"/>
        <pt x="601" y="573" on="1"/>
        <pt x="601" y="278" on="1"/>
        <pt x="601" y="176" on="0"/>
        <pt x="551" y="48" on="0"/>
        <pt x="499" y="16" on="1"/>
        <pt x="505" y="16" on="1"/>
        <pt x="505" y="17" on="0"/>
        <pt x="466" y="-16" on="0"/>
        <pt x="434" y="-59" on="0"/>
        <pt x="434" y="-81" on="1"/>
        <pt x="434" y="-115" on="0"/>
        <pt x="469" y="-115" on="1"/>
        <pt x="488" y="-115" on="0"/>
        <pt x="521" y="-95" on="1"/>
        <pt x="545" y="-136" on="1"/>
        <pt x="545" y="-138" on="0"/>
        <pt x="515" y="-164" on="0"/>
        <pt x="467" y="-187" on="0"/>
        <pt x="438" y="-187" on="1"/>
        <pt x="394" y="-187" on="0"/>
        <pt x="341" y="-149" on="0"/>
        <pt x="341" y="-113" on="1"/>
        <pt x="341" y="-60" on="0"/>
        <pt x="394" y="-16" on="1"/>
        <pt x="368" y="-18" on="0"/>
        <pt x="352" y="-18" on="1"/>
        <pt x="249" y="-18" on="0"/>
        <pt x="133" y="39" on="0"/>
        <pt x="83" y="166" on="0"/>
        <pt x="83" y="278" on="1"/>
        <pt x="83" y="573" on="1"/>
      </contour>
    </TTGlyph>
    <TTGlyph name="Uring" xMin="3" yMin="-18" xMax="681" yMax="826">
      <contour>
        <pt x="266" y="771" on="0"/>
        <pt x="319" y="826" on="0"/>
        <pt x="373" y="826" on="1"/>
        <pt x="424" y="826" on="0"/>
        <pt x="472" y="776" on="0"/>
        <pt x="472" y="739" on="1"/>
        <pt x="472" y="701" on="0"/>
        <pt x="419" y="648" on="0"/>
        <pt x="366" y="648" on="1"/>
        <pt x="314" y="648" on="0"/>
        <pt x="266" y="696" on="0"/>
        <pt x="266" y="733" on="1"/>
      </contour>
      <contour>
        <pt x="387" y="698" on="0"/>
        <pt x="395" y="712" on="0"/>
        <pt x="395" y="732" on="1"/>
        <pt x="395" y="760" on="0"/>
        <pt x="386" y="774" on="0"/>
        <pt x="368" y="774" on="1"/>
        <pt x="351" y="774" on="0"/>
        <pt x="342" y="760" on="0"/>
        <pt x="342" y="737" on="1"/>
        <pt x="342" y="711" on="0"/>
        <pt x="353" y="698" on="0"/>
        <pt x="370" y="698" on="1"/>
      </contour>
      <contour>
        <pt x="3" y="592" on="1"/>
        <pt x="3" y="648" on="1"/>
        <pt x="299" y="648" on="1"/>
        <pt x="299" y="592" on="1"/>
        <pt x="225" y="573" on="1"/>
        <pt x="225" y="278" on="1"/>
        <pt x="225" y="190" on="0"/>
        <pt x="252" y="101" on="0"/>
        <pt x="313" y="69" on="0"/>
        <pt x="371" y="69" on="1"/>
        <pt x="423" y="69" on="0"/>
        <pt x="477" y="103" on="0"/>
        <pt x="498" y="191" on="0"/>
        <pt x="499" y="278" on="1"/>
        <pt x="501" y="573" on="1"/>
        <pt x="422" y="591" on="1"/>
        <pt x="422" y="648" on="1"/>
        <pt x="681" y="648" on="1"/>
        <pt x="681" y="591" on="1"/>
        <pt x="601" y="573" on="1"/>
        <pt x="601" y="278" on="1"/>
        <pt x="601" y="123" on="0"/>
        <pt x="482" y="-18" on="0"/>
        <pt x="352" y="-18" on="1"/>
        <pt x="249" y="-18" on="0"/>
        <pt x="133" y="39" on="0"/>
        <pt x="83" y="166" on="0"/>
        <pt x="83" y="278" on="1"/>
        <pt x="83" y="573" on="1"/>
      </contour>
    </TTGlyph>
    <TTGlyph name="Utilde" xMin="3" yMin="-18" xMax="681" yMax="844">
      <component glyphName=".ttfautohint" x="3" y="0" flags="0x0"/>
      <component glyphName="U" x="0" y="0" flags="0x0"/>
      <component glyphName="tildecomb.case" x="536" y="0" flags="0x0"/>
    </TTGlyph>
    <TTGlyph name="V" xMin="-13" yMin="-12" xMax="645" yMax="648">
      <contour>
        <pt x="-13" y="587" on="1"/>
        <pt x="-13" y="648" on="1"/>
        <pt x="297" y="648" on="1"/>
        <pt x="297" y="586" on="1"/>
        <pt x="218" y="574" on="1"/>
        <pt x="218" y="566" on="1"/>
        <pt x="339" y="173" on="1"/>
        <pt x="342" y="146" on="1"/>
        <pt x="347" y="146" on="1"/>
        <pt x="351" y="173" on="1"/>
        <pt x="482" y="574" on="1"/>
        <pt x="399" y="586" on="1"/>
        <pt x="399" y="648" on="1"/>
        <pt x="645" y="648" on="1"/>
        <pt x="645" y="586" on="1"/>
        <pt x="579" y="574" on="1"/>
        <pt x="380" y="-12" on="1"/>
        <pt x="270" y="-12" on="1"/>
        <pt x="55" y="574" on="1"/>
      </contour>
    </TTGlyph>
    <TTGlyph name="W" xMin="-13" yMin="-12" xMax="1031" yMax="648">
      <contour>
        <pt x="-13" y="587" on="1"/>
        <pt x="-13" y="648" on="1"/>
        <pt x="288" y="648" on="1"/>
        <pt x="288" y="586" on="1"/>
        <pt x="206" y="574" on="1"/>
        <pt x="301" y="174" on="1"/>
        <pt x="303" y="150" on="1"/>
        <pt x="308" y="150" on="1"/>
        <pt x="312" y="174" on="1"/>
        <pt x="452" y="648" on="1"/>
        <pt x="603" y="648" on="1"/>
        <pt x="752" y="174" on="1"/>
        <pt x="754" y="150" on="1"/>
        <pt x="759" y="150" on="1"/>
        <pt x="763" y="174" on="1"/>
        <pt x="861" y="574" on="1"/>
        <pt x="775" y="586" on="1"/>
        <pt x="775" y="648" on="1"/>
        <pt x="1031" y="648" on="1"/>
        <pt x="1031" y="586" on="1"/>
        <pt x="967" y="574" on="1"/>
        <pt x="804" y="-12" on="1"/>
        <pt x="676" y="-12" on="1"/>
        <pt x="518" y="473" on="1"/>
        <pt x="514" y="497" on="1"/>
        <pt x="509" y="497" on="1"/>
        <pt x="507" y="473" on="1"/>
        <pt x="354" y="-12" on="1"/>
        <pt x="226" y="-12" on="1"/>
        <pt x="53" y="574" on="1"/>
      </contour>
    </TTGlyph>
    <TTGlyph name="Wacute" xMin="-13" yMin="-12" xMax="1031" yMax="844">
      <component glyphName=".ttfautohint" x="0" y="0" flags="0x0"/>
      <component glyphName="W" x="0" y="0" flags="0x0"/>
      <component glyphName="acutecomb.case" x="680" y="0" flags="0x0"/>
    </TTGlyph>
    <TTGlyph name="Wcircumflex" xMin="-13" yMin="-12" xMax="1031" yMax="844">
      <component glyphName=".ttfautohint" x="0" y="0" flags="0x0"/>
      <component glyphName="W" x="0" y="0" flags="0x0"/>
      <component glyphName="uni0302.case" x="678" y="0" flags="0x0"/>
    </TTGlyph>
    <TTGlyph name="Wdieresis" xMin="-13" yMin="-12" xMax="1031" yMax="847">
      <component glyphName=".ttfautohint" x="0" y="0" flags="0x0"/>
      <component glyphName="W" x="0" y="0" flags="0x0"/>
      <component glyphName="uni0308.case" x="702" y="0" flags="0x0"/>
    </TTGlyph>
    <TTGlyph name="Wgrave" xMin="-13" yMin="-12" xMax="1031" yMax="844">
      <component glyphName=".ttfautohint" x="0" y="0" flags="0x0"/>
      <component glyphName="W" x="0" y="0" flags="0x0"/>
      <component glyphName="gravecomb.case" x="580" y="0" flags="0x0"/>
    </TTGlyph>
    <TTGlyph name="X" xMin="-3" yMin="0" xMax="645" yMax="648">
      <contour>
        <pt x="81" y="74" on="1"/>
        <pt x="252" y="313" on="1"/>
        <pt x="79" y="575" on="1"/>
        <pt x="7" y="592" on="1"/>
        <pt x="7" y="648" on="1"/>
        <pt x="318" y="648" on="1"/>
        <pt x="318" y="592" on="1"/>
        <pt x="251" y="576" on="1"/>
        <pt x="251" y="562" on="1"/>
        <pt x="346" y="418" on="1"/>
        <pt x="458" y="567" on="1"/>
        <pt x="458" y="577" on="1"/>
        <pt x="391" y="592" on="1"/>
        <pt x="391" y="648" on="1"/>
        <pt x="636" y="648" on="1"/>
        <pt x="636" y="592" on="1"/>
        <pt x="563" y="573" on="1"/>
        <pt x="393" y="347" on="1"/>
        <pt x="573" y="73" on="1"/>
        <pt x="645" y="56" on="1"/>
        <pt x="645" y="0" on="1"/>
        <pt x="342" y="0" on="1"/>
        <pt x="342" y="56" on="1"/>
        <pt x="405" y="71" on="1"/>
        <pt x="405" y="83" on="1"/>
        <pt x="300" y="241" on="1"/>
        <pt x="186" y="82" on="1"/>
        <pt x="186" y="70" on="1"/>
        <pt x="242" y="56" on="1"/>
        <pt x="242" y="0" on="1"/>
        <pt x="-3" y="0" on="1"/>
        <pt x="-3" y="56" on="1"/>
      </contour>
    </TTGlyph>
    <TTGlyph name="Y" xMin="-11" yMin="0" xMax="632" yMax="648">
      <contour>
        <pt x="242" y="75" on="1"/>
        <pt x="242" y="249" on="1"/>
        <pt x="54" y="576" on="1"/>
        <pt x="-11" y="592" on="1"/>
        <pt x="-11" y="648" on="1"/>
        <pt x="266" y="648" on="1"/>
        <pt x="266" y="592" on="1"/>
        <pt x="203" y="577" on="1"/>
        <pt x="203" y="562" on="1"/>
        <pt x="324" y="332" on="1"/>
        <pt x="334" y="332" on="1"/>
        <pt x="456" y="568" on="1"/>
        <pt x="456" y="576" on="1"/>
        <pt x="385" y="592" on="1"/>
        <pt x="385" y="648" on="1"/>
        <pt x="632" y="648" on="1"/>
        <pt x="632" y="592" on="1"/>
        <pt x="560" y="574" on="1"/>
        <pt x="384" y="249" on="1"/>
        <pt x="384" y="75" on="1"/>
        <pt x="464" y="56" on="1"/>
        <pt x="464" y="0" on="1"/>
        <pt x="162" y="0" on="1"/>
        <pt x="162" y="56" on="1"/>
      </contour>
    </TTGlyph>
    <TTGlyph name="Y.loclGUA" xMin="3" yMin="-18" xMax="681" yMax="648">
      <contour>
        <pt x="681" y="648" on="1"/>
        <pt x="681" y="592" on="1"/>
        <pt x="601" y="573" on="1"/>
        <pt x="601" y="250" on="1"/>
        <pt x="601" y="170" on="0"/>
        <pt x="557" y="54" on="0"/>
        <pt x="435" y="-18" on="0"/>
        <pt x="324" y="-18" on="1"/>
        <pt x="251" y="-18" on="0"/>
        <pt x="126" y="11" on="0"/>
        <pt x="92" y="30" on="1"/>
        <pt x="92" y="208" on="1"/>
        <pt x="162" y="208" on="1"/>
        <pt x="188" y="87" on="1"/>
        <pt x="210" y="77" on="0"/>
        <pt x="276" y="65" on="0"/>
        <pt x="311" y="65" on="1"/>
        <pt x="369" y="65" on="0"/>
        <pt x="433" y="102" on="0"/>
        <pt x="457" y="172" on="0"/>
        <pt x="459" y="230" on="1"/>
        <pt x="407" y="215" on="0"/>
        <pt x="346" y="215" on="1"/>
        <pt x="247" y="215" on="0"/>
        <pt x="132" y="273" on="0"/>
        <pt x="83" y="394" on="0"/>
        <pt x="83" y="494" on="1"/>
        <pt x="83" y="573" on="1"/>
        <pt x="3" y="592" on="1"/>
        <pt x="3" y="648" on="1"/>
        <pt x="299" y="648" on="1"/>
        <pt x="299" y="592" on="1"/>
        <pt x="225" y="573" on="1"/>
        <pt x="225" y="494" on="1"/>
        <pt x="225" y="427" on="0"/>
        <pt x="245" y="345" on="0"/>
        <pt x="303" y="302" on="0"/>
        <pt x="358" y="302" on="1"/>
        <pt x="408" y="302" on="0"/>
        <pt x="459" y="322" on="1"/>
        <pt x="459" y="573" on="1"/>
        <pt x="379" y="592" on="1"/>
        <pt x="379" y="648" on="1"/>
      </contour>
    </TTGlyph>
    <TTGlyph name="Yacute" xMin="-11" yMin="0" xMax="632" yMax="844">
      <contour>
        <pt x="343" y="820" on="1"/>
        <pt x="349" y="823" on="0"/>
        <pt x="383" y="844" on="0"/>
        <pt x="395" y="844" on="1"/>
        <pt x="414" y="844" on="0"/>
        <pt x="451" y="810" on="0"/>
        <pt x="451" y="774" on="1"/>
        <pt x="451" y="761" on="0"/>
        <pt x="445" y="739" on="1"/>
        <pt x="225" y="671" on="1"/>
        <pt x="200" y="721" on="1"/>
      </contour>
      <contour>
        <pt x="242" y="75" on="1"/>
        <pt x="242" y="249" on="1"/>
        <pt x="54" y="576" on="1"/>
        <pt x="-11" y="592" on="1"/>
        <pt x="-11" y="648" on="1"/>
        <pt x="266" y="648" on="1"/>
        <pt x="266" y="592" on="1"/>
        <pt x="203" y="577" on="1"/>
        <pt x="203" y="562" on="1"/>
        <pt x="324" y="332" on="1"/>
        <pt x="334" y="332" on="1"/>
        <pt x="456" y="568" on="1"/>
        <pt x="456" y="576" on="1"/>
        <pt x="385" y="592" on="1"/>
        <pt x="385" y="648" on="1"/>
        <pt x="632" y="648" on="1"/>
        <pt x="632" y="592" on="1"/>
        <pt x="560" y="574" on="1"/>
        <pt x="384" y="249" on="1"/>
        <pt x="384" y="75" on="1"/>
        <pt x="464" y="56" on="1"/>
        <pt x="464" y="0" on="1"/>
        <pt x="162" y="0" on="1"/>
        <pt x="162" y="56" on="1"/>
      </contour>
    </TTGlyph>
    <TTGlyph name="Yacute.loclGUA" xMin="3" yMin="-18" xMax="681" yMax="844">
      <component glyphName=".ttfautohint" x="3" y="0" flags="0x0"/>
      <component glyphName="Y.loclGUA" x="0" y="0" flags="0x0"/>
      <component glyphName="acutecomb.case" x="517" y="0" flags="0x0"/>
    </TTGlyph>
    <TTGlyph name="Ycircumflex" xMin="-11" yMin="0" xMax="632" yMax="844">
      <component glyphName=".ttfautohint" x="0" y="0" flags="0x0"/>
      <component glyphName="Y" x="0" y="0" flags="0x0"/>
      <component glyphName="uni0302.case" x="499" y="0" flags="0x0"/>
    </TTGlyph>
    <TTGlyph name="Ycircumflex.loclGUA" xMin="3" yMin="-18" xMax="681" yMax="844">
      <component glyphName=".ttfautohint" x="3" y="0" flags="0x0"/>
      <component glyphName="Y.loclGUA" x="0" y="0" flags="0x0"/>
      <component glyphName="uni0302.case" x="515" y="0" flags="0x0"/>
    </TTGlyph>
    <TTGlyph name="Ydieresis" xMin="-11" yMin="0" xMax="632" yMax="847">
      <contour>
        <pt x="153" y="695" on="0"/>
        <pt x="113" y="736" on="0"/>
        <pt x="113" y="768" on="1"/>
        <pt x="113" y="800" on="0"/>
        <pt x="159" y="847" on="0"/>
        <pt x="191" y="847" on="1"/>
        <pt x="222" y="847" on="0"/>
        <pt x="262" y="808" on="0"/>
        <pt x="262" y="775" on="1"/>
        <pt x="262" y="742" on="0"/>
        <pt x="218" y="695" on="0"/>
        <pt x="183" y="695" on="1"/>
      </contour>
      <contour>
        <pt x="398" y="695" on="0"/>
        <pt x="358" y="736" on="0"/>
        <pt x="358" y="768" on="1"/>
        <pt x="358" y="800" on="0"/>
        <pt x="404" y="847" on="0"/>
        <pt x="436" y="847" on="1"/>
        <pt x="467" y="847" on="0"/>
        <pt x="507" y="808" on="0"/>
        <pt x="507" y="775" on="1"/>
        <pt x="507" y="742" on="0"/>
        <pt x="463" y="695" on="0"/>
        <pt x="428" y="695" on="1"/>
      </contour>
      <contour>
        <pt x="242" y="75" on="1"/>
        <pt x="242" y="249" on="1"/>
        <pt x="54" y="576" on="1"/>
        <pt x="-11" y="592" on="1"/>
        <pt x="-11" y="648" on="1"/>
        <pt x="266" y="648" on="1"/>
        <pt x="266" y="592" on="1"/>
        <pt x="203" y="577" on="1"/>
        <pt x="203" y="562" on="1"/>
        <pt x="324" y="332" on="1"/>
        <pt x="334" y="332" on="1"/>
        <pt x="456" y="568" on="1"/>
        <pt x="456" y="576" on="1"/>
        <pt x="385" y="592" on="1"/>
        <pt x="385" y="648" on="1"/>
        <pt x="632" y="648" on="1"/>
        <pt x="632" y="592" on="1"/>
        <pt x="560" y="574" on="1"/>
        <pt x="384" y="249" on="1"/>
        <pt x="384" y="75" on="1"/>
        <pt x="464" y="56" on="1"/>
        <pt x="464" y="0" on="1"/>
        <pt x="162" y="0" on="1"/>
        <pt x="162" y="56" on="1"/>
      </contour>
    </TTGlyph>
    <TTGlyph name="Ydieresis.loclGUA" xMin="3" yMin="-18" xMax="681" yMax="847">
      <component glyphName=".ttfautohint" x="3" y="0" flags="0x0"/>
      <component glyphName="Y.loclGUA" x="0" y="0" flags="0x0"/>
      <component glyphName="uni0308.case" x="539" y="0" flags="0x0"/>
    </TTGlyph>
    <TTGlyph name="Ygrave" xMin="-11" yMin="0" xMax="632" yMax="844">
      <component glyphName=".ttfautohint" x="0" y="0" flags="0x0"/>
      <component glyphName="Y" x="0" y="0" flags="0x0"/>
      <component glyphName="gravecomb.case" x="401" y="0" flags="0x0"/>
    </TTGlyph>
    <TTGlyph name="Ygrave.loclGUA" xMin="3" yMin="-18" xMax="681" yMax="844">
      <component glyphName=".ttfautohint" x="3" y="0" flags="0x0"/>
      <component glyphName="Y.loclGUA" x="0" y="0" flags="0x0"/>
      <component glyphName="gravecomb.case" x="417" y="0" flags="0x0"/>
    </TTGlyph>
    <TTGlyph name="Z" xMin="5" yMin="0" xMax="513" yMax="648">
      <contour>
        <pt x="337" y="559" on="1"/>
        <pt x="337" y="572" on="1"/>
        <pt x="104" y="572" on="1"/>
        <pt x="84" y="470" on="1"/>
        <pt x="14" y="470" on="1"/>
        <pt x="14" y="648" on="1"/>
        <pt x="507" y="648" on="1"/>
        <pt x="507" y="572" on="1"/>
        <pt x="175" y="87" on="1"/>
        <pt x="175" y="76" on="1"/>
        <pt x="422" y="76" on="1"/>
        <pt x="443" y="178" on="1"/>
        <pt x="513" y="178" on="1"/>
        <pt x="513" y="0" on="1"/>
        <pt x="5" y="0" on="1"/>
        <pt x="5" y="76" on="1"/>
      </contour>
    </TTGlyph>
    <TTGlyph name="Zacute" xMin="5" yMin="0" xMax="514" yMax="844">
      <contour>
        <pt x="278" y="820" on="1"/>
        <pt x="284" y="823" on="0"/>
        <pt x="318" y="844" on="0"/>
        <pt x="330" y="844" on="1"/>
        <pt x="349" y="844" on="0"/>
        <pt x="386" y="810" on="0"/>
        <pt x="386" y="774" on="1"/>
        <pt x="386" y="761" on="0"/>
        <pt x="380" y="739" on="1"/>
        <pt x="160" y="671" on="1"/>
        <pt x="135" y="721" on="1"/>
      </contour>
      <contour>
        <pt x="338" y="559" on="1"/>
        <pt x="338" y="572" on="1"/>
        <pt x="105" y="572" on="1"/>
        <pt x="85" y="470" on="1"/>
        <pt x="15" y="470" on="1"/>
        <pt x="15" y="648" on="1"/>
        <pt x="508" y="648" on="1"/>
        <pt x="508" y="572" on="1"/>
        <pt x="176" y="87" on="1"/>
        <pt x="176" y="76" on="1"/>
        <pt x="423" y="76" on="1"/>
        <pt x="444" y="178" on="1"/>
        <pt x="514" y="178" on="1"/>
        <pt x="514" y="0" on="1"/>
        <pt x="5" y="0" on="1"/>
        <pt x="6" y="76" on="1"/>
      </contour>
    </TTGlyph>
    <TTGlyph name="Zacute.loclPLK" xMin="5" yMin="0" xMax="513" yMax="873">
      <contour>
        <pt x="295" y="827" on="1"/>
        <pt x="299" y="832" on="0"/>
        <pt x="319" y="861" on="0"/>
        <pt x="339" y="873" on="0"/>
        <pt x="352" y="873" on="1"/>
        <pt x="369" y="873" on="0"/>
        <pt x="401" y="852" on="0"/>
        <pt x="412" y="827" on="1"/>
        <pt x="416" y="818" on="0"/>
        <pt x="421" y="793" on="1"/>
        <pt x="274" y="667" on="1"/>
        <pt x="224" y="713" on="1"/>
      </contour>
      <contour>
        <pt x="337" y="559" on="1"/>
        <pt x="337" y="572" on="1"/>
        <pt x="104" y="572" on="1"/>
        <pt x="84" y="470" on="1"/>
        <pt x="14" y="470" on="1"/>
        <pt x="14" y="648" on="1"/>
        <pt x="507" y="648" on="1"/>
        <pt x="507" y="572" on="1"/>
        <pt x="175" y="87" on="1"/>
        <pt x="175" y="76" on="1"/>
        <pt x="422" y="76" on="1"/>
        <pt x="443" y="178" on="1"/>
        <pt x="513" y="178" on="1"/>
        <pt x="513" y="0" on="1"/>
        <pt x="5" y="0" on="1"/>
        <pt x="5" y="76" on="1"/>
      </contour>
    </TTGlyph>
    <TTGlyph name="Zcaron" xMin="5" yMin="0" xMax="514" yMax="871">
      <contour>
        <pt x="265" y="796" on="1"/>
        <pt x="382" y="871" on="1"/>
        <pt x="414" y="829" on="1"/>
        <pt x="316" y="734" on="1"/>
        <pt x="292" y="710" on="0"/>
        <pt x="265" y="690" on="0"/>
        <pt x="257" y="690" on="1"/>
        <pt x="249" y="690" on="0"/>
        <pt x="222" y="710" on="0"/>
        <pt x="198" y="734" on="1"/>
        <pt x="107" y="822" on="1"/>
        <pt x="150" y="871" on="1"/>
      </contour>
      <contour>
        <pt x="338" y="559" on="1"/>
        <pt x="338" y="572" on="1"/>
        <pt x="105" y="572" on="1"/>
        <pt x="85" y="470" on="1"/>
        <pt x="15" y="470" on="1"/>
        <pt x="15" y="648" on="1"/>
        <pt x="508" y="648" on="1"/>
        <pt x="508" y="572" on="1"/>
        <pt x="176" y="87" on="1"/>
        <pt x="176" y="76" on="1"/>
        <pt x="423" y="76" on="1"/>
        <pt x="444" y="178" on="1"/>
        <pt x="514" y="178" on="1"/>
        <pt x="514" y="0" on="1"/>
        <pt x="5" y="0" on="1"/>
        <pt x="6" y="76" on="1"/>
      </contour>
    </TTGlyph>
    <TTGlyph name="Zdotaccent" xMin="5" yMin="0" xMax="514" yMax="857">
      <contour>
        <pt x="223" y="691" on="0"/>
        <pt x="179" y="736" on="0"/>
        <pt x="179" y="771" on="1"/>
        <pt x="179" y="806" on="0"/>
        <pt x="229" y="857" on="0"/>
        <pt x="264" y="857" on="1"/>
        <pt x="298" y="857" on="0"/>
        <pt x="342" y="815" on="0"/>
        <pt x="342" y="779" on="1"/>
        <pt x="342" y="743" on="0"/>
        <pt x="294" y="691" on="0"/>
        <pt x="256" y="691" on="1"/>
      </contour>
      <contour>
        <pt x="338" y="559" on="1"/>
        <pt x="338" y="572" on="1"/>
        <pt x="105" y="572" on="1"/>
        <pt x="85" y="470" on="1"/>
        <pt x="15" y="470" on="1"/>
        <pt x="15" y="648" on="1"/>
        <pt x="508" y="648" on="1"/>
        <pt x="508" y="572" on="1"/>
        <pt x="176" y="87" on="1"/>
        <pt x="176" y="76" on="1"/>
        <pt x="423" y="76" on="1"/>
        <pt x="444" y="178" on="1"/>
        <pt x="514" y="178" on="1"/>
        <pt x="514" y="0" on="1"/>
        <pt x="5" y="0" on="1"/>
        <pt x="6" y="76" on="1"/>
      </contour>
    </TTGlyph>
    <TTGlyph name="a" xMin="33" yMin="-12" xMax="512" yMax="509">
      <contour>
        <pt x="293" y="23" on="0"/>
        <pt x="225" y="-12" on="0"/>
        <pt x="179" y="-12" on="1"/>
        <pt x="106" y="-12" on="0"/>
        <pt x="33" y="62" on="0"/>
        <pt x="33" y="118" on="1"/>
        <pt x="33" y="181" on="0"/>
        <pt x="125" y="254" on="0"/>
        <pt x="200" y="266" on="1"/>
        <pt x="307" y="284" on="1"/>
        <pt x="307" y="350" on="1"/>
        <pt x="307" y="389" on="0"/>
        <pt x="277" y="426" on="0"/>
        <pt x="233" y="426" on="1"/>
        <pt x="211" y="426" on="0"/>
        <pt x="189" y="422" on="0"/>
        <pt x="187" y="421" on="1"/>
        <pt x="173" y="330" on="1"/>
        <pt x="169" y="328" on="0"/>
        <pt x="138" y="320" on="0"/>
        <pt x="120" y="320" on="1"/>
        <pt x="85" y="320" on="0"/>
        <pt x="51" y="347" on="0"/>
        <pt x="51" y="379" on="1"/>
        <pt x="51" y="421" on="0"/>
        <pt x="120" y="480" on="0"/>
        <pt x="220" y="509" on="0"/>
        <pt x="266" y="509" on="1"/>
        <pt x="354" y="509" on="0"/>
        <pt x="439" y="447" on="0"/>
        <pt x="439" y="373" on="1"/>
        <pt x="439" y="81" on="1"/>
        <pt x="512" y="67" on="1"/>
        <pt x="512" y="16" on="1"/>
        <pt x="507" y="14" on="0"/>
        <pt x="474" y="4" on="0"/>
        <pt x="424" y="-6" on="0"/>
        <pt x="400" y="-6" on="1"/>
        <pt x="361" y="-6" on="0"/>
        <pt x="328" y="17" on="0"/>
        <pt x="320" y="41" on="1"/>
        <pt x="311" y="41" on="1"/>
      </contour>
      <contour>
        <pt x="251" y="210" on="0"/>
        <pt x="193" y="188" on="0"/>
        <pt x="174" y="158" on="0"/>
        <pt x="174" y="135" on="1"/>
        <pt x="174" y="74" on="0"/>
        <pt x="248" y="74" on="1"/>
        <pt x="275" y="74" on="0"/>
        <pt x="307" y="91" on="1"/>
        <pt x="307" y="215" on="1"/>
      </contour>
    </TTGlyph>
    <TTGlyph name="aacute" xMin="33" yMin="-12" xMax="512" yMax="731">
      <contour>
        <pt x="256" y="693" on="1"/>
        <pt x="271" y="711" on="0"/>
        <pt x="296" y="731" on="0"/>
        <pt x="310" y="731" on="1"/>
        <pt x="323" y="731" on="0"/>
        <pt x="352" y="710" on="0"/>
        <pt x="372" y="670" on="0"/>
        <pt x="372" y="644" on="1"/>
        <pt x="196" y="535" on="1"/>
        <pt x="160" y="578" on="1"/>
      </contour>
      <contour>
        <pt x="293" y="23" on="0"/>
        <pt x="225" y="-12" on="0"/>
        <pt x="179" y="-12" on="1"/>
        <pt x="106" y="-12" on="0"/>
        <pt x="33" y="62" on="0"/>
        <pt x="33" y="118" on="1"/>
        <pt x="33" y="181" on="0"/>
        <pt x="125" y="254" on="0"/>
        <pt x="200" y="266" on="1"/>
        <pt x="307" y="284" on="1"/>
        <pt x="307" y="350" on="1"/>
        <pt x="307" y="389" on="0"/>
        <pt x="277" y="426" on="0"/>
        <pt x="233" y="426" on="1"/>
        <pt x="211" y="426" on="0"/>
        <pt x="189" y="422" on="0"/>
        <pt x="187" y="421" on="1"/>
        <pt x="173" y="330" on="1"/>
        <pt x="169" y="328" on="0"/>
        <pt x="138" y="320" on="0"/>
        <pt x="120" y="320" on="1"/>
        <pt x="85" y="320" on="0"/>
        <pt x="51" y="347" on="0"/>
        <pt x="51" y="379" on="1"/>
        <pt x="51" y="421" on="0"/>
        <pt x="120" y="480" on="0"/>
        <pt x="220" y="509" on="0"/>
        <pt x="266" y="509" on="1"/>
        <pt x="354" y="509" on="0"/>
        <pt x="439" y="447" on="0"/>
        <pt x="439" y="373" on="1"/>
        <pt x="439" y="81" on="1"/>
        <pt x="512" y="67" on="1"/>
        <pt x="512" y="16" on="1"/>
        <pt x="507" y="14" on="0"/>
        <pt x="474" y="4" on="0"/>
        <pt x="424" y="-6" on="0"/>
        <pt x="400" y="-6" on="1"/>
        <pt x="361" y="-6" on="0"/>
        <pt x="328" y="17" on="0"/>
        <pt x="320" y="41" on="1"/>
        <pt x="311" y="41" on="1"/>
      </contour>
      <contour>
        <pt x="251" y="210" on="0"/>
        <pt x="193" y="188" on="0"/>
        <pt x="174" y="158" on="0"/>
        <pt x="174" y="135" on="1"/>
        <pt x="174" y="74" on="0"/>
        <pt x="248" y="74" on="1"/>
        <pt x="275" y="74" on="0"/>
        <pt x="307" y="91" on="1"/>
        <pt x="307" y="215" on="1"/>
      </contour>
    </TTGlyph>
    <TTGlyph name="abreve" xMin="33" yMin="-12" xMax="512" yMax="719">
      <contour>
        <pt x="159" y="714" on="0"/>
        <pt x="178" y="675" on="0"/>
        <pt x="224" y="639" on="0"/>
        <pt x="262" y="639" on="1"/>
        <pt x="301" y="639" on="0"/>
        <pt x="351" y="675" on="0"/>
        <pt x="374" y="715" on="0"/>
        <pt x="374" y="719" on="1"/>
        <pt x="415" y="702" on="1"/>
        <pt x="415" y="692" on="0"/>
        <pt x="387" y="618" on="0"/>
        <pt x="316" y="550" on="0"/>
        <pt x="256" y="550" on="1"/>
        <pt x="192" y="550" on="0"/>
        <pt x="116" y="612" on="0"/>
        <pt x="84" y="680" on="0"/>
        <pt x="84" y="689" on="1"/>
        <pt x="159" y="719" on="1"/>
      </contour>
      <contour>
        <pt x="293" y="23" on="0"/>
        <pt x="225" y="-12" on="0"/>
        <pt x="179" y="-12" on="1"/>
        <pt x="106" y="-12" on="0"/>
        <pt x="33" y="62" on="0"/>
        <pt x="33" y="118" on="1"/>
        <pt x="33" y="181" on="0"/>
        <pt x="125" y="254" on="0"/>
        <pt x="200" y="266" on="1"/>
        <pt x="307" y="284" on="1"/>
        <pt x="307" y="350" on="1"/>
        <pt x="307" y="389" on="0"/>
        <pt x="277" y="426" on="0"/>
        <pt x="233" y="426" on="1"/>
        <pt x="211" y="426" on="0"/>
        <pt x="189" y="422" on="0"/>
        <pt x="187" y="421" on="1"/>
        <pt x="173" y="330" on="1"/>
        <pt x="169" y="328" on="0"/>
        <pt x="138" y="320" on="0"/>
        <pt x="120" y="320" on="1"/>
        <pt x="85" y="320" on="0"/>
        <pt x="51" y="347" on="0"/>
        <pt x="51" y="379" on="1"/>
        <pt x="51" y="421" on="0"/>
        <pt x="120" y="480" on="0"/>
        <pt x="220" y="509" on="0"/>
        <pt x="266" y="509" on="1"/>
        <pt x="354" y="509" on="0"/>
        <pt x="439" y="447" on="0"/>
        <pt x="439" y="373" on="1"/>
        <pt x="439" y="81" on="1"/>
        <pt x="512" y="67" on="1"/>
        <pt x="512" y="16" on="1"/>
        <pt x="507" y="14" on="0"/>
        <pt x="474" y="4" on="0"/>
        <pt x="424" y="-6" on="0"/>
        <pt x="400" y="-6" on="1"/>
        <pt x="361" y="-6" on="0"/>
        <pt x="328" y="17" on="0"/>
        <pt x="320" y="41" on="1"/>
        <pt x="311" y="41" on="1"/>
      </contour>
      <contour>
        <pt x="251" y="210" on="0"/>
        <pt x="193" y="188" on="0"/>
        <pt x="174" y="158" on="0"/>
        <pt x="174" y="135" on="1"/>
        <pt x="174" y="74" on="0"/>
        <pt x="248" y="74" on="1"/>
        <pt x="275" y="74" on="0"/>
        <pt x="307" y="91" on="1"/>
        <pt x="307" y="215" on="1"/>
      </contour>
    </TTGlyph>
    <TTGlyph name="acircumflex" xMin="33" yMin="-12" xMax="512" yMax="720">
      <contour>
        <pt x="199" y="685" on="1"/>
        <pt x="216" y="702" on="0"/>
        <pt x="242" y="720" on="0"/>
        <pt x="255" y="720" on="1"/>
        <pt x="273" y="720" on="0"/>
        <pt x="300" y="693" on="1"/>
        <pt x="408" y="585" on="1"/>
        <pt x="368" y="538" on="1"/>
        <pt x="247" y="610" on="1"/>
        <pt x="130" y="539" on="1"/>
        <pt x="98" y="581" on="1"/>
      </contour>
      <contour>
        <pt x="293" y="23" on="0"/>
        <pt x="225" y="-12" on="0"/>
        <pt x="179" y="-12" on="1"/>
        <pt x="106" y="-12" on="0"/>
        <pt x="33" y="62" on="0"/>
        <pt x="33" y="118" on="1"/>
        <pt x="33" y="181" on="0"/>
        <pt x="125" y="254" on="0"/>
        <pt x="200" y="266" on="1"/>
        <pt x="307" y="284" on="1"/>
        <pt x="307" y="350" on="1"/>
        <pt x="307" y="389" on="0"/>
        <pt x="277" y="426" on="0"/>
        <pt x="233" y="426" on="1"/>
        <pt x="211" y="426" on="0"/>
        <pt x="189" y="422" on="0"/>
        <pt x="187" y="421" on="1"/>
        <pt x="173" y="330" on="1"/>
        <pt x="169" y="328" on="0"/>
        <pt x="138" y="320" on="0"/>
        <pt x="120" y="320" on="1"/>
        <pt x="85" y="320" on="0"/>
        <pt x="51" y="347" on="0"/>
        <pt x="51" y="379" on="1"/>
        <pt x="51" y="421" on="0"/>
        <pt x="120" y="480" on="0"/>
        <pt x="220" y="509" on="0"/>
        <pt x="266" y="509" on="1"/>
        <pt x="354" y="509" on="0"/>
        <pt x="439" y="447" on="0"/>
        <pt x="439" y="373" on="1"/>
        <pt x="439" y="81" on="1"/>
        <pt x="512" y="67" on="1"/>
        <pt x="512" y="16" on="1"/>
        <pt x="507" y="14" on="0"/>
        <pt x="474" y="4" on="0"/>
        <pt x="424" y="-6" on="0"/>
        <pt x="400" y="-6" on="1"/>
        <pt x="361" y="-6" on="0"/>
        <pt x="328" y="17" on="0"/>
        <pt x="320" y="41" on="1"/>
        <pt x="311" y="41" on="1"/>
      </contour>
      <contour>
        <pt x="251" y="210" on="0"/>
        <pt x="193" y="188" on="0"/>
        <pt x="174" y="158" on="0"/>
        <pt x="174" y="135" on="1"/>
        <pt x="174" y="74" on="0"/>
        <pt x="248" y="74" on="1"/>
        <pt x="275" y="74" on="0"/>
        <pt x="307" y="91" on="1"/>
        <pt x="307" y="215" on="1"/>
      </contour>
    </TTGlyph>
    <TTGlyph name="acute" xMin="0" yMin="535" xMax="212" yMax="731">
      <contour>
        <pt x="96" y="693" on="1"/>
        <pt x="110" y="710" on="0"/>
        <pt x="136" y="730" on="0"/>
        <pt x="150" y="731" on="1"/>
        <pt x="163" y="731" on="0"/>
        <pt x="192" y="710" on="0"/>
        <pt x="212" y="670" on="0"/>
        <pt x="212" y="644" on="1"/>
        <pt x="36" y="535" on="1"/>
        <pt x="0" y="578" on="1"/>
      </contour>
    </TTGlyph>
    <TTGlyph name="acutecomb" xMin="-212" yMin="535" xMax="0" yMax="731">
      <contour>
        <pt x="-116" y="693" on="1"/>
        <pt x="-102" y="710" on="0"/>
        <pt x="-76" y="730" on="0"/>
        <pt x="-62" y="731" on="1"/>
        <pt x="-49" y="731" on="0"/>
        <pt x="-20" y="710" on="0"/>
        <pt x="0" y="670" on="0"/>
        <pt x="0" y="644" on="1"/>
        <pt x="-176" y="535" on="1"/>
        <pt x="-212" y="578" on="1"/>
      </contour>
    </TTGlyph>
    <TTGlyph name="acutecomb.case" xMin="-251" yMin="671" xMax="0" yMax="844">
      <contour>
        <pt x="-108" y="820" on="1"/>
        <pt x="-102" y="823" on="0"/>
        <pt x="-68" y="844" on="0"/>
        <pt x="-56" y="844" on="1"/>
        <pt x="-37" y="844" on="0"/>
        <pt x="0" y="810" on="0"/>
        <pt x="0" y="774" on="1"/>
        <pt x="0" y="761" on="0"/>
        <pt x="-6" y="739" on="1"/>
        <pt x="-226" y="671" on="1"/>
        <pt x="-251" y="721" on="1"/>
      </contour>
    </TTGlyph>
    <TTGlyph name="adieresis" xMin="33" yMin="-12" xMax="512" yMax="713">
      <contour>
        <pt x="103" y="561" on="0"/>
        <pt x="63" y="602" on="0"/>
        <pt x="63" y="634" on="1"/>
        <pt x="63" y="666" on="0"/>
        <pt x="109" y="713" on="0"/>
        <pt x="141" y="713" on="1"/>
        <pt x="172" y="713" on="0"/>
        <pt x="212" y="674" on="0"/>
        <pt x="212" y="641" on="1"/>
        <pt x="212" y="608" on="0"/>
        <pt x="168" y="561" on="0"/>
        <pt x="133" y="561" on="1"/>
      </contour>
      <contour>
        <pt x="328" y="561" on="0"/>
        <pt x="288" y="602" on="0"/>
        <pt x="288" y="634" on="1"/>
        <pt x="288" y="666" on="0"/>
        <pt x="334" y="713" on="0"/>
        <pt x="366" y="713" on="1"/>
        <pt x="397" y="713" on="0"/>
        <pt x="437" y="674" on="0"/>
        <pt x="437" y="641" on="1"/>
        <pt x="437" y="608" on="0"/>
        <pt x="393" y="561" on="0"/>
        <pt x="358" y="561" on="1"/>
      </contour>
      <contour>
        <pt x="293" y="23" on="0"/>
        <pt x="225" y="-12" on="0"/>
        <pt x="179" y="-12" on="1"/>
        <pt x="106" y="-12" on="0"/>
        <pt x="33" y="62" on="0"/>
        <pt x="33" y="118" on="1"/>
        <pt x="33" y="181" on="0"/>
        <pt x="125" y="254" on="0"/>
        <pt x="200" y="266" on="1"/>
        <pt x="307" y="284" on="1"/>
        <pt x="307" y="350" on="1"/>
        <pt x="307" y="389" on="0"/>
        <pt x="277" y="426" on="0"/>
        <pt x="233" y="426" on="1"/>
        <pt x="211" y="426" on="0"/>
        <pt x="189" y="422" on="0"/>
        <pt x="187" y="421" on="1"/>
        <pt x="173" y="330" on="1"/>
        <pt x="169" y="328" on="0"/>
        <pt x="138" y="320" on="0"/>
        <pt x="120" y="320" on="1"/>
        <pt x="85" y="320" on="0"/>
        <pt x="51" y="347" on="0"/>
        <pt x="51" y="379" on="1"/>
        <pt x="51" y="421" on="0"/>
        <pt x="120" y="480" on="0"/>
        <pt x="220" y="509" on="0"/>
        <pt x="266" y="509" on="1"/>
        <pt x="354" y="509" on="0"/>
        <pt x="439" y="447" on="0"/>
        <pt x="439" y="373" on="1"/>
        <pt x="439" y="81" on="1"/>
        <pt x="512" y="67" on="1"/>
        <pt x="512" y="16" on="1"/>
        <pt x="507" y="14" on="0"/>
        <pt x="474" y="4" on="0"/>
        <pt x="424" y="-6" on="0"/>
        <pt x="400" y="-6" on="1"/>
        <pt x="361" y="-6" on="0"/>
        <pt x="328" y="17" on="0"/>
        <pt x="320" y="41" on="1"/>
        <pt x="311" y="41" on="1"/>
      </contour>
      <contour>
        <pt x="251" y="210" on="0"/>
        <pt x="193" y="188" on="0"/>
        <pt x="174" y="158" on="0"/>
        <pt x="174" y="135" on="1"/>
        <pt x="174" y="74" on="0"/>
        <pt x="248" y="74" on="1"/>
        <pt x="275" y="74" on="0"/>
        <pt x="307" y="91" on="1"/>
        <pt x="307" y="215" on="1"/>
      </contour>
    </TTGlyph>
    <TTGlyph name="ae" xMin="33" yMin="-12" xMax="735" yMax="509">
      <contour>
        <pt x="307" y="350" on="1"/>
        <pt x="307" y="389" on="0"/>
        <pt x="277" y="426" on="0"/>
        <pt x="233" y="426" on="1"/>
        <pt x="211" y="426" on="0"/>
        <pt x="189" y="422" on="0"/>
        <pt x="187" y="421" on="1"/>
        <pt x="173" y="330" on="1"/>
        <pt x="169" y="328" on="0"/>
        <pt x="138" y="320" on="0"/>
        <pt x="120" y="320" on="1"/>
        <pt x="85" y="320" on="0"/>
        <pt x="51" y="347" on="0"/>
        <pt x="51" y="379" on="1"/>
        <pt x="51" y="421" on="0"/>
        <pt x="120" y="480" on="0"/>
        <pt x="220" y="509" on="0"/>
        <pt x="266" y="509" on="1"/>
        <pt x="366" y="509" on="0"/>
        <pt x="406" y="470" on="1"/>
        <pt x="461" y="509" on="0"/>
        <pt x="538" y="509" on="1"/>
        <pt x="645" y="509" on="0"/>
        <pt x="735" y="390" on="0"/>
        <pt x="735" y="308" on="1"/>
        <pt x="735" y="259" on="0"/>
        <pt x="713" y="224" on="0"/>
        <pt x="688" y="224" on="1"/>
        <pt x="443" y="224" on="1"/>
        <pt x="444" y="148" on="0"/>
        <pt x="502" y="76" on="0"/>
        <pt x="575" y="76" on="1"/>
        <pt x="612" y="76" on="0"/>
        <pt x="669" y="87" on="0"/>
        <pt x="700" y="98" on="0"/>
        <pt x="704" y="100" on="1"/>
        <pt x="723" y="58" on="1"/>
        <pt x="723" y="56" on="0"/>
        <pt x="671" y="19" on="0"/>
        <pt x="590" y="-12" on="0"/>
        <pt x="542" y="-12" on="1"/>
        <pt x="479" y="-12" on="0"/>
        <pt x="390" y="16" on="0"/>
        <pt x="362" y="47" on="1"/>
        <pt x="339" y="27" on="0"/>
        <pt x="247" y="-12" on="0"/>
        <pt x="179" y="-12" on="1"/>
        <pt x="106" y="-12" on="0"/>
        <pt x="33" y="62" on="0"/>
        <pt x="33" y="118" on="1"/>
        <pt x="33" y="191" on="0"/>
        <pt x="131" y="262" on="0"/>
        <pt x="209" y="269" on="1"/>
        <pt x="307" y="277" on="1"/>
      </contour>
      <contour>
        <pt x="605" y="317" on="0"/>
        <pt x="605" y="329" on="1"/>
        <pt x="605" y="383" on="0"/>
        <pt x="580" y="426" on="0"/>
        <pt x="539" y="426" on="1"/>
        <pt x="491" y="426" on="0"/>
        <pt x="454" y="354" on="0"/>
        <pt x="451" y="287" on="1"/>
        <pt x="602" y="299" on="1"/>
      </contour>
      <contour>
        <pt x="249" y="211" on="0"/>
        <pt x="192" y="193" on="0"/>
        <pt x="174" y="163" on="0"/>
        <pt x="174" y="135" on="1"/>
        <pt x="174" y="74" on="0"/>
        <pt x="248" y="74" on="1"/>
        <pt x="276" y="74" on="0"/>
        <pt x="307" y="88" on="1"/>
        <pt x="307" y="215" on="1"/>
      </contour>
    </TTGlyph>
    <TTGlyph name="aeacute" xMin="33" yMin="-12" xMax="735" yMax="731">
      <component glyphName=".ttfautohint" x="33" y="0" flags="0x0"/>
      <component glyphName="ae" x="0" y="0" flags="0x0"/>
      <component glyphName="acutecomb" x="543" y="0" flags="0x0"/>
    </TTGlyph>
    <TTGlyph name="agrave" xMin="33" yMin="-12" xMax="512" yMax="731">
      <contour>
        <pt x="143" y="670" on="0"/>
        <pt x="163" y="710" on="0"/>
        <pt x="192" y="731" on="0"/>
        <pt x="205" y="731" on="1"/>
        <pt x="218" y="731" on="0"/>
        <pt x="243" y="711" on="0"/>
        <pt x="259" y="693" on="1"/>
        <pt x="355" y="578" on="1"/>
        <pt x="319" y="535" on="1"/>
        <pt x="143" y="644" on="1"/>
      </contour>
      <contour>
        <pt x="293" y="23" on="0"/>
        <pt x="225" y="-12" on="0"/>
        <pt x="179" y="-12" on="1"/>
        <pt x="106" y="-12" on="0"/>
        <pt x="33" y="62" on="0"/>
        <pt x="33" y="118" on="1"/>
        <pt x="33" y="181" on="0"/>
        <pt x="125" y="254" on="0"/>
        <pt x="200" y="266" on="1"/>
        <pt x="307" y="284" on="1"/>
        <pt x="307" y="350" on="1"/>
        <pt x="307" y="389" on="0"/>
        <pt x="277" y="426" on="0"/>
        <pt x="233" y="426" on="1"/>
        <pt x="211" y="426" on="0"/>
        <pt x="189" y="422" on="0"/>
        <pt x="187" y="421" on="1"/>
        <pt x="173" y="330" on="1"/>
        <pt x="169" y="328" on="0"/>
        <pt x="138" y="320" on="0"/>
        <pt x="120" y="320" on="1"/>
        <pt x="85" y="320" on="0"/>
        <pt x="51" y="347" on="0"/>
        <pt x="51" y="379" on="1"/>
        <pt x="51" y="421" on="0"/>
        <pt x="120" y="480" on="0"/>
        <pt x="220" y="509" on="0"/>
        <pt x="266" y="509" on="1"/>
        <pt x="354" y="509" on="0"/>
        <pt x="439" y="447" on="0"/>
        <pt x="439" y="373" on="1"/>
        <pt x="439" y="81" on="1"/>
        <pt x="512" y="67" on="1"/>
        <pt x="512" y="16" on="1"/>
        <pt x="507" y="14" on="0"/>
        <pt x="474" y="4" on="0"/>
        <pt x="424" y="-6" on="0"/>
        <pt x="400" y="-6" on="1"/>
        <pt x="361" y="-6" on="0"/>
        <pt x="328" y="17" on="0"/>
        <pt x="320" y="41" on="1"/>
        <pt x="311" y="41" on="1"/>
      </contour>
      <contour>
        <pt x="251" y="210" on="0"/>
        <pt x="193" y="188" on="0"/>
        <pt x="174" y="158" on="0"/>
        <pt x="174" y="135" on="1"/>
        <pt x="174" y="74" on="0"/>
        <pt x="248" y="74" on="1"/>
        <pt x="275" y="74" on="0"/>
        <pt x="307" y="91" on="1"/>
        <pt x="307" y="215" on="1"/>
      </contour>
    </TTGlyph>
</ttFont>
